<svg width="483" height="305" viewBox="0 0 483 305" fill="none" xmlns="http://www.w3.org/2000/svg">
<g filter="url(#filter0_d_1_2244)">
<rect x="30.6992" y="97.2146" width="397.024" height="179.651" rx="22.1522" transform="rotate(-9.61347 30.6992 97.2146)" fill="white" shape-rendering="crispEdges"/>
<rect x="31.3073" y="97.6465" width="395.969" height="178.596" rx="21.6248" transform="rotate(-9.61347 31.3073 97.6465)" stroke="#14191F" stroke-opacity="0.08" stroke-width="1.05487" shape-rendering="crispEdges"/>
<path d="M59.4679 127.965L57.7355 128.258L59.796 116.782L61.6815 116.463L67.4061 126.62L65.6738 126.914L61.1164 118.58L61.0319 118.594L59.4679 127.965ZM59.0409 123.68L64.6605 122.728L64.8931 124.101L59.2735 125.053L59.0409 123.68ZM72.0069 126.01C71.2217 126.143 70.5155 126.079 69.8884 125.82C69.2642 125.556 68.7473 125.135 68.3377 124.556C67.9282 123.977 67.6545 123.28 67.5167 122.467C67.3772 121.643 67.4089 120.89 67.612 120.207C67.8145 119.521 68.1674 118.952 68.6705 118.501C69.1736 118.05 69.8072 117.76 70.5713 117.63C71.1875 117.526 71.7562 117.547 72.2773 117.695C72.7979 117.838 73.2406 118.089 73.6056 118.448C73.974 118.805 74.2327 119.252 74.3814 119.789L72.8445 120.049C72.6956 119.683 72.4465 119.388 72.0971 119.165C71.7513 118.941 71.3267 118.872 70.8231 118.957C70.383 119.031 70.0171 119.213 69.7255 119.501C69.4368 119.786 69.237 120.156 69.1261 120.614C69.0146 121.067 69.0077 121.583 69.1055 122.16C69.2057 122.752 69.382 123.247 69.6343 123.646C69.8866 124.045 70.1965 124.335 70.5639 124.515C70.9349 124.695 71.3439 124.747 71.7911 124.672C72.0904 124.621 72.3523 124.52 72.5767 124.37C72.8041 124.216 72.983 124.021 73.1133 123.785C73.2471 123.548 73.3227 123.278 73.3401 122.975L74.877 122.715C74.9096 123.249 74.8181 123.746 74.6027 124.206C74.3873 124.667 74.0601 125.055 73.6212 125.372C73.1858 125.689 72.6477 125.901 72.0069 126.01ZM80.2968 124.605C79.5116 124.738 78.8054 124.675 78.1783 124.416C77.5541 124.152 77.0372 123.73 76.6277 123.152C76.2181 122.573 75.9444 121.876 75.8067 121.063C75.6671 120.239 75.6989 119.486 75.902 118.803C76.1045 118.117 76.4573 117.548 76.9604 117.097C77.4636 116.646 78.0972 116.356 78.8612 116.226C79.4774 116.122 80.0461 116.143 80.5672 116.29C81.0878 116.434 81.5305 116.685 81.8955 117.043C82.264 117.401 82.5226 117.848 82.6714 118.384L81.1344 118.645C80.9855 118.279 80.7364 117.984 80.387 117.761C80.0412 117.537 79.6166 117.467 79.1131 117.553C78.6729 117.627 78.3071 117.809 78.0154 118.097C77.7268 118.382 77.5269 118.752 77.416 119.209C77.3045 119.663 77.2976 120.178 77.3954 120.756C77.4956 121.347 77.6719 121.843 77.9242 122.242C78.1766 122.641 78.4864 122.931 78.8538 123.111C79.2248 123.291 79.6338 123.343 80.081 123.267C80.3803 123.217 80.6422 123.116 80.8666 122.966C81.094 122.812 81.2729 122.616 81.4032 122.381C81.537 122.144 81.6126 121.874 81.63 121.571L83.167 121.31C83.1995 121.845 83.108 122.342 82.8926 122.802C82.6772 123.262 82.35 123.651 81.9111 123.968C81.4757 124.284 80.9376 124.497 80.2968 124.605ZM88.5867 123.201C87.8262 123.33 87.1329 123.268 86.507 123.016C85.8811 122.763 85.3583 122.35 84.9388 121.776C84.5193 121.203 84.2385 120.497 84.0966 119.659C83.954 118.817 83.9861 118.055 84.1927 117.372C84.3993 116.688 84.7566 116.124 85.2644 115.68C85.7722 115.235 86.4064 114.948 87.167 114.819C87.9275 114.691 88.6208 114.753 89.2467 115.005C89.8726 115.258 90.3957 115.673 90.8158 116.25C91.2359 116.827 91.5173 117.536 91.6598 118.378C91.8017 119.216 91.7691 119.975 91.5619 120.655C91.3547 121.334 90.9971 121.897 90.4893 122.341C89.9815 122.786 89.3473 123.073 88.5867 123.201ZM88.3674 121.875C88.8604 121.791 89.2468 121.592 89.5266 121.276C89.8064 120.961 89.9871 120.574 90.0686 120.114C90.1537 119.654 90.1521 119.164 90.0639 118.643C89.9762 118.125 89.8165 117.663 89.5847 117.257C89.3558 116.847 89.057 116.537 88.6883 116.328C88.3197 116.118 87.8889 116.055 87.3959 116.139C86.8995 116.223 86.5099 116.425 86.2271 116.744C85.9479 117.063 85.7661 117.455 85.6816 117.918C85.6 118.377 85.6031 118.866 85.6907 119.383C85.779 119.905 85.9373 120.369 86.1655 120.775C86.3973 121.182 86.6973 121.488 87.0654 121.693C87.4369 121.898 87.871 121.959 88.3674 121.875ZM98.5237 117.889L97.7195 113.141L99.304 112.872L100.678 120.985L99.1253 121.248L98.8873 119.843L98.8028 119.857C98.6895 120.322 98.4514 120.734 98.0883 121.092C97.7282 121.447 97.2435 121.675 96.6344 121.778C96.1133 121.867 95.6326 121.83 95.1925 121.67C94.7552 121.505 94.3837 121.214 94.0779 120.799C93.7756 120.383 93.5678 119.84 93.4545 119.171L92.5805 114.011L94.1597 113.744L95.0015 118.714C95.0951 119.266 95.3228 119.681 95.6846 119.956C96.0464 120.232 96.4721 120.328 96.9615 120.245C97.2572 120.195 97.5387 120.071 97.8059 119.874C98.0767 119.676 98.2835 119.411 98.4265 119.079C98.5729 118.746 98.6054 118.35 98.5237 117.889ZM103.415 115.566L104.23 120.383L102.651 120.651L101.277 112.538L102.793 112.281L103.017 113.602L103.117 113.585C103.231 113.124 103.465 112.729 103.818 112.401C104.176 112.073 104.659 111.857 105.268 111.754C105.821 111.66 106.325 111.694 106.779 111.856C107.234 112.015 107.614 112.302 107.919 112.717C108.225 113.132 108.435 113.675 108.548 114.344L109.422 119.504L107.843 119.771L107.001 114.801C106.902 114.213 106.671 113.78 106.308 113.501C105.945 113.218 105.496 113.122 104.961 113.213C104.595 113.275 104.282 113.409 104.024 113.616C103.769 113.822 103.585 114.092 103.471 114.427C103.361 114.757 103.342 115.137 103.415 115.566ZM113.804 110.416L114.019 111.684L109.588 112.434L109.373 111.167L113.804 110.416ZM110.232 109.022L111.811 108.755L113.111 116.429C113.163 116.735 113.248 116.958 113.366 117.097C113.483 117.233 113.618 117.317 113.772 117.349C113.929 117.377 114.094 117.376 114.266 117.347C114.393 117.325 114.502 117.298 114.595 117.264C114.687 117.23 114.758 117.204 114.809 117.184L115.315 118.44C115.23 118.491 115.106 118.548 114.942 118.612C114.78 118.68 114.572 118.737 114.319 118.783C113.905 118.86 113.505 118.852 113.12 118.758C112.734 118.664 112.403 118.474 112.127 118.187C111.85 117.901 111.67 117.513 111.587 117.024L110.232 109.022Z" fill="#14191F" fill-opacity="0.64"/>
<path d="M75.3115 168.952C73.5544 169.25 71.9443 169.218 70.4811 168.858C69.0258 168.497 67.8253 167.869 66.8797 166.976C65.9405 166.073 65.3642 164.967 65.1505 163.658C64.9705 162.643 65.0329 161.672 65.3379 160.745C65.6429 159.818 66.1295 159.006 66.7977 158.309C67.4724 157.603 68.2692 157.091 69.188 156.774L69.16 156.608C67.8684 156.543 66.7524 156.08 65.8121 155.218C64.8783 154.347 64.3046 153.256 64.0909 151.947C63.8722 150.703 64.0307 149.534 64.5664 148.438C65.1022 147.342 65.9334 146.411 67.0599 145.645C68.1851 144.871 69.5316 144.351 71.0996 144.085C72.6518 143.822 74.0826 143.872 75.3921 144.234C76.7081 144.586 77.7995 145.191 78.6663 146.05C79.5409 146.907 80.0836 147.958 80.2945 149.202C80.516 150.51 80.3215 151.731 79.711 152.864C79.107 153.987 78.2177 154.79 77.0431 155.273L77.0711 155.438C78.0433 155.436 78.9563 155.658 79.8102 156.105C80.6705 156.543 81.3973 157.149 81.9906 157.924C82.5917 158.698 82.9784 159.593 83.1505 160.609C83.3721 161.917 83.1842 163.152 82.5868 164.315C81.9882 165.471 81.0613 166.458 79.8061 167.279C78.5589 168.098 77.0607 168.656 75.3115 168.952ZM74.739 165.572C75.6451 165.418 76.407 165.131 77.0246 164.71C77.641 164.282 78.0863 163.753 78.3605 163.123C78.6348 162.492 78.7131 161.806 78.5955 161.064C78.4568 160.294 78.1405 159.646 77.6464 159.122C77.1589 158.589 76.5477 158.21 75.8127 157.986C75.0856 157.76 74.2926 157.72 73.4338 157.866C72.567 158.013 71.8236 158.313 71.2033 158.766C70.5831 159.22 70.1267 159.78 69.8342 160.445C69.5482 161.102 69.4746 161.815 69.6132 162.586C69.7308 163.328 70.0228 163.951 70.4892 164.456C70.9543 164.952 71.5484 165.302 72.2715 165.503C73.0025 165.704 73.825 165.727 74.739 165.572ZM72.8712 154.545C73.6119 154.419 74.2405 154.159 74.7571 153.763C75.2815 153.367 75.6639 152.872 75.904 152.28C76.1442 151.689 76.2089 151.041 76.098 150.339C75.9726 149.647 75.7044 149.068 75.2933 148.603C74.8808 148.13 74.363 147.8 73.7398 147.614C73.1152 147.42 72.4286 147.386 71.6801 147.513C70.9158 147.642 70.2669 147.902 69.7332 148.292C69.206 148.673 68.8257 149.155 68.592 149.738C68.3649 150.311 68.3141 150.944 68.4394 151.636C68.5503 152.339 68.8126 152.93 69.2264 153.411C69.6468 153.883 70.1706 154.224 70.7978 154.434C71.4316 154.635 72.1227 154.672 72.8712 154.545ZM96.4623 165.369C94.7052 165.667 93.0951 165.636 91.6319 165.276C90.1766 164.914 88.9761 164.287 88.0304 163.393C87.0913 162.491 86.515 161.385 86.3013 160.075C86.1213 159.06 86.1837 158.089 86.4887 157.162C86.7937 156.235 87.2803 155.423 87.9485 154.727C88.6232 154.021 89.42 153.509 90.3388 153.191L90.3108 153.026C89.0191 152.961 87.9032 152.497 86.9629 151.635C86.0291 150.764 85.4554 149.674 85.2417 148.364C85.023 147.121 85.1815 145.951 85.7172 144.855C86.253 143.76 87.0841 142.829 88.2107 142.062C89.3358 141.288 90.6824 140.768 92.2504 140.503C93.8026 140.24 95.2334 140.289 96.5429 140.651C97.8589 141.004 98.9503 141.609 99.8171 142.467C100.692 143.324 101.234 144.375 101.445 145.62C101.667 146.928 101.472 148.148 100.862 149.281C100.258 150.405 99.3685 151.208 98.1939 151.69L98.2219 151.856C99.1941 151.853 100.107 152.075 100.961 152.523C101.821 152.96 102.548 153.567 103.141 154.342C103.743 155.115 104.129 156.01 104.301 157.027C104.523 158.335 104.335 159.57 103.738 160.733C103.139 161.888 102.212 162.876 100.957 163.696C99.7097 164.515 98.2115 165.073 96.4623 165.369ZM95.8897 161.989C96.7959 161.836 97.5578 161.549 98.1754 161.128C98.7918 160.699 99.2371 160.17 99.5113 159.54C99.7855 158.91 99.8639 158.224 99.7463 157.482C99.6076 156.711 99.2913 156.064 98.7972 155.539C98.3097 155.006 97.6985 154.627 96.9635 154.403C96.2363 154.178 95.4434 154.138 94.5845 154.283C93.7178 154.43 92.9744 154.73 92.3541 155.184C91.7339 155.638 91.2775 156.197 90.985 156.863C90.699 157.519 90.6254 158.233 90.764 159.003C90.8816 159.745 91.1736 160.369 91.64 160.873C92.1051 161.37 92.6992 161.719 93.4223 161.921C94.1533 162.121 94.9758 162.144 95.8897 161.989ZM94.022 150.962C94.7627 150.837 95.3913 150.576 95.9079 150.181C96.4323 149.784 96.8147 149.29 97.0548 148.698C97.295 148.106 97.3596 147.459 97.2487 146.756C97.1234 146.064 96.8552 145.486 96.4441 145.02C96.0316 144.547 95.5138 144.217 94.8905 144.031C94.266 143.837 93.5794 143.803 92.8309 143.93C92.0666 144.06 91.4177 144.319 90.884 144.71C90.3568 145.091 89.9764 145.573 89.7428 146.155C89.5157 146.729 89.4649 147.361 89.5902 148.053C89.7011 148.756 89.9634 149.348 90.3772 149.829C90.7976 150.301 91.3213 150.642 91.9486 150.852C92.5823 151.052 93.2735 151.089 94.022 150.962ZM108.953 162.913L108.416 159.746L115.424 150.085C116.091 149.137 116.638 148.303 117.067 147.582C117.496 146.861 117.795 146.182 117.962 145.546C118.13 144.909 118.157 144.256 118.044 143.587C117.914 142.822 117.63 142.198 117.192 141.713C116.751 141.22 116.203 140.875 115.545 140.679C114.888 140.482 114.173 140.449 113.401 140.58C112.605 140.715 111.936 140.998 111.393 141.43C110.849 141.855 110.462 142.395 110.233 143.049C110.011 143.703 109.97 144.443 110.11 145.271L105.938 145.977C105.678 144.441 105.803 143.046 106.312 141.793C106.821 140.539 107.637 139.497 108.761 138.667C109.892 137.835 111.258 137.283 112.857 137.012C114.481 136.737 115.958 136.799 117.29 137.198C118.622 137.596 119.716 138.266 120.573 139.207C121.437 140.147 121.984 141.294 122.213 142.649C122.367 143.555 122.344 144.475 122.146 145.408C121.947 146.342 121.501 147.414 120.806 148.626C120.12 149.837 119.121 151.331 117.809 153.11L114.356 158.059L114.384 158.225L124.926 156.439L125.547 160.103L108.953 162.913ZM133.801 155.3L133.867 156.627C133.925 157.638 133.899 158.68 133.789 159.752C133.688 160.831 133.557 161.83 133.397 162.749C133.236 163.667 133.104 164.391 132.999 164.919L130.115 165.408C130.144 164.909 130.183 164.229 130.232 163.37C130.288 162.509 130.32 161.547 130.326 160.485C130.333 159.422 130.278 158.353 130.16 157.279L130.019 155.941L133.801 155.3ZM146.524 156.89C144.767 157.188 143.157 157.156 141.694 156.796C140.238 156.435 139.038 155.808 138.092 154.914C137.153 154.011 136.577 152.905 136.363 151.596C136.183 150.581 136.245 149.61 136.55 148.683C136.855 147.756 137.342 146.944 138.01 146.247C138.685 145.541 139.482 145.029 140.4 144.712L140.372 144.546C139.081 144.481 137.965 144.018 137.025 143.156C136.091 142.285 135.517 141.194 135.303 139.885C135.085 138.642 135.243 137.472 135.779 136.376C136.315 135.28 137.146 134.349 138.272 133.583C139.398 132.809 140.744 132.289 142.312 132.023C143.864 131.76 145.295 131.81 146.605 132.172C147.921 132.524 149.012 133.13 149.879 133.988C150.753 134.845 151.296 135.896 151.507 137.141C151.728 138.448 151.534 139.669 150.923 140.802C150.319 141.925 149.43 142.728 148.256 143.211L148.284 143.376C149.256 143.374 150.169 143.596 151.023 144.043C151.883 144.481 152.61 145.087 153.203 145.862C153.804 146.636 154.191 147.531 154.363 148.547C154.585 149.855 154.397 151.091 153.799 152.254C153.201 153.409 152.274 154.396 151.019 155.217C149.771 156.036 148.273 156.594 146.524 156.89ZM145.951 153.51C146.858 153.356 147.619 153.069 148.237 152.649C148.853 152.22 149.299 151.691 149.573 151.061C149.847 150.431 149.926 149.745 149.808 149.003C149.669 148.232 149.353 147.584 148.859 147.06C148.371 146.527 147.76 146.148 147.025 145.924C146.298 145.698 145.505 145.659 144.646 145.804C143.779 145.951 143.036 146.251 142.416 146.705C141.796 147.158 141.339 147.718 141.047 148.383C140.761 149.04 140.687 149.753 140.826 150.524C140.943 151.266 141.235 151.889 141.702 152.394C142.167 152.891 142.761 153.24 143.484 153.441C144.215 153.642 145.037 153.665 145.951 153.51ZM144.084 142.483C144.824 142.357 145.453 142.097 145.97 141.702C146.494 141.305 146.876 140.81 147.117 140.219C147.357 139.627 147.421 138.979 147.31 138.277C147.185 137.585 146.917 137.006 146.506 136.541C146.093 136.068 145.575 135.738 144.952 135.552C144.328 135.358 143.641 135.324 142.893 135.451C142.128 135.58 141.479 135.84 140.946 136.23C140.419 136.611 140.038 137.093 139.804 137.676C139.577 138.249 139.527 138.882 139.652 139.574C139.763 140.277 140.025 140.868 140.439 141.35C140.859 141.821 141.383 142.162 142.01 142.372C142.644 142.573 143.335 142.61 144.084 142.483ZM163.262 128.475C164.421 128.287 165.583 128.301 166.746 128.517C167.916 128.724 169.018 129.202 170.053 129.951C171.086 130.692 171.99 131.766 172.763 133.175C173.537 134.584 174.11 136.392 174.484 138.598C174.844 140.677 174.939 142.574 174.767 144.289C174.602 145.994 174.201 147.481 173.565 148.748C172.928 150.014 172.077 151.042 171.011 151.831C169.945 152.619 168.683 153.137 167.226 153.384C165.697 153.643 164.291 153.573 163.008 153.174C161.732 152.774 160.644 152.115 159.743 151.198C158.842 150.281 158.195 149.167 157.803 147.855L162.117 147.124C162.5 148.048 163.079 148.737 163.853 149.189C164.633 149.632 165.543 149.766 166.583 149.59C168.261 149.306 169.43 148.358 170.089 146.747C170.748 145.136 170.859 143.034 170.419 140.442L170.254 140.47C169.985 141.228 169.586 141.912 169.057 142.52C168.527 143.121 167.894 143.621 167.16 144.021C166.433 144.42 165.636 144.693 164.769 144.839C163.351 145.08 162.017 144.957 160.768 144.471C159.526 143.985 158.475 143.206 157.613 142.137C156.758 141.066 156.199 139.77 155.933 138.251C155.666 136.675 155.789 135.199 156.302 133.824C156.821 132.439 157.673 131.273 158.858 130.327C160.042 129.373 161.51 128.755 163.262 128.475ZM163.874 132.018C163.023 132.163 162.29 132.502 161.676 133.035C161.068 133.56 160.626 134.21 160.353 134.986C160.085 135.752 160.025 136.569 160.172 137.436C160.325 138.293 160.65 139.041 161.147 139.678C161.652 140.314 162.27 140.78 163.002 141.078C163.741 141.374 164.54 141.45 165.398 141.304C166.037 141.196 166.611 140.973 167.121 140.636C167.631 140.298 168.054 139.878 168.391 139.375C168.734 138.863 168.972 138.308 169.106 137.71C169.247 137.11 169.261 136.5 169.148 135.879C169.008 135.052 168.682 134.321 168.169 133.686C167.664 133.05 167.037 132.577 166.287 132.266C165.545 131.954 164.741 131.872 163.874 132.018ZM180.263 150.835L179.726 147.668L186.734 138.006C187.4 137.059 187.948 136.224 188.377 135.503C188.806 134.782 189.105 134.104 189.272 133.467C189.44 132.831 189.467 132.178 189.354 131.508C189.224 130.744 188.94 130.119 188.502 129.634C188.061 129.142 187.513 128.797 186.855 128.6C186.198 128.403 185.483 128.371 184.711 128.501C183.915 128.636 183.246 128.92 182.703 129.352C182.159 129.777 181.772 130.316 181.543 130.971C181.321 131.625 181.28 132.365 181.42 133.192L177.248 133.899C176.988 132.363 177.113 130.968 177.622 129.714C178.131 128.461 178.947 127.419 180.071 126.588C181.202 125.756 182.568 125.205 184.167 124.934C185.791 124.659 187.268 124.721 188.6 125.119C189.932 125.518 191.026 126.188 191.883 127.129C192.747 128.068 193.294 129.216 193.523 130.571C193.677 131.477 193.654 132.397 193.456 133.33C193.257 134.263 192.811 135.336 192.116 136.548C191.43 137.758 190.431 139.253 189.119 141.031L185.666 145.981L185.694 146.146L196.236 144.361L196.856 148.024L180.263 150.835Z" fill="#182700"/>
<path d="M82.6415 205.295C87.57 204.46 90.8885 199.788 90.0538 194.86C89.219 189.932 84.547 186.613 79.6185 187.448C74.69 188.283 71.3715 192.955 72.2062 197.883C73.041 202.811 77.713 206.13 82.6415 205.295Z" fill="#9DFF08"/>
<path d="M78.0306 196.133L80.5014 192.655L83.9798 195.125" stroke="#182700" stroke-width="1.05593" stroke-linecap="round" stroke-linejoin="round"/>
<path d="M81.7629 200.091L80.5033 192.655" stroke="#182700" stroke-width="1.05593" stroke-linecap="round" stroke-linejoin="round"/>
<path d="M103.242 198.357C102.517 198.48 101.848 198.465 101.235 198.311C100.626 198.157 100.118 197.886 99.7117 197.499C99.3085 197.107 99.0448 196.619 98.9205 196.036L100.579 195.755C100.654 196.072 100.809 196.331 101.042 196.535C101.279 196.734 101.566 196.87 101.905 196.943C102.243 197.016 102.606 197.02 102.993 196.954C103.419 196.882 103.784 196.744 104.086 196.541C104.392 196.337 104.616 196.087 104.758 195.791C104.899 195.492 104.94 195.168 104.881 194.82C104.82 194.457 104.672 194.154 104.439 193.911C104.209 193.664 103.903 193.491 103.52 193.393C103.141 193.294 102.702 193.287 102.202 193.372L101.288 193.527L101.063 192.196L101.976 192.041C102.378 191.973 102.718 191.841 102.996 191.645C103.278 191.449 103.483 191.208 103.612 190.922C103.741 190.632 103.775 190.313 103.716 189.964C103.66 189.63 103.535 189.352 103.342 189.131C103.151 188.906 102.907 188.746 102.609 188.652C102.314 188.557 101.981 188.541 101.612 188.604C101.259 188.663 100.941 188.784 100.657 188.966C100.376 189.144 100.16 189.369 100.011 189.641C99.8605 189.909 99.8064 190.21 99.8484 190.543L98.2692 190.811C98.1878 190.223 98.2732 189.68 98.5255 189.181C98.7814 188.681 99.1592 188.26 99.6591 187.918C100.159 187.577 100.74 187.35 101.402 187.237C102.096 187.12 102.717 187.154 103.267 187.34C103.819 187.522 104.27 187.813 104.621 188.214C104.975 188.614 105.195 189.08 105.281 189.612C105.387 190.217 105.305 190.76 105.036 191.24C104.769 191.72 104.366 192.08 103.827 192.319L103.842 192.404C104.579 192.391 105.183 192.582 105.656 192.977C106.132 193.371 106.426 193.91 106.538 194.593C106.642 195.188 106.567 195.749 106.313 196.278C106.061 196.806 105.672 197.254 105.144 197.622C104.615 197.987 103.981 198.232 103.242 198.357ZM112.685 196.79C111.85 196.928 111.099 196.829 110.434 196.492C109.768 196.156 109.208 195.597 108.753 194.816C108.299 194.034 107.972 193.055 107.773 191.879C107.574 190.707 107.561 189.679 107.734 188.795C107.91 187.91 108.257 187.199 108.774 186.662C109.295 186.125 109.97 185.786 110.797 185.646C111.624 185.506 112.371 185.606 113.037 185.946C113.703 186.282 114.263 186.839 114.717 187.617C115.174 188.391 115.502 189.364 115.7 190.537C115.9 191.716 115.914 192.75 115.742 193.637C115.569 194.521 115.224 195.234 114.707 195.774C114.19 196.311 113.516 196.649 112.685 196.79ZM112.446 195.38C113.178 195.256 113.69 194.802 113.981 194.017C114.275 193.232 114.308 192.163 114.079 190.811C113.927 189.913 113.703 189.171 113.408 188.583C113.116 187.992 112.767 187.565 112.36 187.305C111.957 187.04 111.514 186.948 111.031 187.03C110.303 187.153 109.791 187.609 109.497 188.398C109.204 189.187 109.169 190.256 109.394 191.605C109.547 192.506 109.769 193.253 110.061 193.844C110.356 194.432 110.705 194.856 111.108 195.118C111.51 195.375 111.956 195.463 112.446 195.38ZM123.643 192.663L123.546 192.093C123.477 191.684 123.498 191.297 123.61 190.93C123.725 190.559 123.928 190.244 124.221 189.984C124.517 189.721 124.899 189.549 125.367 189.47C125.846 189.389 126.265 189.423 126.624 189.572C126.982 189.721 127.273 189.953 127.496 190.266C127.723 190.579 127.871 190.94 127.94 191.348L128.037 191.919C128.106 192.327 128.085 192.717 127.974 193.087C127.862 193.453 127.66 193.768 127.368 194.032C127.079 194.291 126.698 194.46 126.226 194.54C125.751 194.621 125.332 194.586 124.97 194.438C124.608 194.285 124.313 194.055 124.087 193.745C123.86 193.432 123.712 193.072 123.643 192.663ZM124.777 191.884L124.873 192.455C124.925 192.757 125.043 193.02 125.229 193.242C125.416 193.464 125.688 193.545 126.047 193.484C126.403 193.423 126.63 193.258 126.729 192.988C126.829 192.718 126.852 192.431 126.801 192.128L126.705 191.558C126.653 191.255 126.538 190.992 126.359 190.769C126.183 190.545 125.913 190.464 125.546 190.526C125.194 190.586 124.965 190.751 124.859 191.023C124.753 191.294 124.725 191.581 124.777 191.884ZM117.154 187.395L117.058 186.824C116.988 186.416 117.009 186.026 117.121 185.656C117.235 185.285 117.439 184.97 117.732 184.711C118.028 184.45 118.411 184.28 118.879 184.201C119.358 184.12 119.777 184.154 120.135 184.303C120.494 184.453 120.785 184.684 121.008 184.998C121.231 185.311 121.377 185.672 121.447 186.081L121.543 186.651C121.612 187.06 121.591 187.449 121.48 187.819C121.372 188.185 121.172 188.5 120.88 188.763C120.59 189.022 120.21 189.192 119.738 189.271C119.259 189.353 118.838 189.319 118.476 189.17C118.117 189.017 117.825 188.786 117.598 188.477C117.371 188.164 117.223 187.803 117.154 187.395ZM118.294 186.615L118.39 187.185C118.441 187.488 118.558 187.751 118.741 187.973C118.927 188.195 119.2 188.276 119.559 188.215C119.911 188.155 120.137 187.99 120.236 187.72C120.338 187.449 120.364 187.162 120.313 186.86L120.216 186.289C120.165 185.986 120.05 185.723 119.871 185.5C119.691 185.277 119.421 185.196 119.058 185.257C118.706 185.317 118.477 185.483 118.371 185.754C118.268 186.025 118.242 186.312 118.294 186.615ZM119.048 195.528L124.652 183.451L125.915 183.238L120.31 195.314L119.048 195.528Z" fill="#182700"/>
<path d="M78.34 246.054C80.2122 242.835 88.0999 237.438 104.673 241.593C125.389 246.787 128.808 226.679 138.404 219.11C148 211.542 155.246 222.838 175.989 224.419C192.585 225.684 217.638 202.506 228.091 190.759" stroke="#9DFF08" stroke-width="3.01696" stroke-linecap="round"/>
<g filter="url(#filter1_f_1_2244)">
<path d="M78.1133 250.813C79.9856 247.595 87.8732 242.197 104.446 246.353C125.162 251.547 128.581 231.439 138.177 223.87C147.773 216.301 155.019 227.597 175.763 229.178C192.358 230.443 217.411 207.266 227.864 195.519" stroke="url(#paint0_radial_1_2244)" stroke-width="6.03391"/>
</g>
<g clip-path="url(#clip0_1_2244)">
<rect x="223.663" y="68.8102" width="197.807" height="171.212" rx="16.8779" transform="rotate(-9.61347 223.663 68.8102)" fill="#9DFF08"/>
<path d="M258.877 89.8403C258.686 89.4619 258.456 89.1333 258.186 88.8546C257.919 88.57 257.617 88.3399 257.278 88.164C256.943 87.9874 256.574 87.8749 256.171 87.8267C255.766 87.7735 255.337 87.7853 254.884 87.8621C254.07 87.9999 253.38 88.3272 252.814 88.8441C252.247 89.3609 251.849 90.0471 251.618 90.9025C251.392 91.7522 251.375 92.7439 251.567 93.8777C251.761 95.0213 252.105 95.9595 252.599 96.6922C253.093 97.4249 253.696 97.944 254.407 98.2495C255.117 98.5501 255.896 98.6286 256.744 98.485C257.513 98.3547 258.153 98.0941 258.665 97.7032C259.182 97.3114 259.547 96.8185 259.761 96.2245C259.974 95.6256 260.018 94.9588 259.894 94.2243L260.531 94.2153L256.42 94.9116L256.057 92.7673L262.201 91.7265L262.509 93.5455C262.729 94.842 262.643 96.0102 262.251 97.0501C261.859 98.0901 261.224 98.9483 260.344 99.6246C259.464 100.296 258.398 100.738 257.146 100.95C255.751 101.186 254.473 101.081 253.312 100.633C252.155 100.18 251.183 99.4244 250.395 98.3661C249.611 97.3021 249.084 95.9716 248.814 94.3744C248.607 93.1519 248.594 92.0308 248.777 91.0111C248.964 89.9906 249.314 89.0921 249.826 88.3156C250.338 87.5342 250.985 86.8972 251.769 86.4044C252.552 85.9067 253.439 85.5739 254.43 85.4061C255.268 85.2642 256.07 85.2551 256.836 85.3788C257.602 85.4976 258.303 85.7337 258.941 86.0871C259.584 86.4397 260.14 86.8932 260.609 87.4476C261.079 88.002 261.433 88.6417 261.672 89.3669L258.877 89.8403ZM270.936 98.6293C269.797 98.8222 268.774 98.7521 267.865 98.4192C266.961 98.0805 266.213 97.5124 265.622 96.715C265.029 95.9127 264.633 94.9176 264.431 93.7296C264.234 92.5613 264.282 91.4984 264.576 90.5409C264.874 89.5776 265.383 88.7814 266.103 88.1524C266.823 87.5184 267.724 87.1096 268.809 86.9259C269.509 86.8073 270.189 86.8088 270.848 86.9304C271.512 87.0461 272.122 87.2977 272.68 87.685C273.242 88.0715 273.723 88.6037 274.122 89.2815C274.52 89.9545 274.803 90.7888 274.972 91.7846L275.111 92.6053L265.801 94.1821L265.496 92.378L272.239 91.2357C272.147 90.7239 271.959 90.2867 271.675 89.9242C271.389 89.5567 271.032 89.2901 270.604 89.1244C270.18 88.9578 269.712 88.9179 269.199 89.0048C268.652 89.0975 268.194 89.312 267.825 89.6483C267.455 89.9797 267.191 90.3794 267.032 90.8475C266.877 91.3099 266.84 91.7953 266.921 92.3039L267.187 93.8789C267.299 94.5394 267.516 95.0859 267.838 95.5182C268.159 95.9456 268.557 96.2482 269.034 96.4262C269.509 96.5992 270.038 96.6364 270.62 96.5379C271.009 96.4719 271.352 96.358 271.649 96.1961C271.946 96.0293 272.191 95.8178 272.386 95.5617C272.581 95.3055 272.711 95.0072 272.775 94.6668L275.321 94.5244C275.276 95.2117 275.073 95.8394 274.712 96.4075C274.356 96.9698 273.859 97.4446 273.219 97.8317C272.579 98.214 271.818 98.4798 270.936 98.6293ZM281.752 84.8857L282.103 86.956L275.574 88.0619L275.223 85.9915L281.752 84.8857ZM276.374 82.9974L279.051 82.5441L280.857 93.2065C280.918 93.5664 281.019 93.8332 281.16 94.0071C281.305 94.1752 281.475 94.2784 281.669 94.3165C281.863 94.3546 282.071 94.3549 282.293 94.3173C282.46 94.2889 282.611 94.2507 282.745 94.2027C282.884 94.1538 282.988 94.1133 283.059 94.081L283.864 96.0972C283.73 96.1707 283.534 96.2596 283.278 96.3638C283.027 96.4672 282.712 96.556 282.334 96.6302C281.667 96.7634 281.046 96.7646 280.471 96.6338C279.896 96.4981 279.41 96.2203 279.014 95.8005C278.624 95.3799 278.371 94.8142 278.255 94.1036L276.374 82.9974ZM294.411 82.7416L294.761 84.812L288.232 85.9179L287.882 83.8475L294.411 82.7416ZM289.033 80.8534L291.709 80.4L293.515 91.0625C293.576 91.4223 293.677 91.6892 293.818 91.8631C293.963 92.0312 294.133 92.1343 294.327 92.1724C294.521 92.2105 294.729 92.2108 294.951 92.1732C295.119 92.1448 295.269 92.1066 295.403 92.0586C295.542 92.0098 295.647 91.9692 295.717 91.937L296.523 93.9531C296.388 94.0266 296.193 94.1155 295.937 94.2198C295.685 94.3232 295.371 94.4119 294.993 94.4861C294.326 94.6194 293.705 94.6206 293.13 94.4898C292.554 94.354 292.068 94.0763 291.673 93.6565C291.282 93.2358 291.029 92.6702 290.914 91.9595L289.033 80.8534ZM300.158 86.6057L301.286 93.2605L298.609 93.7139L296.044 78.5705L298.661 78.1272L299.63 83.8429L299.763 83.8203C299.92 83.1344 300.246 82.5594 300.741 82.0954C301.239 81.6256 301.922 81.3172 302.79 81.1702C303.579 81.0366 304.294 81.0853 304.937 81.3162C305.579 81.5471 306.115 81.9534 306.543 82.535C306.976 83.1158 307.27 83.8647 307.425 84.7815L308.65 92.0131L305.973 92.4665L304.819 85.649C304.689 84.8849 304.392 84.3243 303.925 83.9672C303.463 83.6043 302.88 83.4825 302.175 83.6019C301.702 83.6821 301.295 83.8574 300.956 84.1279C300.62 84.3926 300.379 84.7352 300.232 85.1556C300.09 85.5752 300.066 86.0585 300.158 86.6057ZM316.236 90.9564C315.097 91.1493 314.074 91.0792 313.166 90.7463C312.261 90.4075 311.513 89.8395 310.922 89.0421C310.33 88.2398 309.933 87.2447 309.732 86.0567C309.534 84.8884 309.582 83.8255 309.876 82.8679C310.175 81.9047 310.684 81.1085 311.404 80.4794C312.123 79.8455 313.025 79.4366 314.109 79.2529C314.809 79.1344 315.489 79.1359 316.148 79.2574C316.812 79.3732 317.423 79.6248 317.98 80.0121C318.543 80.3986 319.023 80.9307 319.422 81.6086C319.82 82.2816 320.103 83.1159 320.272 84.1117L320.411 84.9324L311.102 86.5092L310.796 84.705L317.539 83.5628C317.448 83.051 317.26 82.6138 316.975 82.2512C316.69 81.8838 316.333 81.6172 315.904 81.4514C315.48 81.2849 315.012 81.245 314.499 81.3319C313.952 81.4245 313.494 81.639 313.125 81.9754C312.755 82.3068 312.491 82.7065 312.332 83.1746C312.177 83.637 312.14 84.1224 312.221 84.631L312.488 86.206C312.6 86.8665 312.816 87.4129 313.138 87.8453C313.459 88.2727 313.858 88.5753 314.334 88.7532C314.81 88.9262 315.338 88.9635 315.92 88.8649C316.309 88.799 316.653 88.6851 316.95 88.5232C317.246 88.3564 317.492 88.1449 317.686 87.8887C317.881 87.6326 318.011 87.3343 318.075 86.9939L320.622 86.8515C320.576 87.5388 320.373 88.1665 320.013 88.7346C319.657 89.2969 319.159 89.7716 318.52 90.1588C317.88 90.5411 317.118 90.8069 316.236 90.9564ZM328.262 88.6913L326.338 77.3338L329.015 76.8804L330.938 88.2379L328.262 88.6913ZM327.411 75.4939C326.987 75.5657 326.598 75.487 326.245 75.2578C325.891 75.0237 325.68 74.7069 325.612 74.3077C325.544 73.9034 325.639 73.535 325.897 73.2022C326.154 72.8645 326.494 72.6598 326.918 72.588C327.347 72.5153 327.736 72.5965 328.085 72.8315C328.439 73.0607 328.649 73.3774 328.718 73.7816C328.786 74.1809 328.691 74.5494 328.434 74.8871C328.18 75.219 327.839 75.4213 327.411 75.4939ZM335.032 80.6988L336.159 87.3536L333.483 87.807L331.559 76.4495L334.117 76.0161L334.444 77.946L334.577 77.9235C334.731 77.2433 335.062 76.6675 335.57 76.196C336.083 75.7237 336.764 75.4157 337.612 75.2721C338.396 75.1393 339.107 75.1913 339.745 75.428C340.389 75.6638 340.924 76.0726 341.352 76.6542C341.786 77.235 342.076 77.9793 342.225 78.8872L343.45 86.1187L340.773 86.5721L339.619 79.7546C339.49 78.9955 339.192 78.4349 338.725 78.0728C338.263 77.7099 337.687 77.5869 336.997 77.7038C336.529 77.7831 336.13 77.9572 335.8 78.226C335.474 78.4891 335.24 78.8304 335.099 79.25C334.962 79.6687 334.939 80.1516 335.032 80.6988ZM350.955 85.0758C349.821 85.2678 348.805 85.1838 347.907 84.8237C347.015 84.4627 346.275 83.8807 345.687 83.0776C345.104 82.2687 344.715 81.2899 344.52 80.1414C344.325 78.9879 344.375 77.9323 344.669 76.9748C344.962 76.0124 345.471 75.2162 346.196 74.5863C346.925 73.9507 347.844 73.5389 348.953 73.3511C349.875 73.1949 350.72 73.2268 351.487 73.4467C352.259 73.6609 352.909 74.0401 353.437 74.5845C353.965 75.1239 354.327 75.7978 354.525 76.6061L351.967 77.0394C351.77 76.5098 351.447 76.0955 350.995 75.7967C350.548 75.4921 350.002 75.3945 349.356 75.5039C348.809 75.5966 348.353 75.8259 347.989 76.1918C347.625 76.5528 347.373 77.0265 347.234 77.6129C347.1 78.1985 347.097 78.8733 347.227 79.6373C347.358 80.4113 347.584 81.0576 347.905 81.5762C348.225 82.0899 348.615 82.4624 349.075 82.6938C349.54 82.9194 350.05 82.9851 350.607 82.8907C351.002 82.8239 351.342 82.6903 351.627 82.4898C351.917 82.2836 352.143 82.0195 352.307 81.6977C352.47 81.3759 352.557 81.0037 352.566 80.5812L355.125 80.1479C355.197 80.9623 355.081 81.7146 354.777 82.4051C354.472 83.0906 353.997 83.668 353.351 84.1374C352.705 84.6018 351.906 84.9146 350.955 85.0758ZM362.764 83.0756C361.655 83.2634 360.652 83.1822 359.756 82.832C358.86 82.4817 358.113 81.9059 357.516 81.1044C356.924 80.3021 356.528 79.3143 356.33 78.1411C356.131 76.9679 356.179 75.9025 356.473 74.945C356.772 73.9867 357.287 73.1946 358.018 72.5688C358.748 71.943 359.668 71.5362 360.777 71.3483C361.887 71.1605 362.889 71.2417 363.785 71.5919C364.681 71.9422 365.426 72.5209 366.019 73.3281C366.617 74.1345 367.015 75.1243 367.214 76.2975C367.413 77.4708 367.362 78.5341 367.062 79.4875C366.767 80.4401 366.254 81.2293 365.524 81.8551C364.793 82.4809 363.873 82.8877 362.764 83.0756ZM362.415 80.9287C363.017 80.8269 363.492 80.5766 363.84 80.1778C364.187 79.7741 364.412 79.2746 364.514 78.6793C364.621 78.0831 364.616 77.4399 364.499 76.7498C364.381 76.0547 364.174 75.4433 363.877 74.9156C363.583 74.3821 363.206 73.982 362.745 73.7153C362.284 73.4485 361.753 73.3661 361.152 73.468C360.535 73.5723 360.051 73.8268 359.699 74.2313C359.351 74.6349 359.125 75.1373 359.019 75.7385C358.917 76.3338 358.924 76.979 359.042 77.6741C359.159 78.3642 359.364 78.9736 359.656 79.5021C359.953 80.0298 360.332 80.4271 360.793 80.6938C361.259 80.9548 361.799 81.0331 362.415 80.9287ZM370.232 81.5824L368.308 70.2249L370.867 69.7915L371.194 71.7214L371.327 71.6989C371.453 71.0081 371.759 70.434 372.244 69.9765C372.729 69.5142 373.351 69.2187 374.11 69.0901C374.879 68.9598 375.559 69.0374 376.15 69.3227C376.745 69.6022 377.205 70.044 377.53 70.6481L377.649 70.6281C377.793 69.9545 378.132 69.3799 378.665 68.9042C379.202 68.4228 379.882 68.1124 380.706 67.9729C381.751 67.7959 382.659 67.9817 383.432 68.5304C384.204 69.0791 384.698 69.9868 384.912 71.2537L386.204 78.8772L383.519 79.3318L382.298 72.1224C382.179 71.4175 381.904 70.9341 381.475 70.6722C381.044 70.4054 380.558 70.3179 380.015 70.4098C379.37 70.5191 378.899 70.8068 378.602 71.2728C378.31 71.7331 378.218 72.2836 378.327 72.9244L379.527 80.0081L376.902 80.4527L375.662 73.1324C375.562 72.5458 375.306 72.1076 374.891 71.8177C374.482 71.527 373.994 71.4297 373.427 71.5257C373.043 71.5908 372.709 71.7487 372.427 71.9993C372.144 72.245 371.939 72.5611 371.812 72.9478C371.684 73.3295 371.66 73.7545 371.739 74.2228L372.909 81.129L370.232 81.5824ZM393.776 77.8227C392.638 78.0155 391.614 77.9455 390.706 77.6125C389.802 77.2738 389.054 76.7058 388.462 75.9084C387.87 75.1061 387.473 74.1109 387.272 72.9229C387.074 71.7546 387.122 70.6917 387.417 69.7342C387.715 68.7709 388.224 67.9748 388.944 67.3457C389.663 66.7117 390.565 66.3029 391.65 66.1192C392.35 66.0007 393.029 66.0022 393.689 66.1237C394.352 66.2395 394.963 66.491 395.521 66.8784C396.083 67.2648 396.564 67.797 396.962 68.4749C397.36 69.1478 397.644 69.9822 397.812 70.9779L397.951 71.7987L388.642 73.3755L388.336 71.5713L395.08 70.4291C394.988 69.9173 394.8 69.4801 394.515 69.1175C394.23 68.75 393.873 68.4834 393.444 68.3177C393.021 68.1512 392.552 68.1113 392.04 68.1981C391.493 68.2908 391.035 68.5053 390.666 68.8416C390.296 69.173 390.031 69.5728 389.872 70.0409C389.717 70.5032 389.68 70.9887 389.761 71.4973L390.028 73.0722C390.14 73.7328 390.357 74.2792 390.679 74.7115C390.999 75.1389 391.398 75.4416 391.874 75.6195C392.35 75.7925 392.879 75.8297 393.46 75.7312C393.85 75.6653 394.193 75.5513 394.49 75.3895C394.786 75.2226 395.032 75.0112 395.227 74.755C395.422 74.4989 395.551 74.2006 395.615 73.8601L398.162 73.7178C398.116 74.4051 397.913 75.0327 397.553 75.6008C397.197 76.1632 396.699 76.6379 396.06 77.0251C395.42 77.4073 394.659 77.6732 393.776 77.8227ZM259.861 127.89C258.752 128.078 257.749 127.996 256.853 127.646C255.957 127.296 255.21 126.72 254.613 125.919C254.021 125.116 253.625 124.129 253.427 122.955C253.228 121.782 253.276 120.717 253.57 119.759C253.869 118.801 254.384 118.009 255.115 117.383C255.845 116.757 256.765 116.35 257.874 116.163C258.984 115.975 259.986 116.056 260.882 116.406C261.778 116.756 262.523 117.335 263.116 118.142C263.714 118.949 264.112 119.939 264.311 121.112C264.51 122.285 264.459 123.348 264.159 124.302C263.864 125.254 263.351 126.043 262.621 126.669C261.89 127.295 260.97 127.702 259.861 127.89ZM259.512 125.743C260.114 125.641 260.589 125.391 260.937 124.992C261.284 124.588 261.509 124.089 261.611 123.493C261.718 122.897 261.713 122.254 261.596 121.564C261.478 120.869 261.271 120.258 260.974 119.73C260.68 119.196 260.303 118.796 259.842 118.529C259.381 118.263 258.85 118.18 258.249 118.282C257.632 118.387 257.148 118.641 256.796 119.045C256.448 119.449 256.222 119.952 256.116 120.553C256.014 121.148 256.021 121.793 256.139 122.488C256.256 123.178 256.461 123.788 256.753 124.316C257.05 124.844 257.429 125.241 257.89 125.508C258.356 125.769 258.896 125.847 259.512 125.743ZM275.164 113.386L273.043 125.429L270.085 125.93L264.117 115.257L266.971 114.774L271.01 122.769L271.128 122.749L272.317 113.868L275.164 113.386ZM283.411 123.901C282.272 124.094 281.249 124.024 280.34 123.691C279.436 123.352 278.688 122.784 278.097 121.987C277.505 121.184 277.108 120.189 276.907 119.001C276.709 117.833 276.757 116.77 277.051 115.812C277.349 114.849 277.858 114.053 278.579 113.424C279.298 112.79 280.2 112.381 281.284 112.197C281.984 112.079 282.664 112.08 283.323 112.202C283.987 112.318 284.597 112.569 285.155 112.957C285.717 113.343 286.198 113.875 286.597 114.553C286.995 115.226 287.278 116.06 287.447 117.056L287.586 117.877L278.276 119.454L277.971 117.649L284.714 116.507C284.622 115.995 284.434 115.558 284.15 115.196C283.864 114.828 283.507 114.562 283.079 114.396C282.655 114.229 282.187 114.189 281.674 114.276C281.127 114.369 280.669 114.584 280.3 114.92C279.93 115.251 279.666 115.651 279.507 116.119C279.352 116.581 279.315 117.067 279.396 117.575L279.663 119.15C279.774 119.811 279.991 120.357 280.313 120.79C280.634 121.217 281.032 121.52 281.509 121.698C281.984 121.871 282.513 121.908 283.095 121.809C283.484 121.743 283.827 121.63 284.124 121.468C284.421 121.301 284.666 121.089 284.861 120.833C285.056 120.577 285.186 120.279 285.25 119.938L287.797 119.796C287.751 120.483 287.548 121.111 287.188 121.679C286.832 122.241 286.334 122.716 285.695 123.103C285.054 123.486 284.293 123.751 283.411 123.901ZM290.48 122.475L288.556 111.118L291.151 110.678L291.472 112.571L291.59 112.551C291.686 111.86 291.956 111.295 292.398 110.855C292.845 110.409 293.394 110.131 294.045 110.021C294.192 109.996 294.359 109.975 294.544 109.959C294.733 109.937 294.891 109.928 295.018 109.932L295.435 112.394C295.315 112.374 295.13 112.37 294.878 112.382C294.631 112.389 294.394 112.411 294.167 112.449C293.679 112.532 293.258 112.712 292.905 112.99C292.555 113.262 292.301 113.602 292.142 114.009C291.982 114.417 291.944 114.862 292.026 115.345L293.156 122.022L290.48 122.475ZM307.094 107.978L304.973 120.02L302.015 120.521L296.047 109.849L298.901 109.366L302.94 117.36L303.059 117.34L304.247 108.46L307.094 107.978ZM310.662 119.057L308.738 107.699L311.415 107.246L313.338 118.604L310.662 119.057ZM309.811 105.86C309.387 105.931 308.998 105.853 308.645 105.623C308.291 105.389 308.08 105.073 308.013 104.673C307.944 104.269 308.039 103.901 308.297 103.568C308.554 103.23 308.895 103.025 309.319 102.954C309.747 102.881 310.136 102.962 310.486 103.197C310.839 103.426 311.05 103.743 311.118 104.147C311.186 104.547 311.091 104.915 310.834 105.253C310.581 105.585 310.24 105.787 309.811 105.86ZM320.948 117.543C319.81 117.736 318.786 117.666 317.878 117.333C316.974 116.994 316.226 116.426 315.634 115.629C315.042 114.826 314.645 113.831 314.444 112.643C314.246 111.475 314.294 110.412 314.589 109.454C314.887 108.491 315.396 107.695 316.116 107.066C316.835 106.432 317.737 106.023 318.822 105.839C319.522 105.721 320.201 105.722 320.861 105.844C321.524 105.96 322.135 106.211 322.692 106.598C323.255 106.985 323.735 107.517 324.134 108.195C324.532 108.868 324.816 109.702 324.984 110.698L325.123 111.519L315.814 113.096L315.508 111.291L322.252 110.149C322.16 109.637 321.972 109.2 321.687 108.838C321.402 108.47 321.045 108.204 320.616 108.038C320.193 107.871 319.724 107.831 319.212 107.918C318.665 108.011 318.206 108.225 317.837 108.562C317.468 108.893 317.203 109.293 317.044 109.761C316.889 110.223 316.852 110.709 316.933 111.217L317.2 112.792C317.312 113.453 317.529 113.999 317.85 114.432C318.171 114.859 318.57 115.162 319.046 115.34C319.522 115.513 320.05 115.55 320.632 115.451C321.022 115.385 321.365 115.271 321.662 115.11C321.958 114.943 322.204 114.731 322.399 114.475C322.594 114.219 322.723 113.921 322.787 113.58L325.334 113.438C325.288 114.125 325.085 114.753 324.725 115.321C324.369 115.883 323.871 116.358 323.232 116.745C322.592 117.127 321.831 117.393 320.948 117.543ZM330.3 115.731L325.167 104.917L327.896 104.454L331.245 112.102L331.349 112.085L332.037 103.753L334.736 103.296L338.122 110.892L338.232 110.873L338.854 102.598L341.59 102.135L340.297 114.037L337.51 114.509L334.08 107.195L333.925 107.221L333.095 115.257L330.3 115.731Z" fill="#182700"/>
<rect x="261.332" y="175.017" width="159" height="44.1356" rx="22.0678" transform="rotate(-9.61347 261.332 175.017)" fill="#182700"/>
<path d="M321.445 182.373L324.85 188.803L324.939 188.788L326.033 181.596L327.757 181.304L326.172 190.474L324.237 190.802L319.725 182.664L321.445 182.373ZM330.176 189.796L329.077 183.306L330.606 183.047L331.706 189.537L330.176 189.796ZM329.69 182.254C329.447 182.295 329.225 182.25 329.024 182.12C328.821 181.986 328.701 181.805 328.662 181.577C328.623 181.346 328.677 181.135 328.825 180.945C328.972 180.752 329.166 180.635 329.408 180.594C329.654 180.552 329.876 180.599 330.075 180.733C330.277 180.864 330.398 181.045 330.437 181.276C330.475 181.504 330.421 181.715 330.274 181.908C330.13 182.097 329.935 182.213 329.69 182.254ZM336.054 188.931C335.403 189.041 334.819 189.001 334.299 188.81C333.783 188.617 333.355 188.292 333.017 187.837C332.679 187.378 332.452 186.81 332.337 186.131C332.224 185.463 332.252 184.856 332.42 184.309C332.59 183.758 332.881 183.303 333.293 182.944C333.704 182.581 334.219 182.348 334.839 182.243C335.239 182.175 335.627 182.176 336.004 182.245C336.383 182.312 336.732 182.455 337.051 182.677C337.372 182.898 337.647 183.202 337.875 183.589C338.102 183.974 338.264 184.45 338.36 185.019L338.44 185.488L333.12 186.389L332.945 185.358L336.799 184.706C336.746 184.413 336.639 184.163 336.476 183.956C336.313 183.746 336.109 183.594 335.864 183.499C335.622 183.404 335.355 183.381 335.062 183.431C334.749 183.484 334.487 183.606 334.276 183.799C334.065 183.988 333.914 184.216 333.823 184.484C333.735 184.748 333.713 185.025 333.76 185.316L333.912 186.216C333.976 186.593 334.1 186.906 334.284 187.153C334.467 187.397 334.695 187.57 334.967 187.672C335.239 187.77 335.541 187.792 335.873 187.735C336.096 187.698 336.292 187.633 336.462 187.54C336.631 187.445 336.771 187.324 336.883 187.178C336.994 187.031 337.068 186.861 337.105 186.666L338.56 186.585C338.534 186.978 338.418 187.336 338.212 187.661C338.009 187.982 337.724 188.254 337.359 188.475C336.993 188.693 336.558 188.845 336.054 188.931ZM341.398 187.895L338.465 181.716L340.024 181.452L341.938 185.822L341.997 185.812L342.39 181.051L343.932 180.79L345.867 185.13L345.931 185.119L346.286 180.391L347.849 180.126L347.111 186.927L345.518 187.197L343.558 183.018L343.469 183.033L342.995 187.624L341.398 187.895ZM353.909 185.776L352.236 186.059L353.816 176.89L355.751 176.562L360.268 184.699L358.595 184.982L355.118 178.495L355.051 178.506L353.909 185.776ZM353.389 182.374L357.952 181.601L358.166 182.86L353.602 183.633L353.389 182.374ZM361.285 175.625L362.75 184.278L361.221 184.537L359.755 175.884L361.285 175.625ZM364.268 175.12L365.734 183.773L364.204 184.032L362.739 175.379L364.268 175.12Z" fill="white"/>
</g>
</g>
<defs>
<filter id="filter0_d_1_2244" x="-3.05653" y="-2.84437" width="488.962" height="310.943" filterUnits="userSpaceOnUse" color-interpolation-filters="sRGB">
<feFlood flood-opacity="0" result="BackgroundImageFix"/>
<feColorMatrix in="SourceAlpha" type="matrix" values="0 0 0 0 0 0 0 0 0 0 0 0 0 0 0 0 0 0 127 0" result="hardAlpha"/>
<feOffset/>
<feGaussianBlur stdDeviation="16.8779"/>
<feComposite in2="hardAlpha" operator="out"/>
<feColorMatrix type="matrix" values="0 0 0 0 0 0 0 0 0 0 0 0 0 0 0 0 0 0 0.04 0"/>
<feBlend mode="normal" in2="BackgroundImageFix" result="effect1_dropShadow_1_2244"/>
<feBlend mode="normal" in="SourceGraphic" in2="effect1_dropShadow_1_2244" result="shape"/>
</filter>
<filter id="filter1_f_1_2244" x="55.4631" y="173.471" width="194.697" height="98.9017" filterUnits="userSpaceOnUse" color-interpolation-filters="sRGB">
<feFlood flood-opacity="0" result="BackgroundImageFix"/>
<feBlend mode="normal" in="SourceGraphic" in2="BackgroundImageFix" result="shape"/>
<feGaussianBlur stdDeviation="10.0212" result="effect1_foregroundBlur_1_2244"/>
</filter>
<radialGradient id="paint0_radial_1_2244" cx="0" cy="0" r="1" gradientUnits="userSpaceOnUse" gradientTransform="translate(154.826 225.995) rotate(89.2559) scale(203.079 118.992)">
<stop stop-opacity="0.2"/>
<stop offset="1" stop-color="#A1FF12" stop-opacity="0"/>
</radialGradient>
<clipPath id="clip0_1_2244">
<rect x="223.663" y="68.8102" width="197.807" height="171.212" rx="16.8779" transform="rotate(-9.61347 223.663 68.8102)" fill="white"/>
</clipPath>
</defs>
</svg>
