<svg width="546" height="501" viewBox="0 0 546 501" fill="none" xmlns="http://www.w3.org/2000/svg">
<rect x="0.134521" y="51.1978" width="502.899" height="451.24" rx="24" transform="rotate(-5.77209 0.134521 51.1978)" fill="url(#paint0_linear_1_3117)"/>
<rect x="0.682272" y="51.6449" width="501.899" height="450.24" rx="23.5" transform="rotate(-5.77209 0.682272 51.6449)" stroke="white" stroke-opacity="0.12"/>
<g clip-path="url(#clip0_1_3117)">
<rect x="36.4158" y="9.0332" width="480" height="480" rx="24" fill="#C4C4C4"/>
<g clip-path="url(#clip1_1_3117)">
<path d="M129.732 351.141H90.8711V364.27H129.732V351.141Z" stroke="#CECECE" stroke-width="1.5" stroke-miterlimit="10" stroke-linecap="round" stroke-linejoin="round"/>
<path d="M111.599 364.27H72.738V377.399H111.599V364.27Z" stroke="#CECECE" stroke-width="1.5" stroke-miterlimit="10" stroke-linecap="round" stroke-linejoin="round"/>
<path d="M131.029 377.398H92.1677V390.527H131.029V377.398Z" stroke="#CECECE" stroke-width="1.5" stroke-miterlimit="10" stroke-linecap="round" stroke-linejoin="round"/>
<path d="M526.416 -0.966797H26.4158V499.033H526.416V-0.966797Z" fill="#E4E6E0"/>
<path d="M320.066 330.222H329.336L334.464 449.215L334.922 497.822H360.55L361.624 449.111L362.791 290.633H326.909H323.174H287.292L284.031 448.175L288.223 497.822H316.199L312.093 449.122L320.066 330.222Z" fill="#2B201F"/>
<path d="M372.245 196.828L367.2 284.404H285.088L280.522 196.843C280.162 189.937 283.86 183.454 289.988 180.248L318.322 165.428H331.312L362.687 180.578C368.867 183.562 372.64 189.976 372.245 196.828Z" fill="#513733"/>
<path d="M330.884 263.25L307.297 264.724L311.657 279.86H334.465L330.884 263.25Z" fill="#EBB99E"/>
<path d="M261.915 294.753L248.386 294.891L250.466 498.745L263.995 498.607L261.915 294.753Z" fill="#7B5348"/>
<path opacity="0.42" d="M248.406 294.897L261.935 294.758L262.363 336.614L248.916 344.752L248.406 294.897Z" fill="#A0A0A0"/>
<path d="M407.386 295.484L407.299 287.023L404.121 287.056L397.463 287.124L122.399 289.94L115.562 290.01L112.562 290.041L112.65 298.612C112.672 300.78 178.683 301.862 260.089 301.029C341.495 300.196 407.469 297.763 407.447 295.594C407.446 295.556 407.424 295.52 407.386 295.484Z" fill="#7B5348"/>
<path d="M407.359 287.023C407.381 289.191 341.407 291.624 260.001 292.458C178.595 293.291 112.585 292.209 112.562 290.041C112.54 287.873 178.514 285.44 259.92 284.606C341.326 283.772 407.337 284.854 407.359 287.023Z" fill="#A6725D"/>
<path d="M367.604 286.699L311.732 287.229L311.656 279.86L367.528 279.33C369.563 279.309 371.229 280.942 371.25 282.977C371.271 285.012 369.638 286.678 367.604 286.699Z" fill="#A0A0A0"/>
<path d="M320.328 287.142L233.027 288.036C228.492 288.082 224.482 285.101 223.222 280.744L205.148 218.292C203.785 213.584 207.288 208.874 212.189 208.824L293.765 207.989C296.637 207.96 299.167 209.87 299.926 212.64L320.328 287.142Z" fill="#C1C3C5"/>
<path d="M265.766 249.831C265.812 254.353 262.184 258.056 257.662 258.102C253.14 258.148 249.437 254.52 249.391 249.998C249.345 245.476 252.973 241.773 257.495 241.727C262.016 241.681 265.719 245.31 265.766 249.831Z" fill="white"/>
<g filter="url(#filter0_d_1_3117)">
<path d="M163.175 262.287H189.177C189.927 262.287 190.504 262.949 190.402 263.693L186.592 285.248C186.437 286.371 185.477 287.208 184.343 287.208H168.198C167.07 287.208 166.113 286.38 165.951 285.263L161.95 263.701C161.843 262.955 162.421 262.287 163.175 262.287Z" fill="white"/>
<path d="M166.514 283.392C164.611 283.392 160.207 283.111 157.201 280.735C155.221 279.169 154.215 277.046 154.215 274.42C154.215 271.517 155.249 269.238 157.29 267.64C160.587 265.059 165.245 265.399 165.443 265.413L165.075 268.946C165.043 268.95 161.988 268.752 160.061 270.273C158.926 271.17 158.352 272.566 158.352 274.42C158.352 276.038 158.893 277.25 160.004 278.127C162.489 280.091 167.054 279.831 167.099 279.831L167.438 283.365C167.383 283.368 167.048 283.392 166.514 283.392Z" fill="white"/>
</g>
<g opacity="0.59" filter="url(#filter1_d_1_3117)">
<path d="M173.297 247.147C173.815 245.24 174.243 243.145 174.641 241.129C175.038 239.094 175.373 237.048 175.651 235C176.185 230.898 176.514 226.794 176.649 222.72C176.757 218.642 176.666 214.591 176.346 210.598C176.011 206.604 175.444 202.67 174.655 198.828C173.053 191.144 170.444 183.852 166.864 177.228L165.472 174.699L163.903 171.771C162.881 169.799 161.855 167.825 160.883 165.807C158.925 161.783 157.062 157.67 155.375 153.428C153.686 149.186 152.173 144.82 150.886 140.327C149.591 135.837 148.518 131.215 147.768 126.466C146.253 116.99 145.966 106.981 147.472 97.0299C148.961 87.0949 152.128 77.2899 156.733 68.4099C161.286 59.4819 167.066 51.4269 173.472 44.2179L173.551 44.1289C179.647 37.2699 190.149 36.6509 197.008 42.7469C203.867 48.8429 204.486 59.3449 198.39 66.2039C198.113 66.5159 197.798 66.8409 197.504 67.1269C186.931 77.3219 178.915 89.0349 175.446 102.495C173.595 109.199 173.007 116.358 173.245 123.742C173.482 131.137 174.847 138.734 176.743 146.371C177.71 150.19 178.872 154.012 180.15 157.831C180.78 159.743 181.476 161.647 182.168 163.556L183.251 166.414L184.433 169.706C185.973 174.197 187.167 178.772 188.008 183.372C188.862 187.972 189.257 192.611 189.399 197.2C189.538 201.793 189.327 206.354 188.826 210.844C188.34 215.335 187.561 219.756 186.517 224.085C185.498 228.418 184.161 232.648 182.628 236.775C181.062 240.916 179.373 244.889 177.158 248.832C176.586 249.851 175.296 250.213 174.277 249.64C173.414 249.155 173.022 248.156 173.27 247.242L173.297 247.147Z" fill="white"/>
</g>
<path d="M321.25 181.514H322.34C328.255 181.514 333.051 176.719 333.051 170.803V149.34H310.539V170.803C310.539 176.718 315.335 181.514 321.25 181.514Z" fill="#E4AF98"/>
<path d="M385.947 263.519L385.685 260.996L385.414 258.623L384.826 253.944C384.409 250.845 383.971 247.761 383.484 244.692C382.518 238.552 381.45 232.442 380.243 226.359C379.026 220.278 377.745 214.208 376.291 208.171C374.879 202.124 373.29 196.113 371.651 190.107L340.66 199.7C342.508 205.189 344.319 210.7 345.968 216.27C347.658 221.827 349.188 227.438 350.663 233.063C352.128 238.691 353.463 244.353 354.699 250.021C355.009 251.433 355.307 252.846 355.596 254.258L322.289 261.324L324.388 279.933L373.513 279.168C373.62 279.166 373.786 279.161 373.893 279.156C380.928 278.836 386.371 272.874 386.051 265.84L385.947 263.519Z" fill="#513733"/>
<path d="M322.289 261.324L355.596 254.258C355.596 254.258 348.181 221.943 345.028 211.414C345.028 211.414 344.292 227.418 347.494 240.727C350.697 254.036 322.289 261.324 322.289 261.324Z" fill="#422B29"/>
<path d="M333.051 158.35C333.051 158.35 324.395 171.154 310.539 166.153V157.101L333.051 152.34V158.35Z" fill="#D49A83"/>
<path d="M344.039 143.106C350.599 128.118 343.767 110.65 328.78 104.09C313.792 97.5292 296.324 104.361 289.763 119.348C283.203 134.336 290.034 151.804 305.022 158.365C320.01 164.925 337.478 158.094 344.039 143.106Z" fill="#EBB99E"/>
<path d="M354.994 126.859C356.318 131.682 353.481 136.665 348.658 137.989C343.835 139.313 338.852 136.476 337.528 131.653C336.204 126.83 339.041 121.847 343.864 120.523C348.687 119.199 353.67 122.036 354.994 126.859Z" fill="#EBB99E"/>
<path d="M340.968 122.338L339.114 131.377C338.738 133.212 336.992 134.433 335.139 134.157C333.122 133.856 331.779 131.912 332.212 129.919L332.612 123.334C334.66 115.639 327.008 110.673 319.772 112.886C319.772 112.886 297.772 117.517 289.566 110.041C289.566 110.041 300.144 92.6168 327.185 95.1598C339.24 96.2938 343.741 105.653 343.741 105.653L344.734 120.329C343.308 120.586 340.968 122.338 340.968 122.338Z" fill="#513733"/>
<path d="M298.384 136.199C298.359 137.46 297.288 138.46 295.993 138.434C294.698 138.408 293.668 137.365 293.694 136.104C293.719 134.843 294.79 133.842 296.085 133.868C297.38 133.895 298.41 134.938 298.384 136.199Z" fill="#2B201F"/>
<path d="M314.179 136.517C314.154 137.778 313.083 138.778 311.788 138.752C310.493 138.726 309.463 137.683 309.489 136.422C309.514 135.161 310.585 134.16 311.88 134.186C313.175 134.213 314.204 135.256 314.179 136.517Z" fill="#2B201F"/>
<path d="M302.328 140.847C302.166 140.324 301.487 140.191 301.14 140.615L297.209 145.408C296.642 146.099 297.142 147.124 298.051 147.134L302.93 147.187C303.608 147.194 304.096 146.539 303.895 145.892L302.328 140.847Z" fill="#D49A83"/>
<path d="M311.538 150.934C311.538 150.934 305.613 154.073 298.07 150.422C298.07 150.422 304.051 157.353 311.538 150.934Z" fill="#D49A83"/>
<path d="M348.347 120.442V109.351C348.347 100.916 341.578 92.4699 333.144 92.3419L297.027 91.8389C292.227 91.7659 288.297 95.6369 288.297 100.437C288.297 105.045 291.93 110.407 296.535 110.601L310.066 111.037L313.472 101.798L333.006 107.705L344.735 120.329C346.708 119.964 348.347 120.442 348.347 120.442Z" fill="#513733"/>
<path d="M299.856 113.84C309.034 113.84 316.474 106.399 316.474 97.2215C316.474 88.0437 309.034 80.6035 299.856 80.6035C290.678 80.6035 283.238 88.0437 283.238 97.2215C283.238 106.399 290.678 113.84 299.856 113.84Z" fill="#513733"/>
<path d="M317.307 129.812H309.487C308.648 129.812 307.969 129.132 307.969 128.294C307.969 127.456 308.649 126.775 309.487 126.775H317.307C318.146 126.775 318.827 127.455 318.827 128.294C318.827 129.133 318.146 129.812 317.307 129.812Z" fill="#2B201F"/>
<path d="M297.603 129.812H291.806C290.967 129.812 290.287 129.132 290.287 128.294C290.287 127.456 290.967 126.775 291.806 126.775H297.603C298.442 126.775 299.122 127.455 299.122 128.294C299.122 129.133 298.442 129.812 297.603 129.812Z" fill="#2B201F"/>
<path d="M456.23 62.0586H417.369V75.1876H456.23V62.0586Z" stroke="#CECECE" stroke-width="1.5" stroke-miterlimit="10" stroke-linecap="round" stroke-linejoin="round"/>
<path d="M438.097 75.1875H399.236V88.3165H438.097V75.1875Z" stroke="#CECECE" stroke-width="1.5" stroke-miterlimit="10" stroke-linecap="round" stroke-linejoin="round"/>
<path d="M479.802 327.883H440.941V341.012H479.802V327.883Z" stroke="#CECECE" stroke-width="1.5" stroke-miterlimit="10" stroke-linecap="round" stroke-linejoin="round"/>
<path d="M461.669 341.012H422.808V354.141H461.669V341.012Z" stroke="#CECECE" stroke-width="1.5" stroke-miterlimit="10" stroke-linecap="round" stroke-linejoin="round"/>
</g>
</g>
<defs>
<filter id="filter0_d_1_3117" x="152.215" y="261.287" width="40.1991" height="28.9209" filterUnits="userSpaceOnUse" color-interpolation-filters="sRGB">
<feFlood flood-opacity="0" result="BackgroundImageFix"/>
<feColorMatrix in="SourceAlpha" type="matrix" values="0 0 0 0 0 0 0 0 0 0 0 0 0 0 0 0 0 0 127 0" result="hardAlpha"/>
<feOffset dy="1"/>
<feGaussianBlur stdDeviation="1"/>
<feComposite in2="hardAlpha" operator="out"/>
<feColorMatrix type="matrix" values="0 0 0 0 0 0 0 0 0 0 0 0 0 0 0 0 0 0 0.25 0"/>
<feBlend mode="normal" in2="BackgroundImageFix" result="effect1_dropShadow_1_3117"/>
<feBlend mode="normal" in="SourceGraphic" in2="effect1_dropShadow_1_3117" result="shape"/>
</filter>
<filter id="filter1_d_1_3117" x="144.476" y="37.5508" width="60.1094" height="215.361" filterUnits="userSpaceOnUse" color-interpolation-filters="sRGB">
<feFlood flood-opacity="0" result="BackgroundImageFix"/>
<feColorMatrix in="SourceAlpha" type="matrix" values="0 0 0 0 0 0 0 0 0 0 0 0 0 0 0 0 0 0 127 0" result="hardAlpha"/>
<feOffset dy="1"/>
<feGaussianBlur stdDeviation="1"/>
<feComposite in2="hardAlpha" operator="out"/>
<feColorMatrix type="matrix" values="0 0 0 0 0 0 0 0 0 0 0 0 0 0 0 0 0 0 0.25 0"/>
<feBlend mode="normal" in2="BackgroundImageFix" result="effect1_dropShadow_1_3117"/>
<feBlend mode="normal" in="SourceGraphic" in2="effect1_dropShadow_1_3117" result="shape"/>
</filter>
<linearGradient id="paint0_linear_1_3117" x1="251.584" y1="51.1978" x2="251.584" y2="502.437" gradientUnits="userSpaceOnUse">
<stop stop-color="white"/>
<stop offset="1" stop-color="white"/>
</linearGradient>
<clipPath id="clip0_1_3117">
<rect x="36.4158" y="9.0332" width="480" height="480" rx="24" fill="white"/>
</clipPath>
<clipPath id="clip1_1_3117">
<rect width="500" height="500" fill="white" transform="translate(26.4158 -0.966797)"/>
</clipPath>
</defs>
</svg>
