<svg width="508" height="424" viewBox="0 0 508 424" fill="none" xmlns="http://www.w3.org/2000/svg">
<g filter="url(#filter0_i_1052_195)">
<rect width="394.352" height="628.086" rx="28.7673" fill="white"/>
<rect width="394.352" height="628.086" rx="28.7673" fill="url(#paint0_radial_1052_195)"/>
<rect width="394.352" height="628.086" rx="28.7673" fill="url(#paint1_radial_1052_195)"/>
<path d="M28.4347 69.3555V48.4338H41.8376V51.6109H32.2247V57.2908H40.9182V60.4678H32.2247V69.3555H28.4347ZM46.2777 69.3555V53.6642H49.9758V69.3555H46.2777ZM48.137 51.4372C47.5513 51.4372 47.0473 51.2431 46.6251 50.8549C46.2028 50.4599 45.9917 49.9866 45.9917 49.4349C45.9917 48.8765 46.2028 48.4032 46.6251 48.015C47.0473 47.62 47.5513 47.4225 48.137 47.4225C48.7295 47.4225 49.2335 47.62 49.6489 48.015C50.0711 48.4032 50.2823 48.8765 50.2823 49.4349C50.2823 49.9866 50.0711 50.4599 49.6489 50.8549C49.2335 51.2431 48.7295 51.4372 48.137 51.4372ZM58.6273 60.1614V69.3555H54.9293V53.6642H58.4639V56.3305H58.6478C59.0087 55.452 59.5842 54.7539 60.3742 54.2363C61.171 53.7187 62.1551 53.4599 63.3265 53.4599C64.4094 53.4599 65.3526 53.6915 66.1563 54.1546C66.9667 54.6177 67.5933 55.2885 68.036 56.1671C68.4854 57.0456 68.7068 58.1114 68.7 59.3646V69.3555H65.0019V59.9366C65.0019 58.8878 64.7295 58.0672 64.1846 57.4747C63.6466 56.8822 62.9009 56.5859 61.9474 56.5859C61.3004 56.5859 60.7249 56.7289 60.221 57.015C59.7238 57.2942 59.3322 57.6994 59.0462 58.2306C58.7669 58.7618 58.6273 59.4054 58.6273 60.1614ZM78.1253 69.6722C77.131 69.6722 76.2354 69.4951 75.4386 69.1409C74.6486 68.78 74.0221 68.2488 73.5589 67.5473C73.1026 66.8458 72.8745 65.9809 72.8745 64.9525C72.8745 64.0672 73.0379 63.335 73.3648 62.7562C73.6917 62.1773 74.1378 61.7142 74.7031 61.3668C75.2684 61.0195 75.9051 60.7573 76.6134 60.5802C77.3285 60.3963 78.0675 60.2635 78.8302 60.1818C79.7496 60.0865 80.4954 60.0013 81.0675 59.9264C81.6395 59.8447 82.055 59.7221 82.3138 59.5587C82.5794 59.3884 82.7122 59.1262 82.7122 58.772V58.7108C82.7122 57.9412 82.484 57.3453 82.0277 56.923C81.5714 56.5008 80.9142 56.2896 80.0561 56.2896C79.1503 56.2896 78.4318 56.4871 77.9006 56.8822C77.3762 57.2772 77.0221 57.7437 76.8382 58.2817L73.3853 57.7913C73.6577 56.8379 74.1072 56.0411 74.7337 55.4009C75.3603 54.7539 76.1265 54.2703 77.0323 53.9503C77.9381 53.6234 78.9392 53.4599 80.0357 53.4599C80.7916 53.4599 81.5442 53.5484 82.2933 53.7255C83.0425 53.9026 83.7269 54.1954 84.3467 54.6041C84.9664 55.0059 85.4636 55.5541 85.8382 56.2488C86.2195 56.9434 86.4102 57.8118 86.4102 58.8538V69.3555H82.8552V67.2H82.7326C82.5079 67.6358 82.1912 68.0445 81.7825 68.4258C81.3807 68.8004 80.8734 69.1035 80.2604 69.335C79.6543 69.5598 78.9426 69.6722 78.1253 69.6722ZM79.0856 66.9548C79.828 66.9548 80.4715 66.8084 81.0164 66.5155C81.5612 66.2159 81.9801 65.8209 82.2729 65.3305C82.5726 64.8401 82.7224 64.3055 82.7224 63.7266V61.8776C82.6066 61.973 82.4091 62.0615 82.1299 62.1432C81.8575 62.2249 81.551 62.2965 81.2105 62.3577C80.8699 62.419 80.5328 62.4735 80.1991 62.5212C79.8654 62.5689 79.576 62.6097 79.3308 62.6438C78.7791 62.7187 78.2854 62.8413 77.8495 63.0115C77.4137 63.1818 77.0697 63.4202 76.8177 63.7266C76.5658 64.0263 76.4398 64.4145 76.4398 64.8912C76.4398 65.5723 76.6883 66.0865 77.1855 66.4338C77.6827 66.7811 78.316 66.9548 79.0856 66.9548ZM94.9775 60.1614V69.3555H91.2794V53.6642H94.814V56.3305H94.9979C95.3589 55.452 95.9344 54.7539 96.7244 54.2363C97.5212 53.7187 98.5053 53.4599 99.6767 53.4599C100.76 53.4599 101.703 53.6915 102.506 54.1546C103.317 54.6177 103.943 55.2885 104.386 56.1671C104.836 57.0456 105.057 58.1114 105.05 59.3646V69.3555H101.352V59.9366C101.352 58.8878 101.08 58.0672 100.535 57.4747C99.9968 56.8822 99.251 56.5859 98.2976 56.5859C97.6506 56.5859 97.0751 56.7289 96.5711 57.015C96.074 57.2942 95.6824 57.6994 95.3963 58.2306C95.1171 58.7618 94.9775 59.4054 94.9775 60.1614ZM116.805 69.6619C115.238 69.6619 113.893 69.318 112.769 68.6302C111.653 67.9423 110.791 66.9922 110.185 65.78C109.586 64.5609 109.286 63.158 109.286 61.5711C109.286 59.9775 109.592 58.5711 110.205 57.3521C110.818 56.1262 111.683 55.1727 112.8 54.4917C113.924 53.8038 115.252 53.4599 116.784 53.4599C118.058 53.4599 119.185 53.6949 120.166 54.1648C121.153 54.6279 121.94 55.2851 122.525 56.1364C123.111 56.9809 123.445 57.9684 123.527 59.099H119.992C119.849 58.343 119.508 57.713 118.97 57.2091C118.439 56.6983 117.727 56.4429 116.835 56.4429C116.079 56.4429 115.415 56.6472 114.843 57.0558C114.271 57.4576 113.825 58.0365 113.505 58.7925C113.192 59.5484 113.035 60.4542 113.035 61.5098C113.035 62.5791 113.192 63.4985 113.505 64.2681C113.818 65.0308 114.258 65.6199 114.823 66.0354C115.395 66.444 116.066 66.6483 116.835 66.6483C117.38 66.6483 117.867 66.5462 118.296 66.3419C118.732 66.1307 119.096 65.8277 119.389 65.4327C119.682 65.0377 119.883 64.5575 119.992 63.9922H123.527C123.438 65.1024 123.111 66.0865 122.546 66.9446C121.981 67.7959 121.211 68.4633 120.237 68.9468C119.263 69.4236 118.119 69.6619 116.805 69.6619ZM134.558 69.6619C133.026 69.6619 131.698 69.3248 130.574 68.6506C129.451 67.9764 128.579 67.0331 127.959 65.8209C127.346 64.6086 127.04 63.192 127.04 61.5711C127.04 59.9503 127.346 58.5303 127.959 57.3112C128.579 56.0921 129.451 55.1455 130.574 54.4713C131.698 53.797 133.026 53.4599 134.558 53.4599C136.091 53.4599 137.419 53.797 138.542 54.4713C139.666 55.1455 140.535 56.0921 141.147 57.3112C141.767 58.5303 142.077 59.9503 142.077 61.5711C142.077 63.192 141.767 64.6086 141.147 65.8209C140.535 67.0331 139.666 67.9764 138.542 68.6506C137.419 69.3248 136.091 69.6619 134.558 69.6619ZM134.579 66.6994C135.41 66.6994 136.104 66.4712 136.663 66.0149C137.221 65.5518 137.637 64.9321 137.909 64.1557C138.188 63.3793 138.328 62.5144 138.328 61.5609C138.328 60.6007 138.188 59.7323 137.909 58.9559C137.637 58.1727 137.221 57.5496 136.663 57.0865C136.104 56.6234 135.41 56.3918 134.579 56.3918C133.727 56.3918 133.019 56.6234 132.454 57.0865C131.895 57.5496 131.477 58.1727 131.197 58.9559C130.925 59.7323 130.789 60.6007 130.789 61.5609C130.789 62.5144 130.925 63.3793 131.197 64.1557C131.477 64.9321 131.895 65.5518 132.454 66.0149C133.019 66.4712 133.727 66.6994 134.579 66.6994Z" fill="#152400"/>
<g clip-path="url(#clip0_1052_195)">
<path d="M342.149 46.8691C336.892 46.8691 332.171 49.6048 332.171 54.625C332.171 60.4066 340.51 60.8015 340.51 63.6782C340.51 64.891 339.096 65.9909 336.722 65.9909C333.33 65.9909 330.786 64.4679 330.786 64.4679L329.712 69.5445C329.712 69.5445 332.623 70.8418 336.524 70.8418C342.29 70.8418 346.813 67.9933 346.813 62.8603C346.813 56.7684 338.446 56.3736 338.446 53.6943C338.446 52.7354 339.605 51.6918 341.98 51.6918C344.665 51.6918 346.87 52.7918 346.87 52.7918L347.944 47.8844C347.915 47.8844 345.513 46.8691 342.149 46.8691ZM293.983 47.2357L293.842 47.969C293.842 47.969 296.047 48.3639 298.054 49.1818C300.626 50.1125 300.796 50.6483 301.248 52.3123L305.968 70.447H312.3L321.995 47.2357H315.692L309.445 63.0295L306.901 49.633C306.675 48.11 305.488 47.2357 304.018 47.2357H293.983ZM324.539 47.2357L319.593 70.447H325.613L330.532 47.2357H324.539ZM358.063 47.2357C356.621 47.2357 355.858 47.9972 355.293 49.351L346.474 70.447H352.777L353.993 66.9216H361.681L362.416 70.447H367.985L363.151 47.2357H358.063ZM358.883 53.5251L360.748 62.2399H355.745L358.883 53.5251Z" fill="#152400"/>
</g>
<g clip-path="url(#clip1_1052_195)">
<path d="M76.3897 175.099L63.2796 161.989C63.1056 161.815 62.8989 161.677 62.6716 161.583C62.4442 161.489 62.2006 161.441 61.9546 161.441H39.4801C38.4867 161.441 37.5339 161.836 36.8315 162.539C36.129 163.241 35.7344 164.194 35.7344 165.187V206.39C35.7344 207.384 36.129 208.336 36.8315 209.039C37.5339 209.741 38.4867 210.136 39.4801 210.136H73.1918C74.1852 210.136 75.138 209.741 75.8404 209.039C76.5429 208.336 76.9375 207.384 76.9375 206.39V176.424C76.9377 176.178 76.8894 175.935 76.7954 175.707C76.7014 175.48 76.5636 175.273 76.3897 175.099ZM69.446 200.772C69.446 201.268 69.2487 201.745 68.8975 202.096C68.5463 202.447 68.0699 202.645 67.5732 202.645H63.8274C63.5791 202.645 63.3409 202.546 63.1653 202.37C62.9897 202.195 62.891 201.956 62.891 201.708V193.343C62.8975 192.86 62.7208 192.392 62.3963 192.034C62.0719 191.676 61.6238 191.453 61.1422 191.412C60.886 191.395 60.6291 191.431 60.3873 191.517C60.1456 191.604 59.9242 191.739 59.7369 191.915C59.5496 192.09 59.4005 192.303 59.2987 192.538C59.1969 192.774 59.1447 193.028 59.1453 193.285V201.713C59.1453 201.961 59.0466 202.199 58.871 202.375C58.6954 202.551 58.4572 202.649 58.2088 202.649H54.4631C54.2147 202.649 53.9765 202.551 53.8009 202.375C53.6253 202.199 53.5266 201.961 53.5266 201.713V193.343C53.5331 192.86 53.3564 192.392 53.032 192.034C52.7075 191.676 52.2595 191.453 51.7778 191.412C51.5217 191.395 51.2647 191.431 51.023 191.517C50.7812 191.604 50.5598 191.739 50.3726 191.915C50.1853 192.09 50.0361 192.303 49.9344 192.538C49.8326 192.774 49.7803 193.028 49.7809 193.285V201.713C49.7809 201.961 49.6822 202.199 49.5066 202.375C49.331 202.551 49.0928 202.649 48.8445 202.649H45.0987C44.602 202.649 44.1256 202.452 43.7744 202.101C43.4232 201.749 43.2259 201.273 43.2259 200.776V187.662C43.2259 187.165 43.4232 186.688 43.7744 186.337C44.1256 185.986 44.602 185.789 45.0987 185.789H67.5732C68.0699 185.789 68.5463 185.986 68.8975 186.337C69.2487 186.688 69.446 187.165 69.446 187.662V200.772Z" fill="#152400" fill-opacity="0.08"/>
</g>
<path d="M42.7672 264.551H40.1111C40.009 263.984 39.8189 263.484 39.5408 263.053C39.2627 262.622 38.9222 262.256 38.5192 261.955C38.1163 261.654 37.6651 261.427 37.1656 261.274C36.6719 261.121 36.1469 261.044 35.5907 261.044C34.5862 261.044 33.6866 261.297 32.8921 261.802C32.1032 262.307 31.4789 263.047 31.0192 264.024C30.5652 265 30.3382 266.192 30.3382 267.599C30.3382 269.018 30.5652 270.215 31.0192 271.192C31.4789 272.168 32.106 272.906 32.9006 273.405C33.6952 273.904 34.589 274.154 35.5822 274.154C36.1327 274.154 36.6549 274.08 37.1486 273.933C37.648 273.78 38.0992 273.555 38.5022 273.26C38.9051 272.965 39.2457 272.605 39.5237 272.179C39.8075 271.748 40.0033 271.254 40.1111 270.698L42.7672 270.706C42.6253 271.563 42.3501 272.352 41.9415 273.073C41.5385 273.788 41.0192 274.407 40.3836 274.929C39.7536 275.445 39.0328 275.845 38.2213 276.129C37.4097 276.413 36.5243 276.555 35.5652 276.555C34.0555 276.555 32.7105 276.197 31.53 275.482C30.3495 274.761 29.4188 273.731 28.7377 272.392C28.0624 271.053 27.7247 269.455 27.7247 267.599C27.7247 265.738 28.0652 264.14 28.7462 262.806C29.4273 261.467 30.358 260.44 31.5385 259.724C32.719 259.004 34.0612 258.643 35.5652 258.643C36.4903 258.643 37.3529 258.777 38.1531 259.043C38.9591 259.305 39.6827 259.69 40.324 260.201C40.9653 260.706 41.4959 261.325 41.9159 262.057C42.3359 262.784 42.6197 263.615 42.7672 264.551ZM50.4748 276.606C49.6462 276.606 48.8971 276.453 48.2274 276.146C47.5577 275.834 47.0271 275.383 46.6355 274.793C46.2495 274.202 46.0566 273.479 46.0566 272.622C46.0566 271.884 46.1985 271.277 46.4822 270.8C46.766 270.323 47.1491 269.946 47.6315 269.668C48.1139 269.39 48.6531 269.18 49.249 269.038C49.8449 268.896 50.4521 268.788 51.0708 268.714C51.854 268.623 52.4896 268.55 52.9777 268.493C53.4658 268.43 53.8205 268.331 54.0418 268.195C54.2632 268.059 54.3738 267.837 54.3738 267.531V267.471C54.3738 266.728 54.1638 266.152 53.7439 265.743C53.3296 265.335 52.7109 265.13 51.888 265.13C51.031 265.13 50.3557 265.32 49.8619 265.701C49.3738 266.075 49.0361 266.492 48.8489 266.952L46.4567 266.407C46.7405 265.613 47.1548 264.971 47.6996 264.483C48.2501 263.99 48.8829 263.632 49.598 263.411C50.3131 263.184 51.0651 263.07 51.854 263.07C52.3761 263.07 52.9294 263.133 53.514 263.257C54.1042 263.377 54.6548 263.598 55.1655 263.921C55.682 264.245 56.1048 264.707 56.434 265.309C56.7631 265.905 56.9277 266.68 56.9277 267.633V276.316H54.4419V274.529H54.3398C54.1752 274.858 53.9283 275.181 53.5991 275.499C53.27 275.817 52.8471 276.081 52.3307 276.291C51.8142 276.501 51.1956 276.606 50.4748 276.606ZM51.0282 274.563C51.7319 274.563 52.3335 274.424 52.833 274.146C53.3381 273.867 53.7212 273.504 53.9822 273.056C54.249 272.602 54.3823 272.117 54.3823 271.6V269.915C54.2915 270.005 54.1156 270.091 53.8545 270.17C53.5991 270.244 53.3069 270.309 52.9777 270.366C52.6485 270.417 52.3279 270.465 52.0157 270.511C51.7036 270.55 51.4425 270.584 51.2325 270.613C50.7388 270.675 50.2876 270.78 49.8789 270.928C49.476 271.075 49.1525 271.288 48.9084 271.566C48.6701 271.839 48.5509 272.202 48.5509 272.656C48.5509 273.286 48.7836 273.762 49.249 274.086C49.7143 274.404 50.3074 274.563 51.0282 274.563ZM61.277 276.316V263.24H63.7372V265.318H63.8734C64.1118 264.614 64.5318 264.06 65.1334 263.658C65.7406 263.249 66.4274 263.045 67.1935 263.045C67.3524 263.045 67.5397 263.05 67.7554 263.062C67.9767 263.073 68.1498 263.087 68.2747 263.104V265.539C68.1725 265.511 67.9909 265.479 67.7299 265.445C67.4688 265.406 67.2077 265.386 66.9467 265.386C66.3451 265.386 65.8087 265.513 65.3377 265.769C64.8723 266.018 64.5034 266.367 64.231 266.816C63.9586 267.259 63.8224 267.764 63.8224 268.331V276.316H61.277ZM75.8631 276.572C74.8075 276.572 73.8654 276.302 73.0368 275.763C72.2139 275.218 71.5669 274.444 71.0958 273.439C70.6304 272.429 70.3978 271.217 70.3978 269.804C70.3978 268.391 70.6333 267.182 71.1043 266.177C71.5811 265.173 72.2337 264.404 73.0623 263.87C73.8909 263.337 74.8302 263.07 75.8802 263.07C76.6917 263.07 77.3444 263.206 77.8382 263.479C78.3376 263.745 78.7235 264.058 78.9959 264.415C79.274 264.773 79.4897 265.088 79.6429 265.36H79.7962V258.882H82.3416V276.316H79.8557V274.282H79.6429C79.4897 274.56 79.2683 274.878 78.9789 275.235C78.6951 275.593 78.3035 275.905 77.8041 276.172C77.3047 276.438 76.6577 276.572 75.8631 276.572ZM76.425 274.401C77.1571 274.401 77.7757 274.208 78.2808 273.822C78.7916 273.43 79.1775 272.888 79.4386 272.196C79.7054 271.504 79.8387 270.698 79.8387 269.778C79.8387 268.87 79.7082 268.076 79.4471 267.395C79.1861 266.714 78.803 266.183 78.2979 265.803C77.7928 265.423 77.1685 265.232 76.425 265.232C75.6588 265.232 75.0203 265.431 74.5096 265.828C73.9988 266.226 73.6128 266.768 73.3518 267.454C73.0964 268.141 72.9687 268.916 72.9687 269.778C72.9687 270.652 73.0992 271.438 73.3603 272.137C73.6214 272.835 74.0073 273.388 74.5181 273.797C75.0345 274.199 75.6702 274.401 76.425 274.401ZM94.441 276.316V258.882H97.0715V266.458H105.763V258.882H108.402V276.316H105.763V268.714H97.0715V276.316H94.441ZM118.496 276.58C117.27 276.58 116.2 276.299 115.286 275.738C114.373 275.176 113.663 274.39 113.158 273.379C112.653 272.369 112.4 271.189 112.4 269.838C112.4 268.482 112.653 267.295 113.158 266.28C113.663 265.264 114.373 264.475 115.286 263.913C116.2 263.351 117.27 263.07 118.496 263.07C119.722 263.07 120.791 263.351 121.705 263.913C122.619 264.475 123.328 265.264 123.833 266.28C124.339 267.295 124.591 268.482 124.591 269.838C124.591 271.189 124.339 272.369 123.833 273.379C123.328 274.39 122.619 275.176 121.705 275.738C120.791 276.299 119.722 276.58 118.496 276.58ZM118.504 274.444C119.299 274.444 119.957 274.234 120.479 273.814C121.001 273.394 121.387 272.835 121.637 272.137C121.892 271.438 122.02 270.669 122.02 269.829C122.02 268.995 121.892 268.229 121.637 267.531C121.387 266.827 121.001 266.262 120.479 265.837C119.957 265.411 119.299 265.198 118.504 265.198C117.704 265.198 117.04 265.411 116.512 265.837C115.99 266.262 115.601 266.827 115.346 267.531C115.096 268.229 114.971 268.995 114.971 269.829C114.971 270.669 115.096 271.438 115.346 272.137C115.601 272.835 115.99 273.394 116.512 273.814C117.04 274.234 117.704 274.444 118.504 274.444ZM130.937 258.882V276.316H128.391V258.882H130.937ZM140.215 276.572C139.159 276.572 138.217 276.302 137.389 275.763C136.566 275.218 135.919 274.444 135.448 273.439C134.982 272.429 134.75 271.217 134.75 269.804C134.75 268.391 134.985 267.182 135.456 266.177C135.933 265.173 136.586 264.404 137.414 263.87C138.243 263.337 139.182 263.07 140.232 263.07C141.044 263.07 141.696 263.206 142.19 263.479C142.689 263.745 143.075 264.058 143.348 264.415C143.626 264.773 143.842 265.088 143.995 265.36H144.148V258.882H146.693V276.316H144.208V274.282H143.995C143.842 274.56 143.62 274.878 143.331 275.235C143.047 275.593 142.655 275.905 142.156 276.172C141.656 276.438 141.01 276.572 140.215 276.572ZM140.777 274.401C141.509 274.401 142.128 274.208 142.633 273.822C143.143 273.43 143.529 272.888 143.79 272.196C144.057 271.504 144.191 270.698 144.191 269.778C144.191 268.87 144.06 268.076 143.799 267.395C143.538 266.714 143.155 266.183 142.65 265.803C142.145 265.423 141.52 265.232 140.777 265.232C140.011 265.232 139.372 265.431 138.861 265.828C138.351 266.226 137.965 266.768 137.704 267.454C137.448 268.141 137.321 268.916 137.321 269.778C137.321 270.652 137.451 271.438 137.712 272.137C137.973 272.835 138.359 273.388 138.87 273.797C139.386 274.199 140.022 274.401 140.777 274.401ZM156.921 276.58C155.633 276.58 154.523 276.305 153.592 275.755C152.667 275.198 151.952 274.418 151.447 273.413C150.948 272.403 150.698 271.22 150.698 269.864C150.698 268.524 150.948 267.344 151.447 266.322C151.952 265.301 152.656 264.503 153.558 263.93C154.466 263.357 155.528 263.07 156.742 263.07C157.48 263.07 158.195 263.192 158.887 263.436C159.58 263.68 160.201 264.063 160.752 264.585C161.302 265.108 161.736 265.786 162.054 266.62C162.372 267.449 162.531 268.456 162.531 269.642V270.545H152.137V268.638H160.037C160.037 267.968 159.9 267.375 159.628 266.858C159.356 266.336 158.973 265.925 158.479 265.624C157.991 265.323 157.417 265.173 156.759 265.173C156.044 265.173 155.42 265.349 154.886 265.701C154.358 266.047 153.95 266.501 153.66 267.063C153.377 267.619 153.235 268.223 153.235 268.876V270.366C153.235 271.24 153.388 271.983 153.694 272.596C154.007 273.209 154.441 273.677 154.997 274.001C155.553 274.319 156.203 274.478 156.946 274.478C157.429 274.478 157.869 274.409 158.266 274.273C158.663 274.131 159.007 273.921 159.296 273.643C159.585 273.365 159.807 273.022 159.96 272.613L162.369 273.047C162.176 273.757 161.83 274.378 161.331 274.912C160.837 275.44 160.215 275.851 159.466 276.146C158.723 276.436 157.874 276.58 156.921 276.58ZM166.314 276.316V263.24H168.774V265.318H168.911C169.149 264.614 169.569 264.06 170.17 263.658C170.778 263.249 171.464 263.045 172.231 263.045C172.39 263.045 172.577 263.05 172.793 263.062C173.014 263.073 173.187 263.087 173.312 263.104V265.539C173.21 265.511 173.028 265.479 172.767 265.445C172.506 265.406 172.245 265.386 171.984 265.386C171.382 265.386 170.846 265.513 170.375 265.769C169.909 266.018 169.541 266.367 169.268 266.816C168.996 267.259 168.859 267.764 168.859 268.331V276.316H166.314Z" fill="#172602" fill-opacity="0.4"/>
<path d="M31.9131 326.508H27.1935L35.7865 302.1H41.2451L49.8501 326.508H45.1304L38.6112 307.105H38.4205L31.9131 326.508ZM32.068 316.938H44.9398V320.49H32.068V316.938ZM58.1498 320.764L58.1379 315.555H58.8292L65.4081 308.202H70.4495L62.357 317.212H61.4631L58.1498 320.764ZM54.2168 326.508V302.1H58.5312V326.508H54.2168ZM65.706 326.508L59.7469 318.177L62.6549 315.138L70.8666 326.508H65.706ZM74.6672 326.508V308.202H78.791V311.312H79.0055C79.3869 310.264 80.0185 309.445 80.9005 308.857C81.7824 308.261 82.8352 307.963 84.0588 307.963C85.2983 307.963 86.3432 308.265 87.1933 308.869C88.0515 309.465 88.6553 310.28 89.0049 311.312H89.1956C89.6008 310.295 90.2841 309.485 91.2455 308.881C92.2149 308.269 93.363 307.963 94.6899 307.963C96.3744 307.963 97.7489 308.496 98.8136 309.56C99.8783 310.625 100.411 312.179 100.411 314.221V326.508H96.0844V314.888C96.0844 313.752 95.7824 312.921 95.1786 312.397C94.5747 311.865 93.8358 311.598 92.9618 311.598C91.9209 311.598 91.1065 311.924 90.5185 312.576C89.9385 313.219 89.6485 314.058 89.6485 315.091V326.508H85.4175V314.709C85.4175 313.764 85.1315 313.009 84.5594 312.445C83.9953 311.881 83.2563 311.598 82.3426 311.598C81.7229 311.598 81.1587 311.757 80.6502 312.075C80.1417 312.385 79.7365 312.826 79.4345 313.398C79.1326 313.962 78.9817 314.622 78.9817 315.377V326.508H74.6672ZM111.398 326.878C110.238 326.878 109.193 326.671 108.264 326.258C107.342 325.837 106.611 325.217 106.071 324.399C105.538 323.58 105.272 322.571 105.272 321.371C105.272 320.339 105.463 319.484 105.844 318.809C106.225 318.134 106.746 317.593 107.405 317.188C108.065 316.783 108.808 316.477 109.634 316.27C110.468 316.056 111.33 315.901 112.22 315.806C113.293 315.694 114.163 315.595 114.83 315.508C115.498 315.412 115.983 315.269 116.285 315.079C116.594 314.88 116.749 314.574 116.749 314.161V314.089C116.749 313.192 116.483 312.496 115.951 312.004C115.418 311.511 114.652 311.265 113.651 311.265C112.594 311.265 111.756 311.495 111.136 311.956C110.524 312.417 110.111 312.961 109.896 313.589L105.868 313.017C106.186 311.904 106.71 310.975 107.441 310.228C108.172 309.473 109.066 308.909 110.123 308.535C111.18 308.154 112.348 307.963 113.627 307.963C114.509 307.963 115.387 308.067 116.261 308.273C117.135 308.48 117.933 308.822 118.656 309.298C119.379 309.767 119.959 310.407 120.396 311.217C120.841 312.028 121.064 313.041 121.064 314.256V326.508H116.916V323.993H116.773C116.511 324.502 116.141 324.979 115.665 325.424C115.196 325.861 114.604 326.214 113.889 326.484C113.182 326.747 112.351 326.878 111.398 326.878ZM112.518 323.707C113.384 323.707 114.135 323.537 114.771 323.195C115.407 322.845 115.895 322.385 116.237 321.812C116.586 321.24 116.761 320.617 116.761 319.941V317.784C116.626 317.895 116.396 317.999 116.07 318.094C115.752 318.189 115.395 318.273 114.997 318.344C114.6 318.416 114.207 318.479 113.817 318.535C113.428 318.591 113.09 318.638 112.804 318.678C112.161 318.765 111.585 318.908 111.076 319.107C110.568 319.306 110.166 319.584 109.872 319.941C109.578 320.291 109.432 320.744 109.432 321.3C109.432 322.095 109.722 322.694 110.302 323.1C110.882 323.505 111.62 323.707 112.518 323.707ZM131.059 302.1V326.508H126.744V302.1H131.059ZM48.837 345.1V369.508H44.904L33.4029 352.882H33.2003V369.508H28.7786V345.1H32.7354L44.2247 361.738H44.4392V345.1H48.837ZM60.0746 369.878C58.9146 369.878 57.8698 369.671 56.9401 369.258C56.0185 368.837 55.2875 368.217 54.7472 367.399C54.2148 366.58 53.9486 365.571 53.9486 364.371C53.9486 363.339 54.1393 362.484 54.5207 361.809C54.9021 361.134 55.4225 360.593 56.082 360.188C56.7415 359.783 57.4844 359.477 58.3107 359.27C59.145 359.056 60.0071 358.901 60.897 358.806C61.9696 358.694 62.8397 358.595 63.5071 358.508C64.1745 358.412 64.6592 358.269 64.9611 358.079C65.271 357.88 65.4259 357.574 65.4259 357.161V357.089C65.4259 356.192 65.1598 355.496 64.6274 355.004C64.0951 354.511 63.3283 354.265 62.3272 354.265C61.2704 354.265 60.4322 354.495 59.8124 354.956C59.2006 355.417 58.7875 355.961 58.5729 356.589L54.5446 356.017C54.8624 354.904 55.3868 353.975 56.1178 353.228C56.8488 352.473 57.7426 351.909 58.7994 351.535C59.8561 351.154 61.0241 350.963 62.3034 350.963C63.1853 350.963 64.0633 351.067 64.9373 351.273C65.8113 351.48 66.6098 351.822 67.3329 352.298C68.0559 352.767 68.6359 353.407 69.0729 354.217C69.5179 355.028 69.7403 356.041 69.7403 357.256V369.508H65.5928V366.993H65.4498C65.1876 367.502 64.8181 367.979 64.3414 368.424C63.8726 368.861 63.2806 369.214 62.5656 369.484C61.8584 369.747 61.0281 369.878 60.0746 369.878ZM61.195 366.707C62.061 366.707 62.8119 366.537 63.4475 366.195C64.0831 365.845 64.5718 365.385 64.9135 364.812C65.2631 364.24 65.4379 363.617 65.4379 362.941V360.784C65.3028 360.895 65.0724 360.999 64.7466 361.094C64.4288 361.189 64.0712 361.273 63.674 361.344C63.2767 361.416 62.8834 361.479 62.494 361.535C62.1047 361.591 61.767 361.638 61.481 361.678C60.8374 361.765 60.2614 361.908 59.7528 362.107C59.2443 362.306 58.8431 362.584 58.5491 362.941C58.2551 363.291 58.1081 363.744 58.1081 364.3C58.1081 365.095 58.3981 365.694 58.9782 366.1C59.5582 366.505 60.2971 366.707 61.195 366.707ZM89.8898 356.041L85.9568 356.47C85.8456 356.072 85.6509 355.699 85.3728 355.349C85.1027 355 84.7372 354.718 84.2763 354.503C83.8155 354.289 83.2514 354.181 82.5839 354.181C81.6861 354.181 80.9313 354.376 80.3195 354.765C79.7156 355.155 79.4177 355.659 79.4256 356.279C79.4177 356.811 79.6123 357.244 80.0096 357.578C80.4148 357.912 81.0822 358.186 82.0119 358.4L85.1345 359.068C86.8666 359.441 88.1537 360.033 88.996 360.844C89.8461 361.654 90.2752 362.715 90.2831 364.026C90.2752 365.178 89.9375 366.195 89.2701 367.077C88.6106 367.951 87.6929 368.634 86.517 369.127C85.341 369.619 83.9903 369.866 82.4648 369.866C80.2241 369.866 78.4205 369.397 77.0539 368.459C75.6872 367.514 74.8728 366.199 74.6106 364.514L78.8178 364.109C79.0085 364.936 79.4137 365.559 80.0334 365.98C80.6532 366.402 81.4597 366.612 82.4528 366.612C83.4778 366.612 84.3002 366.402 84.9199 365.98C85.5476 365.559 85.8615 365.039 85.8615 364.419C85.8615 363.895 85.6589 363.462 85.2536 363.12C84.8564 362.778 84.2366 362.516 83.3944 362.333L80.2718 361.678C78.5158 361.312 77.2168 360.697 76.3745 359.831C75.5323 358.957 75.1152 357.852 75.1231 356.517C75.1152 355.389 75.4211 354.412 76.0408 353.585C76.6685 352.751 77.5385 352.108 78.6509 351.655C79.7712 351.194 81.0624 350.963 82.5244 350.963C84.6696 350.963 86.3581 351.42 87.5896 352.334C88.8291 353.248 89.5959 354.483 89.8898 356.041ZM95.1832 369.508V351.202H99.3665V354.253H99.5572C99.8909 353.196 100.463 352.382 101.273 351.81C102.092 351.23 103.025 350.94 104.074 350.94C104.313 350.94 104.579 350.952 104.873 350.975C105.175 350.991 105.425 351.019 105.624 351.059V355.028C105.441 354.964 105.151 354.908 104.754 354.861C104.364 354.805 103.987 354.777 103.621 354.777C102.835 354.777 102.128 354.948 101.5 355.29C100.88 355.623 100.392 356.088 100.034 356.684C99.6764 357.28 99.4976 357.967 99.4976 358.746V369.508H95.1832ZM121.5 361.809V351.202H125.815V369.508H121.632V366.255H121.441C121.028 367.28 120.348 368.118 119.403 368.769C118.465 369.421 117.309 369.747 115.935 369.747C114.735 369.747 113.674 369.48 112.752 368.948C111.839 368.408 111.124 367.625 110.607 366.6C110.091 365.567 109.832 364.32 109.832 362.858V351.202H114.147V362.19C114.147 363.35 114.465 364.272 115.1 364.955C115.736 365.639 116.57 365.98 117.603 365.98C118.239 365.98 118.855 365.825 119.45 365.516C120.046 365.206 120.535 364.745 120.916 364.133C121.306 363.513 121.5 362.739 121.5 361.809ZM135.908 345.1V369.508H131.594V345.1H135.908ZM146.002 345.1V369.508H141.687V345.1H146.002ZM157.049 369.878C155.889 369.878 154.844 369.671 153.914 369.258C152.992 368.837 152.261 368.217 151.721 367.399C151.189 366.58 150.923 365.571 150.923 364.371C150.923 363.339 151.113 362.484 151.495 361.809C151.876 361.134 152.397 360.593 153.056 360.188C153.716 359.783 154.458 359.477 155.285 359.27C156.119 359.056 156.981 358.901 157.871 358.806C158.944 358.694 159.814 358.595 160.481 358.508C161.149 358.412 161.633 358.269 161.935 358.079C162.245 357.88 162.4 357.574 162.4 357.161V357.089C162.4 356.192 162.134 355.496 161.601 355.004C161.069 354.511 160.302 354.265 159.301 354.265C158.244 354.265 157.406 354.495 156.786 354.956C156.175 355.417 155.761 355.961 155.547 356.589L151.519 356.017C151.836 354.904 152.361 353.975 153.092 353.228C153.823 352.473 154.717 351.909 155.773 351.535C156.83 351.154 157.998 350.963 159.277 350.963C160.159 350.963 161.037 351.067 161.911 351.273C162.785 351.48 163.584 351.822 164.307 352.298C165.03 352.767 165.61 353.407 166.047 354.217C166.492 355.028 166.714 356.041 166.714 357.256V369.508H162.567V366.993H162.424C162.162 367.502 161.792 367.979 161.315 368.424C160.847 368.861 160.255 369.214 159.54 369.484C158.832 369.747 158.002 369.878 157.049 369.878ZM158.169 366.707C159.035 366.707 159.786 366.537 160.422 366.195C161.057 365.845 161.546 365.385 161.887 364.812C162.237 364.24 162.412 363.617 162.412 362.941V360.784C162.277 360.895 162.046 360.999 161.721 361.094C161.403 361.189 161.045 361.273 160.648 361.344C160.251 361.416 159.857 361.479 159.468 361.535C159.079 361.591 158.741 361.638 158.455 361.678C157.811 361.765 157.235 361.908 156.727 362.107C156.218 362.306 155.817 362.584 155.523 362.941C155.229 363.291 155.082 363.744 155.082 364.3C155.082 365.095 155.372 365.694 155.952 366.1C156.532 366.505 157.271 366.707 158.169 366.707ZM176.71 358.782V369.508H172.395V345.1H176.614V354.312H176.829C177.258 353.28 177.921 352.465 178.819 351.869C179.725 351.265 180.877 350.963 182.275 350.963C183.547 350.963 184.655 351.23 185.601 351.762C186.546 352.294 187.277 353.073 187.793 354.098C188.318 355.123 188.58 356.374 188.58 357.852V369.508H184.266V358.52C184.266 357.288 183.948 356.331 183.312 355.647C182.685 354.956 181.803 354.61 180.666 354.61C179.904 354.61 179.22 354.777 178.616 355.111C178.021 355.437 177.552 355.909 177.21 356.529C176.876 357.149 176.71 357.9 176.71 358.782Z" fill="#152400"/>
<rect width="116.268" height="167.809" rx="14.3836" transform="matrix(-6.30964e-08 -1 -1 3.0282e-08 365.588 267.297)" fill="black" fill-opacity="0.04"/>
<rect width="116.268" height="167.809" rx="14.3836" transform="matrix(-6.30964e-08 -1 -1 3.0282e-08 341.613 245.721)" fill="black" fill-opacity="0.04"/>
</g>
<g filter="url(#filter1_i_1052_195)">
<g clip-path="url(#clip2_1052_195)">
<rect x="162.133" y="94.9141" width="345.869" height="550.867" rx="25.2305" fill="#152400"/>
<rect x="162.133" y="94.9141" width="345.869" height="550.867" rx="25.2305" fill="url(#paint2_radial_1052_195)" fill-opacity="0.2"/>
<rect x="162.133" y="94.9141" width="345.869" height="550.867" rx="25.2305" fill="url(#paint3_radial_1052_195)" fill-opacity="0.2"/>
<rect width="213.692" height="308.422" rx="26.4362" transform="matrix(-6.30964e-08 -1 -1 3.0282e-08 650.422 445.693)" fill="white" fill-opacity="0.04"/>
<path d="M187.07 155.555V137.205H198.825V139.992H190.394V144.973H198.018V147.76H190.394V155.555H187.07ZM202.719 155.555V141.793H205.962V155.555H202.719ZM204.35 139.839C203.836 139.839 203.394 139.669 203.024 139.329C202.653 138.982 202.468 138.567 202.468 138.083C202.468 137.593 202.653 137.178 203.024 136.838C203.394 136.491 203.836 136.318 204.35 136.318C204.869 136.318 205.311 136.491 205.676 136.838C206.046 137.178 206.231 137.593 206.231 138.083C206.231 138.567 206.046 138.982 205.676 139.329C205.311 139.669 204.869 139.839 204.35 139.839ZM213.55 147.491V155.555H210.307V141.793H213.407V144.131H213.568C213.885 143.361 214.39 142.748 215.082 142.294C215.781 141.84 216.644 141.613 217.672 141.613C218.622 141.613 219.449 141.816 220.154 142.223C220.864 142.629 221.414 143.217 221.802 143.988C222.196 144.758 222.391 145.693 222.385 146.792V155.555H219.141V147.294C219.141 146.374 218.902 145.654 218.424 145.135C217.953 144.615 217.298 144.355 216.462 144.355C215.895 144.355 215.39 144.48 214.948 144.731C214.512 144.976 214.169 145.332 213.918 145.798C213.673 146.263 213.55 146.828 213.55 147.491ZM230.651 155.832C229.779 155.832 228.994 155.677 228.295 155.367C227.602 155.05 227.052 154.584 226.646 153.969C226.246 153.354 226.046 152.595 226.046 151.693C226.046 150.917 226.189 150.274 226.476 149.767C226.763 149.259 227.154 148.853 227.65 148.548C228.145 148.244 228.704 148.014 229.325 147.858C229.952 147.697 230.6 147.581 231.269 147.509C232.076 147.425 232.73 147.351 233.232 147.285C233.733 147.213 234.098 147.106 234.325 146.962C234.558 146.813 234.674 146.583 234.674 146.272V146.219C234.674 145.544 234.474 145.021 234.074 144.651C233.674 144.28 233.097 144.095 232.345 144.095C231.55 144.095 230.92 144.268 230.454 144.615C229.994 144.961 229.684 145.37 229.522 145.842L226.494 145.412C226.733 144.576 227.127 143.877 227.677 143.316C228.226 142.748 228.898 142.324 229.693 142.043C230.487 141.757 231.365 141.613 232.327 141.613C232.99 141.613 233.65 141.691 234.307 141.846C234.964 142.002 235.564 142.258 236.108 142.617C236.651 142.969 237.087 143.45 237.416 144.059C237.75 144.669 237.918 145.43 237.918 146.344V155.555H234.8V153.664H234.692C234.495 154.046 234.217 154.405 233.859 154.739C233.506 155.068 233.061 155.334 232.524 155.537C231.992 155.734 231.368 155.832 230.651 155.832ZM231.493 153.449C232.144 153.449 232.709 153.321 233.187 153.064C233.665 152.801 234.032 152.455 234.289 152.025C234.552 151.594 234.683 151.126 234.683 150.618V148.996C234.582 149.08 234.408 149.157 234.163 149.229C233.924 149.301 233.656 149.364 233.357 149.417C233.058 149.471 232.763 149.519 232.47 149.561C232.177 149.602 231.923 149.638 231.708 149.668C231.225 149.734 230.792 149.841 230.409 149.991C230.027 150.14 229.725 150.349 229.504 150.618C229.283 150.881 229.173 151.221 229.173 151.639C229.173 152.237 229.391 152.688 229.827 152.992C230.263 153.297 230.818 153.449 231.493 153.449ZM245.431 147.491V155.555H242.188V141.793H245.288V144.131H245.449C245.766 143.361 246.271 142.748 246.964 142.294C247.662 141.84 248.526 141.613 249.553 141.613C250.503 141.613 251.33 141.816 252.035 142.223C252.746 142.629 253.295 143.217 253.683 143.988C254.078 144.758 254.272 145.693 254.266 146.792V155.555H251.022V147.294C251.022 146.374 250.783 145.654 250.306 145.135C249.834 144.615 249.18 144.355 248.343 144.355C247.776 144.355 247.271 144.48 246.829 144.731C246.393 144.976 246.05 145.332 245.799 145.798C245.554 146.263 245.431 146.828 245.431 147.491ZM264.575 155.823C263.201 155.823 262.022 155.522 261.036 154.919C260.056 154.315 259.301 153.482 258.769 152.419C258.244 151.35 257.981 150.119 257.981 148.727C257.981 147.33 258.25 146.096 258.787 145.027C259.325 143.952 260.083 143.116 261.063 142.518C262.049 141.915 263.213 141.613 264.557 141.613C265.674 141.613 266.663 141.819 267.523 142.232C268.389 142.638 269.079 143.214 269.593 143.961C270.106 144.701 270.399 145.568 270.471 146.559H267.371C267.245 145.896 266.947 145.344 266.475 144.902C266.009 144.454 265.385 144.23 264.602 144.23C263.939 144.23 263.357 144.409 262.855 144.767C262.353 145.12 261.962 145.627 261.681 146.29C261.406 146.953 261.269 147.748 261.269 148.674C261.269 149.611 261.406 150.418 261.681 151.093C261.956 151.762 262.341 152.278 262.837 152.643C263.339 153.001 263.927 153.18 264.602 153.18C265.08 153.18 265.507 153.091 265.883 152.912C266.266 152.726 266.585 152.461 266.842 152.114C267.099 151.768 267.275 151.347 267.371 150.851H270.471C270.393 151.824 270.106 152.688 269.611 153.44C269.115 154.187 268.44 154.772 267.586 155.196C266.731 155.614 265.728 155.823 264.575 155.823ZM280.146 155.823C278.802 155.823 277.637 155.528 276.652 154.936C275.666 154.345 274.902 153.518 274.358 152.455C273.821 151.391 273.552 150.149 273.552 148.727C273.552 147.306 273.821 146.06 274.358 144.991C274.902 143.922 275.666 143.092 276.652 142.5C277.637 141.909 278.802 141.613 280.146 141.613C281.49 141.613 282.655 141.909 283.64 142.5C284.626 143.092 285.388 143.922 285.925 144.991C286.469 146.06 286.741 147.306 286.741 148.727C286.741 150.149 286.469 151.391 285.925 152.455C285.388 153.518 284.626 154.345 283.64 154.936C282.655 155.528 281.49 155.823 280.146 155.823ZM280.164 153.225C280.893 153.225 281.502 153.025 281.992 152.625C282.482 152.219 282.846 151.675 283.085 150.994C283.33 150.313 283.452 149.555 283.452 148.718C283.452 147.876 283.33 147.115 283.085 146.434C282.846 145.747 282.482 145.2 281.992 144.794C281.502 144.388 280.893 144.185 280.164 144.185C279.417 144.185 278.796 144.388 278.3 144.794C277.811 145.2 277.443 145.747 277.198 146.434C276.959 147.115 276.84 147.876 276.84 148.718C276.84 149.555 276.959 150.313 277.198 150.994C277.443 151.675 277.811 152.219 278.3 152.625C278.796 153.025 279.417 153.225 280.164 153.225Z" fill="white"/>
<g clip-path="url(#clip3_1052_195)">
<path d="M462.211 136.042C457.6 136.042 453.46 138.441 453.46 142.844C453.46 147.915 460.774 148.261 460.774 150.785C460.774 151.848 459.534 152.813 457.452 152.813C454.477 152.813 452.245 151.477 452.245 151.477L451.303 155.93C451.303 155.93 453.857 157.067 457.278 157.067C462.335 157.067 466.302 154.569 466.302 150.067C466.302 144.724 458.964 144.378 458.964 142.028C458.964 141.187 459.98 140.272 462.063 140.272C464.418 140.272 466.352 141.236 466.352 141.236L467.294 136.932C467.269 136.932 465.162 136.042 462.211 136.042ZM419.967 136.364L419.843 137.007C419.843 137.007 421.777 137.353 423.537 138.07C425.793 138.887 425.942 139.357 426.339 140.816L430.479 156.721H436.032L444.535 136.364H439.007L433.528 150.216L431.297 138.466C431.099 137.13 430.057 136.364 428.768 136.364H419.967ZM446.767 136.364L442.428 156.721H447.709L452.022 136.364H446.767ZM476.169 136.364C474.905 136.364 474.235 137.031 473.739 138.219L466.005 156.721H471.533L472.599 153.629H479.342L479.987 156.721H484.871L480.631 136.364H476.169ZM476.888 141.88L478.524 149.523H474.136L476.888 141.88Z" fill="white"/>
</g>
<g clip-path="url(#clip4_1052_195)">
<path d="M229.126 248.487L217.627 236.988C217.475 236.836 217.294 236.715 217.094 236.632C216.895 236.55 216.681 236.508 216.465 236.508H196.754C195.883 236.508 195.047 236.854 194.431 237.47C193.815 238.086 193.469 238.922 193.469 239.793V275.931C193.469 276.802 193.815 277.637 194.431 278.254C195.047 278.87 195.883 279.216 196.754 279.216H226.321C227.192 279.216 228.028 278.87 228.644 278.254C229.26 277.637 229.606 276.802 229.606 275.931V249.649C229.606 249.433 229.564 249.219 229.482 249.02C229.399 248.82 229.278 248.639 229.126 248.487ZM223.036 271.003C223.036 271.438 222.863 271.856 222.555 272.164C222.247 272.472 221.829 272.645 221.393 272.645H218.108C217.89 272.645 217.681 272.559 217.527 272.405C217.373 272.251 217.287 272.042 217.287 271.824V264.488C217.292 264.064 217.137 263.653 216.853 263.339C216.568 263.025 216.175 262.83 215.753 262.794C215.528 262.779 215.303 262.81 215.091 262.886C214.879 262.962 214.685 263.081 214.52 263.235C214.356 263.389 214.225 263.575 214.136 263.782C214.047 263.988 214.001 264.211 214.001 264.436V271.828C214.001 272.046 213.915 272.255 213.761 272.409C213.607 272.563 213.398 272.649 213.18 272.649H209.895C209.677 272.649 209.468 272.563 209.314 272.409C209.16 272.255 209.074 272.046 209.074 271.828V264.488C209.079 264.064 208.924 263.653 208.64 263.339C208.355 263.025 207.962 262.83 207.54 262.794C207.315 262.779 207.09 262.81 206.878 262.886C206.666 262.962 206.472 263.081 206.307 263.235C206.143 263.389 206.012 263.575 205.923 263.782C205.834 263.988 205.788 264.211 205.788 264.436V271.828C205.788 272.046 205.702 272.255 205.548 272.409C205.394 272.563 205.185 272.649 204.967 272.649H201.682C201.246 272.649 200.828 272.476 200.52 272.168C200.212 271.86 200.039 271.442 200.039 271.007V259.504C200.039 259.069 200.212 258.651 200.52 258.343C200.828 258.035 201.246 257.862 201.682 257.862H221.393C221.829 257.862 222.247 258.035 222.555 258.343C222.863 258.651 223.036 259.069 223.036 259.504V271.003Z" fill="white" fill-opacity="0.08"/>
</g>
<path d="M199.64 326.26H197.311C197.221 325.762 197.054 325.324 196.81 324.945C196.566 324.567 196.268 324.246 195.914 323.982C195.561 323.718 195.165 323.519 194.727 323.385C194.294 323.251 193.834 323.183 193.346 323.183C192.465 323.183 191.676 323.405 190.979 323.848C190.287 324.291 189.74 324.94 189.336 325.797C188.938 326.653 188.739 327.698 188.739 328.933C188.739 330.177 188.938 331.227 189.336 332.083C189.74 332.939 190.29 333.587 190.987 334.025C191.683 334.463 192.467 334.682 193.338 334.682C193.821 334.682 194.279 334.617 194.712 334.488C195.15 334.353 195.546 334.157 195.899 333.898C196.253 333.639 196.551 333.323 196.795 332.949C197.044 332.571 197.216 332.138 197.311 331.65L199.64 331.658C199.516 332.409 199.274 333.101 198.916 333.733C198.562 334.361 198.107 334.903 197.55 335.361C196.997 335.814 196.365 336.165 195.653 336.414C194.941 336.663 194.165 336.787 193.324 336.787C191.999 336.787 190.82 336.474 189.784 335.846C188.749 335.214 187.933 334.311 187.335 333.136C186.743 331.961 186.447 330.56 186.447 328.933C186.447 327.3 186.746 325.899 187.343 324.729C187.94 323.554 188.757 322.653 189.792 322.026C190.827 321.394 192.004 321.078 193.324 321.078C194.135 321.078 194.891 321.195 195.593 321.429C196.3 321.658 196.935 321.996 197.497 322.444C198.06 322.887 198.525 323.43 198.893 324.072C199.262 324.709 199.511 325.438 199.64 326.26ZM206.4 336.832C205.673 336.832 205.016 336.698 204.429 336.429C203.842 336.155 203.376 335.759 203.033 335.242C202.694 334.724 202.525 334.089 202.525 333.338C202.525 332.691 202.649 332.158 202.898 331.74C203.147 331.322 203.483 330.991 203.906 330.747C204.329 330.503 204.802 330.319 205.325 330.194C205.848 330.07 206.38 329.975 206.923 329.911C207.61 329.831 208.167 329.766 208.595 329.716C209.023 329.662 209.334 329.575 209.529 329.455C209.723 329.336 209.82 329.142 209.82 328.873V328.821C209.82 328.168 209.636 327.663 209.267 327.305C208.904 326.946 208.361 326.767 207.64 326.767C206.888 326.767 206.296 326.934 205.863 327.267C205.434 327.596 205.138 327.962 204.974 328.365L202.876 327.887C203.125 327.19 203.488 326.628 203.966 326.2C204.449 325.767 205.004 325.453 205.631 325.259C206.258 325.06 206.918 324.96 207.61 324.96C208.068 324.96 208.553 325.015 209.066 325.125C209.583 325.229 210.066 325.423 210.514 325.707C210.967 325.991 211.338 326.396 211.627 326.924C211.915 327.447 212.06 328.126 212.06 328.962V336.578H209.879V335.01H209.79C209.646 335.299 209.429 335.583 209.14 335.861C208.852 336.14 208.481 336.372 208.028 336.556C207.575 336.74 207.032 336.832 206.4 336.832ZM206.885 335.04C207.503 335.04 208.03 334.918 208.468 334.674C208.911 334.43 209.247 334.112 209.476 333.718C209.71 333.32 209.827 332.895 209.827 332.442V330.963C209.748 331.043 209.593 331.118 209.364 331.187C209.14 331.252 208.884 331.309 208.595 331.359C208.307 331.404 208.025 331.446 207.752 331.486C207.478 331.521 207.249 331.551 207.065 331.576C206.632 331.63 206.236 331.722 205.877 331.852C205.524 331.981 205.24 332.168 205.026 332.412C204.817 332.651 204.713 332.969 204.713 333.368C204.713 333.92 204.917 334.338 205.325 334.622C205.733 334.901 206.253 335.04 206.885 335.04ZM215.874 336.578V325.11H218.032V326.932H218.151C218.361 326.314 218.729 325.829 219.256 325.476C219.789 325.117 220.391 324.938 221.063 324.938C221.203 324.938 221.367 324.943 221.556 324.953C221.75 324.963 221.902 324.975 222.012 324.99V327.126C221.922 327.101 221.763 327.073 221.534 327.043C221.305 327.009 221.076 326.991 220.847 326.991C220.319 326.991 219.849 327.103 219.436 327.327C219.028 327.546 218.704 327.852 218.465 328.246C218.226 328.634 218.107 329.077 218.107 329.575V336.578H215.874ZM228.667 336.802C227.741 336.802 226.915 336.566 226.188 336.093C225.466 335.615 224.899 334.936 224.486 334.054C224.078 333.168 223.874 332.106 223.874 330.866C223.874 329.627 224.08 328.567 224.493 327.686C224.911 326.805 225.484 326.13 226.211 325.662C226.937 325.194 227.761 324.96 228.682 324.96C229.394 324.96 229.966 325.08 230.399 325.319C230.837 325.553 231.176 325.826 231.415 326.14C231.659 326.454 231.848 326.73 231.982 326.969H232.117V321.287H234.349V336.578H232.169V334.794H231.982C231.848 335.038 231.654 335.316 231.4 335.63C231.151 335.943 230.807 336.217 230.369 336.451C229.931 336.685 229.364 336.802 228.667 336.802ZM229.16 334.898C229.802 334.898 230.345 334.729 230.788 334.39C231.236 334.047 231.574 333.572 231.803 332.964C232.037 332.357 232.154 331.65 232.154 330.844C232.154 330.047 232.039 329.351 231.81 328.753C231.581 328.156 231.246 327.691 230.803 327.357C230.359 327.024 229.812 326.857 229.16 326.857C228.488 326.857 227.928 327.031 227.48 327.379C227.032 327.728 226.693 328.203 226.465 328.806C226.241 329.408 226.129 330.087 226.129 330.844C226.129 331.61 226.243 332.3 226.472 332.912C226.701 333.524 227.039 334.01 227.487 334.368C227.94 334.721 228.498 334.898 229.16 334.898ZM244.961 336.578V321.287H247.268V327.932H254.891V321.287H257.206V336.578H254.891V329.911H247.268V336.578H244.961ZM266.058 336.81C264.983 336.81 264.045 336.563 263.244 336.07C262.442 335.578 261.82 334.888 261.377 334.002C260.934 333.116 260.712 332.081 260.712 330.896C260.712 329.707 260.934 328.666 261.377 327.775C261.82 326.884 262.442 326.192 263.244 325.7C264.045 325.207 264.983 324.96 266.058 324.96C267.134 324.96 268.072 325.207 268.873 325.7C269.675 326.192 270.297 326.884 270.74 327.775C271.183 328.666 271.404 329.707 271.404 330.896C271.404 332.081 271.183 333.116 270.74 334.002C270.297 334.888 269.675 335.578 268.873 336.07C268.072 336.563 267.134 336.81 266.058 336.81ZM266.066 334.936C266.763 334.936 267.34 334.751 267.798 334.383C268.256 334.015 268.594 333.524 268.813 332.912C269.037 332.3 269.149 331.625 269.149 330.889C269.149 330.157 269.037 329.485 268.813 328.873C268.594 328.256 268.256 327.76 267.798 327.387C267.34 327.014 266.763 326.827 266.066 326.827C265.364 326.827 264.782 327.014 264.319 327.387C263.861 327.76 263.52 328.256 263.296 328.873C263.077 329.485 262.967 330.157 262.967 330.889C262.967 331.625 263.077 332.3 263.296 332.912C263.52 333.524 263.861 334.015 264.319 334.383C264.782 334.751 265.364 334.936 266.066 334.936ZM276.97 321.287V336.578H274.737V321.287H276.97ZM285.107 336.802C284.181 336.802 283.355 336.566 282.628 336.093C281.907 335.615 281.339 334.936 280.926 334.054C280.518 333.168 280.314 332.106 280.314 330.866C280.314 329.627 280.52 328.567 280.934 327.686C281.352 326.805 281.924 326.13 282.651 325.662C283.378 325.194 284.201 324.96 285.122 324.96C285.834 324.96 286.406 325.08 286.84 325.319C287.278 325.553 287.616 325.826 287.855 326.14C288.099 326.454 288.288 326.73 288.422 326.969H288.557V321.287H290.789V336.578H288.609V334.794H288.422C288.288 335.038 288.094 335.316 287.84 335.63C287.591 335.943 287.248 336.217 286.81 336.451C286.372 336.685 285.804 336.802 285.107 336.802ZM285.6 334.898C286.242 334.898 286.785 334.729 287.228 334.39C287.676 334.047 288.014 333.572 288.243 332.964C288.477 332.357 288.594 331.65 288.594 330.844C288.594 330.047 288.48 329.351 288.251 328.753C288.022 328.156 287.686 327.691 287.243 327.357C286.8 327.024 286.252 326.857 285.6 326.857C284.928 326.857 284.368 327.031 283.92 327.379C283.472 327.728 283.134 328.203 282.905 328.806C282.681 329.408 282.569 330.087 282.569 330.844C282.569 331.61 282.683 332.3 282.912 332.912C283.141 333.524 283.48 334.01 283.928 334.368C284.381 334.721 284.938 334.898 285.6 334.898ZM299.759 336.81C298.629 336.81 297.656 336.568 296.84 336.085C296.029 335.598 295.401 334.913 294.958 334.032C294.52 333.146 294.301 332.108 294.301 330.919C294.301 329.744 294.52 328.709 294.958 327.813C295.401 326.917 296.019 326.217 296.81 325.714C297.607 325.212 298.537 324.96 299.603 324.96C300.25 324.96 300.877 325.067 301.484 325.281C302.091 325.495 302.636 325.831 303.119 326.289C303.602 326.747 303.983 327.342 304.262 328.074C304.54 328.801 304.68 329.684 304.68 330.724V331.516H295.563V329.843H302.492C302.492 329.256 302.373 328.736 302.134 328.283C301.895 327.825 301.559 327.464 301.126 327.2C300.698 326.936 300.195 326.805 299.617 326.805C298.99 326.805 298.443 326.959 297.975 327.267C297.512 327.571 297.154 327.969 296.9 328.462C296.651 328.95 296.526 329.48 296.526 330.052V331.359C296.526 332.126 296.661 332.778 296.93 333.315C297.203 333.853 297.584 334.264 298.072 334.547C298.56 334.826 299.13 334.965 299.782 334.965C300.205 334.965 300.591 334.906 300.939 334.786C301.287 334.662 301.589 334.478 301.842 334.234C302.096 333.99 302.29 333.689 302.425 333.33L304.538 333.711C304.369 334.333 304.065 334.878 303.627 335.346C303.194 335.809 302.649 336.17 301.992 336.429C301.34 336.683 300.596 336.81 299.759 336.81ZM307.998 336.578V325.11H310.156V326.932H310.275C310.484 326.314 310.852 325.829 311.38 325.476C311.913 325.117 312.515 324.938 313.187 324.938C313.326 324.938 313.491 324.943 313.68 324.953C313.874 324.963 314.026 324.975 314.135 324.99V327.126C314.046 327.101 313.886 327.073 313.657 327.043C313.428 327.009 313.199 326.991 312.97 326.991C312.443 326.991 311.972 327.103 311.559 327.327C311.151 327.546 310.828 327.852 310.589 328.246C310.35 328.634 310.23 329.077 310.23 329.575V336.578H307.998Z" fill="white" fill-opacity="0.4"/>
<path d="M190.12 381.886H185.981L193.518 360.478H198.305L205.852 381.886H201.713L195.995 364.868H195.828L190.12 381.886ZM190.256 373.492H201.546V376.607H190.256V373.492ZM213.466 360.478V381.886H209.682V360.478H213.466ZM225.643 382.199C224.033 382.199 222.643 381.865 221.472 381.196C220.308 380.52 219.413 379.565 218.785 378.332C218.158 377.091 217.845 375.631 217.845 373.952C217.845 372.3 218.158 370.851 218.785 369.604C219.42 368.349 220.305 367.374 221.441 366.677C222.576 365.973 223.911 365.621 225.444 365.621C226.434 365.621 227.367 365.781 228.245 366.102C229.13 366.415 229.911 366.903 230.587 367.565C231.27 368.227 231.806 369.07 232.197 370.095C232.587 371.112 232.782 372.325 232.782 373.732V374.893H219.622V372.342H229.155C229.148 371.617 228.991 370.973 228.684 370.408C228.378 369.837 227.949 369.387 227.399 369.06C226.855 368.732 226.221 368.569 225.496 368.569C224.723 368.569 224.043 368.757 223.458 369.133C222.873 369.502 222.416 369.99 222.089 370.597C221.768 371.196 221.604 371.854 221.597 372.572V374.799C221.597 375.732 221.768 376.534 222.11 377.203C222.451 377.865 222.928 378.374 223.542 378.729C224.155 379.077 224.873 379.252 225.695 379.252C226.245 379.252 226.744 379.175 227.19 379.022C227.636 378.861 228.022 378.628 228.35 378.321C228.677 378.015 228.925 377.635 229.092 377.182L232.625 377.579C232.402 378.513 231.977 379.328 231.35 380.025C230.73 380.715 229.935 381.252 228.967 381.635C227.998 382.011 226.89 382.199 225.643 382.199ZM239.91 365.83L243.15 371.757L246.443 365.83H250.446L245.607 373.858L250.53 381.886H246.547L243.15 376.105L239.784 381.886H235.77L240.662 373.858L235.896 365.83H239.91ZM186.431 400.729V397.478H203.511V400.729H196.894V418.886H193.047V400.729H186.431ZM210.249 419.21C209.232 419.21 208.315 419.029 207.5 418.666C206.692 418.297 206.05 417.753 205.577 417.036C205.11 416.318 204.876 415.433 204.876 414.381C204.876 413.475 205.044 412.725 205.378 412.133C205.713 411.541 206.169 411.067 206.747 410.712C207.326 410.356 207.977 410.088 208.702 409.907C209.434 409.718 210.19 409.583 210.97 409.499C211.911 409.401 212.674 409.314 213.26 409.238C213.845 409.154 214.27 409.029 214.535 408.861C214.807 408.687 214.943 408.419 214.943 408.056V407.994C214.943 407.206 214.709 406.597 214.242 406.164C213.775 405.732 213.103 405.516 212.225 405.516C211.298 405.516 210.563 405.718 210.019 406.123C209.483 406.527 209.12 407.004 208.932 407.555L205.399 407.053C205.678 406.077 206.138 405.262 206.779 404.607C207.42 403.945 208.204 403.45 209.131 403.123C210.057 402.788 211.082 402.621 212.204 402.621C212.977 402.621 213.747 402.712 214.514 402.893C215.28 403.074 215.981 403.374 216.615 403.792C217.249 404.203 217.758 404.764 218.141 405.475C218.531 406.185 218.726 407.074 218.726 408.14V418.886H215.089V416.68H214.963C214.733 417.126 214.409 417.544 213.991 417.935C213.58 418.318 213.061 418.628 212.434 418.865C211.814 419.095 211.085 419.21 210.249 419.21ZM211.232 416.429C211.991 416.429 212.65 416.279 213.207 415.98C213.765 415.673 214.193 415.269 214.493 414.767C214.8 414.266 214.953 413.719 214.953 413.126V411.234C214.834 411.332 214.632 411.422 214.347 411.506C214.068 411.59 213.754 411.663 213.406 411.725C213.057 411.788 212.713 411.844 212.371 411.893C212.03 411.941 211.733 411.983 211.483 412.018C210.918 412.095 210.413 412.22 209.967 412.394C209.521 412.569 209.169 412.813 208.911 413.126C208.653 413.433 208.524 413.83 208.524 414.318C208.524 415.015 208.779 415.541 209.287 415.896C209.796 416.252 210.444 416.429 211.232 416.429ZM227.493 409.478V418.886H223.709V402.83H227.326V405.558H227.514C227.883 404.659 228.472 403.945 229.28 403.415C230.096 402.886 231.103 402.621 232.301 402.621C233.409 402.621 234.374 402.858 235.197 403.332C236.026 403.806 236.667 404.492 237.12 405.391C237.58 406.29 237.806 407.381 237.799 408.663V418.886H234.015V409.248C234.015 408.175 233.737 407.335 233.179 406.729C232.629 406.123 231.866 405.82 230.89 405.82C230.228 405.82 229.639 405.966 229.123 406.259C228.615 406.544 228.214 406.959 227.921 407.502C227.636 408.046 227.493 408.705 227.493 409.478ZM249.827 419.199C248.224 419.199 246.848 418.847 245.698 418.144C244.555 417.44 243.674 416.468 243.054 415.227C242.44 413.98 242.134 412.544 242.134 410.921C242.134 409.29 242.447 407.851 243.074 406.604C243.702 405.349 244.587 404.374 245.73 403.677C246.879 402.973 248.238 402.621 249.806 402.621C251.109 402.621 252.263 402.861 253.266 403.342C254.277 403.816 255.081 404.489 255.681 405.36C256.28 406.224 256.622 407.234 256.705 408.391H253.088C252.942 407.617 252.594 406.973 252.043 406.457C251.5 405.935 250.771 405.673 249.858 405.673C249.085 405.673 248.405 405.882 247.82 406.3C247.235 406.712 246.778 407.304 246.451 408.077C246.13 408.851 245.97 409.778 245.97 410.858C245.97 411.952 246.13 412.893 246.451 413.68C246.771 414.461 247.221 415.063 247.799 415.489C248.385 415.907 249.071 416.116 249.858 416.116C250.416 416.116 250.914 416.011 251.353 415.802C251.799 415.586 252.172 415.276 252.472 414.872C252.771 414.468 252.977 413.976 253.088 413.398H256.705C256.615 414.534 256.28 415.541 255.702 416.419C255.123 417.29 254.336 417.973 253.339 418.468C252.343 418.955 251.172 419.199 249.827 419.199ZM264.774 409.478V418.886H260.99V397.478H264.69V405.558H264.878C265.255 404.652 265.836 403.938 266.624 403.415C267.418 402.886 268.429 402.621 269.655 402.621C270.77 402.621 271.742 402.854 272.572 403.321C273.401 403.788 274.042 404.471 274.495 405.37C274.955 406.269 275.185 407.367 275.185 408.663V418.886H271.401V409.248C271.401 408.168 271.122 407.328 270.565 406.729C270.014 406.123 269.241 405.82 268.244 405.82C267.575 405.82 266.976 405.966 266.446 406.259C265.924 406.544 265.512 406.959 265.213 407.502C264.92 408.046 264.774 408.705 264.774 409.478ZM284.84 419.21C283.822 419.21 282.906 419.029 282.091 418.666C281.282 418.297 280.641 417.753 280.167 417.036C279.7 416.318 279.467 415.433 279.467 414.381C279.467 413.475 279.634 412.725 279.969 412.133C280.303 411.541 280.76 411.067 281.338 410.712C281.916 410.356 282.568 410.088 283.293 409.907C284.024 409.718 284.78 409.583 285.561 409.499C286.502 409.401 287.265 409.314 287.85 409.238C288.436 409.154 288.861 409.029 289.125 408.861C289.397 408.687 289.533 408.419 289.533 408.056V407.994C289.533 407.206 289.3 406.597 288.833 406.164C288.366 405.732 287.693 405.516 286.815 405.516C285.888 405.516 285.153 405.718 284.61 406.123C284.073 406.527 283.711 407.004 283.523 407.555L279.99 407.053C280.268 406.077 280.728 405.262 281.369 404.607C282.01 403.945 282.794 403.45 283.721 403.123C284.648 402.788 285.672 402.621 286.794 402.621C287.568 402.621 288.338 402.712 289.105 402.893C289.871 403.074 290.571 403.374 291.206 403.792C291.84 404.203 292.348 404.764 292.732 405.475C293.122 406.185 293.317 407.074 293.317 408.14V418.886H289.679V416.68H289.554C289.324 417.126 289 417.544 288.582 417.935C288.171 418.318 287.652 418.628 287.024 418.865C286.404 419.095 285.676 419.21 284.84 419.21ZM285.822 416.429C286.582 416.429 287.24 416.279 287.798 415.98C288.355 415.673 288.784 415.269 289.084 414.767C289.39 414.266 289.544 413.719 289.544 413.126V411.234C289.425 411.332 289.223 411.422 288.937 411.506C288.659 411.59 288.345 411.663 287.997 411.725C287.648 411.788 287.303 411.844 286.962 411.893C286.62 411.941 286.324 411.983 286.073 412.018C285.509 412.095 285.003 412.22 284.557 412.394C284.111 412.569 283.76 412.813 283.502 413.126C283.244 413.433 283.115 413.83 283.115 414.318C283.115 415.015 283.369 415.541 283.878 415.896C284.387 416.252 285.035 416.429 285.822 416.429ZM302.083 409.478V418.886H298.299V402.83H301.916V405.558H302.104C302.474 404.659 303.062 403.945 303.871 403.415C304.686 402.886 305.693 402.621 306.892 402.621C308 402.621 308.965 402.858 309.787 403.332C310.617 403.806 311.258 404.492 311.711 405.391C312.171 406.29 312.397 407.381 312.39 408.663V418.886H308.606V409.248C308.606 408.175 308.327 407.335 307.77 406.729C307.219 406.123 306.456 405.82 305.481 405.82C304.819 405.82 304.23 405.966 303.714 406.259C303.205 406.544 302.805 406.959 302.512 407.502C302.226 408.046 302.083 408.705 302.083 409.478ZM324.397 425.241C323.038 425.241 321.871 425.057 320.895 424.687C319.919 424.325 319.135 423.837 318.543 423.224C317.951 422.611 317.54 421.931 317.31 421.185L320.717 420.36C320.871 420.673 321.094 420.983 321.386 421.29C321.679 421.604 322.073 421.861 322.568 422.063C323.069 422.273 323.7 422.377 324.46 422.377C325.533 422.377 326.421 422.116 327.125 421.593C327.829 421.077 328.181 420.227 328.181 419.043V416.001H327.993C327.797 416.391 327.512 416.792 327.135 417.203C326.766 417.614 326.275 417.959 325.662 418.238C325.055 418.516 324.292 418.656 323.372 418.656C322.139 418.656 321.02 418.367 320.017 417.788C319.02 417.203 318.226 416.332 317.634 415.175C317.048 414.011 316.756 412.555 316.756 410.806C316.756 409.043 317.048 407.555 317.634 406.342C318.226 405.123 319.024 404.199 320.027 403.572C321.031 402.938 322.149 402.621 323.383 402.621C324.324 402.621 325.097 402.781 325.703 403.102C326.317 403.415 326.804 403.795 327.167 404.241C327.529 404.68 327.804 405.095 327.993 405.485H328.202V402.83H331.933V419.147C331.933 420.52 331.606 421.656 330.951 422.555C330.296 423.454 329.4 424.126 328.264 424.572C327.129 425.018 325.839 425.241 324.397 425.241ZM324.428 415.687C325.23 415.687 325.912 415.492 326.477 415.102C327.041 414.712 327.47 414.151 327.763 413.419C328.055 412.687 328.202 411.809 328.202 410.785C328.202 409.774 328.055 408.889 327.763 408.13C327.477 407.37 327.052 406.781 326.487 406.363C325.93 405.938 325.243 405.725 324.428 405.725C323.585 405.725 322.881 405.945 322.317 406.384C321.752 406.823 321.327 407.426 321.041 408.192C320.756 408.952 320.613 409.816 320.613 410.785C320.613 411.767 320.756 412.628 321.041 413.367C321.334 414.098 321.763 414.67 322.327 415.081C322.899 415.485 323.599 415.687 324.428 415.687ZM341.609 419.21C340.592 419.21 339.675 419.029 338.86 418.666C338.052 418.297 337.41 417.753 336.937 417.036C336.47 416.318 336.236 415.433 336.236 414.381C336.236 413.475 336.404 412.725 336.738 412.133C337.072 411.541 337.529 411.067 338.107 410.712C338.686 410.356 339.337 410.088 340.062 409.907C340.794 409.718 341.55 409.583 342.33 409.499C343.271 409.401 344.034 409.314 344.62 409.238C345.205 409.154 345.63 409.029 345.895 408.861C346.167 408.687 346.302 408.419 346.302 408.056V407.994C346.302 407.206 346.069 406.597 345.602 406.164C345.135 405.732 344.463 405.516 343.585 405.516C342.658 405.516 341.923 405.718 341.379 406.123C340.843 406.527 340.48 407.004 340.292 407.555L336.759 407.053C337.038 406.077 337.498 405.262 338.139 404.607C338.78 403.945 339.564 403.45 340.491 403.123C341.417 402.788 342.442 402.621 343.564 402.621C344.337 402.621 345.107 402.712 345.874 402.893C346.64 403.074 347.341 403.374 347.975 403.792C348.609 404.203 349.118 404.764 349.501 405.475C349.891 406.185 350.086 407.074 350.086 408.14V418.886H346.449V416.68H346.323C346.093 417.126 345.769 417.544 345.351 417.935C344.94 418.318 344.421 418.628 343.794 418.865C343.174 419.095 342.445 419.21 341.609 419.21ZM342.592 416.429C343.351 416.429 344.01 416.279 344.567 415.98C345.125 415.673 345.553 415.269 345.853 414.767C346.16 414.266 346.313 413.719 346.313 413.126V411.234C346.194 411.332 345.992 411.422 345.707 411.506C345.428 411.59 345.114 411.663 344.766 411.725C344.417 411.788 344.073 411.844 343.731 411.893C343.39 411.941 343.093 411.983 342.843 412.018C342.278 412.095 341.773 412.22 341.327 412.394C340.881 412.569 340.529 412.813 340.271 413.126C340.013 413.433 339.884 413.83 339.884 414.318C339.884 415.015 340.139 415.541 340.647 415.896C341.156 416.252 341.804 416.429 342.592 416.429Z" fill="white"/>
<rect width="213.692" height="308.422" rx="20.44" transform="matrix(-6.30964e-08 -1 -1 3.0282e-08 694.484 485.35)" fill="white" fill-opacity="0.04"/>
</g>
</g>
<defs>
<filter id="filter0_i_1052_195" x="0" y="0" width="394.352" height="628.086" filterUnits="userSpaceOnUse" color-interpolation-filters="sRGB">
<feFlood flood-opacity="0" result="BackgroundImageFix"/>
<feBlend mode="normal" in="SourceGraphic" in2="BackgroundImageFix" result="shape"/>
<feColorMatrix in="SourceAlpha" type="matrix" values="0 0 0 0 0 0 0 0 0 0 0 0 0 0 0 0 0 0 127 0" result="hardAlpha"/>
<feOffset/>
<feGaussianBlur stdDeviation="12"/>
<feComposite in2="hardAlpha" operator="arithmetic" k2="-1" k3="1"/>
<feColorMatrix type="matrix" values="0 0 0 0 1 0 0 0 0 1 0 0 0 0 1 0 0 0 1 0"/>
<feBlend mode="normal" in2="shape" result="effect1_innerShadow_1052_195"/>
</filter>
<filter id="filter1_i_1052_195" x="162.133" y="94.9141" width="345.869" height="550.867" filterUnits="userSpaceOnUse" color-interpolation-filters="sRGB">
<feFlood flood-opacity="0" result="BackgroundImageFix"/>
<feBlend mode="normal" in="SourceGraphic" in2="BackgroundImageFix" result="shape"/>
<feColorMatrix in="SourceAlpha" type="matrix" values="0 0 0 0 0 0 0 0 0 0 0 0 0 0 0 0 0 0 127 0" result="hardAlpha"/>
<feOffset/>
<feGaussianBlur stdDeviation="12"/>
<feComposite in2="hardAlpha" operator="arithmetic" k2="-1" k3="1"/>
<feColorMatrix type="matrix" values="0 0 0 0 0.960784 0 0 0 0 0.964706 0 0 0 0 0.952941 0 0 0 0.16 0"/>
<feBlend mode="normal" in2="shape" result="effect1_innerShadow_1052_195"/>
</filter>
<radialGradient id="paint0_radial_1052_195" cx="0" cy="0" r="1" gradientUnits="userSpaceOnUse" gradientTransform="translate(341.483 114.908) rotate(37.3365) scale(266.012 52.5082)">
<stop stop-color="#152400" stop-opacity="0.08"/>
<stop offset="1" stop-opacity="0"/>
</radialGradient>
<radialGradient id="paint1_radial_1052_195" cx="0" cy="0" r="1" gradientUnits="userSpaceOnUse" gradientTransform="translate(243.428 307.598) rotate(-5.78371) scale(311.142 61.4164)">
<stop stop-color="#152400" stop-opacity="0.13"/>
<stop offset="1" stop-opacity="0"/>
</radialGradient>
<radialGradient id="paint2_radial_1052_195" cx="0" cy="0" r="1" gradientUnits="userSpaceOnUse" gradientTransform="translate(415.5 178.5) rotate(53.677) scale(534.324 101.613)">
<stop stop-color="white" stop-opacity="0.29"/>
<stop offset="1" stop-color="white" stop-opacity="0"/>
</radialGradient>
<radialGradient id="paint3_radial_1052_195" cx="0" cy="0" r="1" gradientUnits="userSpaceOnUse" gradientTransform="translate(242.5 357.5) rotate(34.3271) scale(374.168 71.1559)">
<stop stop-color="white" stop-opacity="0.29"/>
<stop offset="1" stop-color="white" stop-opacity="0"/>
</radialGradient>
<clipPath id="clip0_1052_195">
<rect width="74.1425" height="23.9727" fill="white" transform="translate(293.84 46.8691)"/>
</clipPath>
<clipPath id="clip1_1052_195">
<rect width="59.9318" height="59.9318" fill="white" transform="translate(26.3711 155.824)"/>
</clipPath>
<clipPath id="clip2_1052_195">
<rect x="162.133" y="94.9141" width="345.869" height="550.867" rx="25.2305" fill="white"/>
</clipPath>
<clipPath id="clip3_1052_195">
<rect width="65.0272" height="21.0255" fill="white" transform="translate(419.845 136.042)"/>
</clipPath>
<clipPath id="clip4_1052_195">
<rect width="52.5636" height="52.5636" fill="white" transform="translate(185.26 231.58)"/>
</clipPath>
</defs>
</svg>
