<svg width="346" height="196" viewBox="0 0 346 196" fill="none" xmlns="http://www.w3.org/2000/svg">
<rect width="264" height="196" rx="16" fill="white"/>
<rect x="16" y="16" width="92" height="44" rx="22" fill="white"/>
<rect x="16.5" y="16.5" width="91" height="43" rx="21.5" stroke="black" stroke-opacity="0.08"/>
<g clip-path="url(#clip0_1_2381)">
<path fill-rule="evenodd" clip-rule="evenodd" d="M22 37.9971C22 29.1665 29.1614 22 38 22C46.8393 22 54 29.173 54 38.0029C54 46.8335 46.8386 54 38 54H36.7022V53.9422C28.476 53.2811 22 46.3912 22 37.9971ZM38.3979 51.399C45.6182 51.1885 51.4044 45.2678 51.4044 38.0029C51.4044 30.6042 45.4037 24.5952 38 24.5952C30.5956 24.5952 24.5957 30.5991 24.5957 37.9971C24.5957 45.3947 30.601 51.399 38 51.399H38.3979Z" fill="#D12867"/>
<path fill-rule="evenodd" clip-rule="evenodd" d="M31.5214 26.2755C31.3434 26.2195 31.159 26.1615 30.9668 26.0963L31.8008 23.6387C31.8774 23.6647 32.0153 23.7087 32.1764 23.76C32.4657 23.8523 32.8296 23.9683 33.0464 24.0465L33.058 24.0507L33.0696 24.0551C33.1289 24.0778 33.1924 24.1018 33.2591 24.127C33.5948 24.254 34.0091 24.4106 34.355 24.5724L34.3704 24.5796L34.439 24.6139C34.6018 24.6898 34.8463 24.8063 35.0499 24.9034C35.1642 24.9579 35.2657 25.0062 35.3326 25.0378L35.3635 25.0524L35.3937 25.0687C35.4007 25.0724 35.4089 25.0768 35.4182 25.0818C35.4884 25.1194 35.6192 25.1894 35.7448 25.2661L35.7792 25.2872L35.789 25.294C35.8031 25.3022 35.8225 25.3132 35.8465 25.3266C35.8675 25.3382 35.8876 25.3493 35.9078 25.3604C35.9117 25.3626 35.9157 25.3648 35.9196 25.367C35.9307 25.3731 35.9434 25.38 35.9547 25.3863L35.9555 25.3868C35.9612 25.39 35.9759 25.3982 35.9929 25.4081C36.0082 25.4169 36.0318 25.4303 36.0613 25.4472C36.1515 25.4987 36.2974 25.5819 36.4328 25.6612C36.5723 25.7429 36.7852 25.8687 36.9427 25.9792C37.1115 26.0828 37.2971 26.2114 37.4206 26.2969C37.4429 26.3123 37.4631 26.3264 37.4809 26.3386C37.5759 26.3964 37.6689 26.462 37.7336 26.5084C37.8262 26.5748 37.927 26.6499 38.0189 26.719C38.0614 26.751 38.1002 26.7802 38.1368 26.8079C38.1856 26.8448 38.2306 26.8787 38.2755 26.9123C38.3125 26.94 38.3433 26.9628 38.3682 26.9809C38.3805 26.9899 38.3901 26.9967 38.3973 27.0018C38.4035 27.0062 38.4064 27.0081 38.4065 27.0082L38.4403 27.0308L38.4729 27.0556C39.9053 28.1467 41.1809 29.4287 42.2697 30.8575L42.2707 30.8588L42.2717 30.8601C43.4753 32.4481 44.4256 34.2108 45.0847 36.0867C47.0483 41.5712 46.4708 47.9074 43.3846 52.9091L41.1755 51.5465C43.8351 47.2361 44.3472 41.7242 42.6397 36.9581L42.6383 36.9542L42.6369 36.9503C42.0681 35.33 41.2466 33.8048 40.2039 32.4288C39.2605 31.1911 38.1588 30.0827 36.926 29.1399C36.8578 29.0926 36.7822 29.0364 36.7204 28.9902C36.6736 28.9552 36.6186 28.9137 36.5643 28.8727C36.5279 28.8452 36.4918 28.818 36.4588 28.7932C36.3697 28.7262 36.2888 28.666 36.2217 28.618C36.162 28.5752 36.1371 28.5594 36.1373 28.5591C36.1371 28.559 36.1373 28.5591 36.1373 28.5591L36.099 28.5375L36.0539 28.507C35.9876 28.462 35.9286 28.4211 35.8745 28.3837C35.7557 28.3015 35.6605 28.2356 35.564 28.1783L35.5008 28.1408L35.4422 28.0964C35.4458 28.0991 35.4456 28.099 35.4404 28.0955C35.4308 28.0891 35.4041 28.0714 35.3541 28.0403C35.2882 27.9995 35.2074 27.9512 35.121 27.9006C34.9985 27.8289 34.887 27.7653 34.7987 27.7149C34.7576 27.6914 34.7215 27.6708 34.6917 27.6537L34.689 27.6521C34.6845 27.6496 34.6778 27.6459 34.6677 27.6403C34.6646 27.6386 34.6612 27.6368 34.6576 27.6348C34.6375 27.6238 34.6108 27.609 34.5835 27.5939C34.5516 27.5761 34.5129 27.5543 34.4753 27.5323C34.4547 27.5202 34.4163 27.4976 34.3733 27.4697C34.3204 27.4382 34.2637 27.4078 34.1962 27.3715C34.1952 27.371 34.1942 27.3704 34.1932 27.3699C34.1125 27.3317 34.012 27.2838 33.9053 27.2329C33.7046 27.1372 33.4819 27.031 33.3274 26.9591L33.3107 26.9514L33.2409 26.9165C32.9958 26.8029 32.7024 26.6916 32.3738 26.5671C32.3024 26.54 32.2293 26.5123 32.1546 26.4837C31.9521 26.411 31.7417 26.3449 31.5214 26.2755ZM34.6917 27.6537C34.6931 27.6545 34.694 27.6549 34.694 27.6549L34.6917 27.6537ZM34.6917 27.6537C34.6931 27.6545 34.694 27.6549 34.694 27.6549L34.6917 27.6537Z" fill="#D12867"/>
<path fill-rule="evenodd" clip-rule="evenodd" d="M36.9868 32.4517C40.9039 31.7444 44.5187 29.5473 46.991 26.4199L49.0274 28.0292C46.1703 31.6433 41.9996 34.1838 37.4478 35.0056C35.1813 35.4143 32.8523 35.4281 30.5792 35.0114C28.3123 34.6073 26.1249 33.7935 24.1465 32.6054L25.483 30.3807C27.1878 31.4045 29.0772 32.1079 31.0378 32.457L31.0412 32.4576L31.0446 32.4582C32.9992 32.8169 35.0141 32.8073 36.9868 32.4517Z" fill="#D12867"/>
<path fill-rule="evenodd" clip-rule="evenodd" d="M30.0527 51.1551C32.2687 39.8475 43.7924 33.6026 53.217 36.1713L52.5343 38.6752C44.534 36.4947 34.52 41.8565 32.6 51.6541L30.0527 51.1551Z" fill="#D12867"/>
</g>
<path d="M67.2784 44V32.3636H71.4261C72.3314 32.3636 73.0814 32.5284 73.6761 32.858C74.2708 33.1875 74.7159 33.6383 75.0114 34.2102C75.3068 34.7784 75.4545 35.4186 75.4545 36.1307C75.4545 36.8466 75.3049 37.4905 75.0057 38.0625C74.7102 38.6307 74.2633 39.0814 73.6648 39.4148C73.0701 39.7443 72.322 39.9091 71.4205 39.9091H68.5682V38.4205H71.2614C71.8333 38.4205 72.2973 38.322 72.6534 38.125C73.0095 37.9242 73.2708 37.6515 73.4375 37.3068C73.6042 36.9621 73.6875 36.5701 73.6875 36.1307C73.6875 35.6913 73.6042 35.3011 73.4375 34.9602C73.2708 34.6193 73.0076 34.3523 72.6477 34.1591C72.2917 33.9659 71.822 33.8693 71.2386 33.8693H69.0341V44H67.2784ZM77.0564 44V35.2727H78.6985V36.6591H78.7894C78.9485 36.1894 79.2288 35.8201 79.6303 35.5511C80.0356 35.2784 80.4939 35.142 81.0053 35.142C81.1113 35.142 81.2363 35.1458 81.3803 35.1534C81.528 35.161 81.6435 35.1705 81.7269 35.1818V36.8068C81.6587 36.7879 81.5375 36.767 81.3632 36.7443C81.189 36.7178 81.0148 36.7045 80.8405 36.7045C80.439 36.7045 80.081 36.7898 79.7666 36.9602C79.456 37.1269 79.2098 37.3598 79.028 37.6591C78.8462 37.9545 78.7553 38.2917 78.7553 38.6705V44H77.0564ZM86.2407 44.1761C85.4225 44.1761 84.7085 43.9886 84.0986 43.6136C83.4888 43.2386 83.0153 42.714 82.6782 42.0398C82.3411 41.3655 82.1725 40.5777 82.1725 39.6761C82.1725 38.7708 82.3411 37.9792 82.6782 37.3011C83.0153 36.6231 83.4888 36.0966 84.0986 35.7216C84.7085 35.3466 85.4225 35.1591 86.2407 35.1591C87.0589 35.1591 87.7729 35.3466 88.3827 35.7216C88.9926 36.0966 89.4661 36.6231 89.8032 37.3011C90.1403 37.9792 90.3089 38.7708 90.3089 39.6761C90.3089 40.5777 90.1403 41.3655 89.8032 42.0398C89.4661 42.714 88.9926 43.2386 88.3827 43.6136C87.7729 43.9886 87.0589 44.1761 86.2407 44.1761ZM86.2464 42.75C86.7767 42.75 87.2161 42.6098 87.5645 42.3295C87.913 42.0492 88.1706 41.6761 88.3373 41.2102C88.5077 40.7443 88.593 40.2311 88.593 39.6705C88.593 39.1136 88.5077 38.6023 88.3373 38.1364C88.1706 37.6667 87.913 37.2898 87.5645 37.0057C87.2161 36.7216 86.7767 36.5795 86.2464 36.5795C85.7123 36.5795 85.2691 36.7216 84.9168 37.0057C84.5683 37.2898 84.3089 37.6667 84.1384 38.1364C83.9717 38.6023 83.8884 39.1136 83.8884 39.6705C83.8884 40.2311 83.9717 40.7443 84.1384 41.2102C84.3089 41.6761 84.5683 42.0492 84.9168 42.3295C85.2691 42.6098 85.7123 42.75 86.2464 42.75Z" fill="#182700"/>
<path d="M30.3523 124.364V80.7273H33.1477V124.364H30.3523ZM38.4148 94.6875C38.2557 93.1989 37.5852 92.0398 36.4034 91.2102C35.233 90.3807 33.7102 89.9659 31.8352 89.9659C30.517 89.9659 29.3864 90.1648 28.4432 90.5625C27.5 90.9602 26.7784 91.5 26.2784 92.1818C25.7784 92.8636 25.5227 93.642 25.5114 94.517C25.5114 95.2443 25.6761 95.875 26.0057 96.4091C26.3466 96.9432 26.8068 97.3977 27.3864 97.7727C27.9659 98.1364 28.608 98.4432 29.3125 98.6932C30.017 98.9432 30.7273 99.1534 31.4432 99.3239L34.7159 100.142C36.0341 100.449 37.3011 100.864 38.517 101.386C39.7443 101.909 40.8409 102.568 41.8068 103.364C42.7841 104.159 43.5568 105.119 44.125 106.244C44.6932 107.369 44.9773 108.687 44.9773 110.199C44.9773 112.244 44.4545 114.045 43.4091 115.602C42.3636 117.148 40.8523 118.358 38.875 119.233C36.9091 120.097 34.5284 120.528 31.733 120.528C29.017 120.528 26.6591 120.108 24.6591 119.267C22.6705 118.426 21.1136 117.199 19.9886 115.585C18.875 113.972 18.2727 112.006 18.1818 109.688H24.4034C24.4943 110.903 24.8693 111.915 25.5284 112.722C26.1875 113.528 27.0455 114.131 28.1023 114.528C29.1705 114.926 30.3636 115.125 31.6818 115.125C33.0568 115.125 34.2614 114.92 35.2955 114.511C36.3409 114.091 37.1591 113.511 37.75 112.773C38.3409 112.023 38.642 111.148 38.6534 110.148C38.642 109.239 38.375 108.489 37.8523 107.898C37.3295 107.295 36.5966 106.795 35.6534 106.398C34.7216 105.989 33.6307 105.625 32.3807 105.307L28.4091 104.284C25.5341 103.545 23.2614 102.426 21.5909 100.926C19.9318 99.4148 19.1023 97.4091 19.1023 94.9091C19.1023 92.8523 19.6591 91.0511 20.7727 89.5057C21.8977 87.9602 23.4261 86.7614 25.358 85.9091C27.2898 85.0455 29.4773 84.6136 31.9205 84.6136C34.3977 84.6136 36.5682 85.0455 38.4318 85.9091C40.3068 86.7614 41.7784 87.9489 42.8466 89.4716C43.9148 90.983 44.4659 92.7216 44.5 94.6875H38.4148ZM63.513 85.0909V120H57.1891V91.2443H56.9846L48.8198 96.4602V90.6648L57.496 85.0909H63.513ZM71.4166 120V115.432L83.536 103.551C84.6951 102.381 85.661 101.341 86.4337 100.432C87.2064 99.5227 87.786 98.642 88.1723 97.7898C88.5587 96.9375 88.7519 96.0284 88.7519 95.0625C88.7519 93.9602 88.5019 93.017 88.0019 92.233C87.5019 91.4375 86.8144 90.8239 85.9394 90.392C85.0644 89.9602 84.0701 89.7443 82.9564 89.7443C81.8087 89.7443 80.803 89.983 79.9394 90.4602C79.0757 90.9261 78.4053 91.5909 77.928 92.4545C77.4621 93.3182 77.2291 94.3466 77.2291 95.5398H71.2121C71.2121 93.3239 71.7178 91.3977 72.7291 89.7614C73.7405 88.125 75.1326 86.858 76.9053 85.9602C78.6894 85.0625 80.7348 84.6136 83.0416 84.6136C85.3826 84.6136 87.4394 85.0511 89.2121 85.9261C90.9848 86.8011 92.3598 88 93.3371 89.5227C94.3257 91.0455 94.8201 92.7841 94.8201 94.7386C94.8201 96.0455 94.5701 97.3295 94.0701 98.5909C93.5701 99.8523 92.6894 101.25 91.428 102.784C90.178 104.318 88.4223 106.176 86.161 108.358L80.1439 114.477V114.716H95.3485V120H71.4166ZM104.138 120.375C103.104 120.375 102.218 120.011 101.479 119.284C100.741 118.557 100.377 117.67 100.388 116.625C100.377 115.602 100.741 114.727 101.479 114C102.218 113.273 103.104 112.909 104.138 112.909C105.138 112.909 106.008 113.273 106.746 114C107.496 114.727 107.877 115.602 107.888 116.625C107.877 117.318 107.695 117.949 107.343 118.517C107.002 119.085 106.548 119.54 105.979 119.881C105.423 120.21 104.809 120.375 104.138 120.375ZM124.775 120.665C121.968 120.665 119.559 119.955 117.548 118.534C115.548 117.102 114.008 115.04 112.928 112.347C111.86 109.642 111.326 106.386 111.326 102.58C111.338 98.7727 111.877 95.5341 112.946 92.8636C114.025 90.1818 115.565 88.1364 117.565 86.7273C119.576 85.3182 121.98 84.6136 124.775 84.6136C127.571 84.6136 129.974 85.3182 131.985 86.7273C133.997 88.1364 135.536 90.1818 136.605 92.8636C137.684 95.5455 138.224 98.7841 138.224 102.58C138.224 106.398 137.684 109.659 136.605 112.364C135.536 115.057 133.997 117.114 131.985 118.534C129.985 119.955 127.582 120.665 124.775 120.665ZM124.775 115.33C126.957 115.33 128.678 114.256 129.94 112.108C131.213 109.949 131.849 106.773 131.849 102.58C131.849 99.8068 131.559 97.4773 130.98 95.5909C130.4 93.7045 129.582 92.2841 128.525 91.3295C127.468 90.3636 126.218 89.8807 124.775 89.8807C122.605 89.8807 120.889 90.9602 119.627 93.1193C118.366 95.267 117.73 98.4205 117.718 102.58C117.707 105.364 117.985 107.705 118.553 109.602C119.133 111.5 119.951 112.932 121.008 113.898C122.065 114.852 123.321 115.33 124.775 115.33ZM155.831 120.665C153.024 120.665 150.615 119.955 148.603 118.534C146.603 117.102 145.064 115.04 143.984 112.347C142.916 109.642 142.382 106.386 142.382 102.58C142.393 98.7727 142.933 95.5341 144.001 92.8636C145.081 90.1818 146.62 88.1364 148.62 86.7273C150.632 85.3182 153.035 84.6136 155.831 84.6136C158.626 84.6136 161.03 85.3182 163.041 86.7273C165.052 88.1364 166.592 90.1818 167.66 92.8636C168.74 95.5455 169.28 98.7841 169.28 102.58C169.28 106.398 168.74 109.659 167.66 112.364C166.592 115.057 165.052 117.114 163.041 118.534C161.041 119.955 158.637 120.665 155.831 120.665ZM155.831 115.33C158.012 115.33 159.734 114.256 160.995 112.108C162.268 109.949 162.905 106.773 162.905 102.58C162.905 99.8068 162.615 97.4773 162.035 95.5909C161.456 93.7045 160.637 92.2841 159.581 91.3295C158.524 90.3636 157.274 89.8807 155.831 89.8807C153.66 89.8807 151.944 90.9602 150.683 93.1193C149.422 95.267 148.785 98.4205 148.774 102.58C148.762 105.364 149.041 107.705 149.609 109.602C150.189 111.5 151.007 112.932 152.064 113.898C153.12 114.852 154.376 115.33 155.831 115.33Z" fill="#182700"/>
<path d="M23.625 155.42C23.5644 154.883 23.3144 154.466 22.875 154.17C22.4356 153.871 21.8826 153.722 21.2159 153.722C20.7386 153.722 20.3258 153.797 19.9773 153.949C19.6288 154.097 19.358 154.301 19.1648 154.562C18.9754 154.82 18.8807 155.114 18.8807 155.443C18.8807 155.72 18.9451 155.958 19.0739 156.159C19.2064 156.36 19.3788 156.528 19.5909 156.665C19.8068 156.797 20.0379 156.909 20.2841 157C20.5303 157.087 20.767 157.159 20.9943 157.216L22.1307 157.511C22.5019 157.602 22.8826 157.725 23.2727 157.881C23.6629 158.036 24.0246 158.241 24.358 158.494C24.6913 158.748 24.9602 159.062 25.1648 159.438C25.3731 159.812 25.4773 160.261 25.4773 160.784C25.4773 161.443 25.3068 162.028 24.9659 162.54C24.6288 163.051 24.1383 163.455 23.4943 163.75C22.8542 164.045 22.0795 164.193 21.1705 164.193C20.2992 164.193 19.5455 164.055 18.9091 163.778C18.2727 163.502 17.7746 163.11 17.4148 162.602C17.0549 162.091 16.8561 161.485 16.8182 160.784H18.5795C18.6136 161.205 18.75 161.555 18.9886 161.835C19.2311 162.112 19.5398 162.318 19.9148 162.455C20.2936 162.587 20.7083 162.653 21.1591 162.653C21.6553 162.653 22.0966 162.576 22.483 162.42C22.8731 162.261 23.1799 162.042 23.4034 161.761C23.6269 161.477 23.7386 161.146 23.7386 160.767C23.7386 160.422 23.6402 160.14 23.4432 159.92C23.25 159.701 22.9867 159.519 22.6534 159.375C22.3239 159.231 21.9508 159.104 21.5341 158.994L20.1591 158.619C19.2273 158.366 18.4886 157.992 17.9432 157.5C17.4015 157.008 17.1307 156.356 17.1307 155.545C17.1307 154.875 17.3125 154.29 17.6761 153.79C18.0398 153.29 18.5322 152.902 19.1534 152.625C19.7746 152.345 20.4754 152.205 21.2557 152.205C22.0436 152.205 22.7386 152.343 23.3409 152.619C23.947 152.896 24.4242 153.277 24.7727 153.761C25.1212 154.242 25.303 154.795 25.3182 155.42H23.625ZM32.6473 160.381V155.273H34.3519V164H32.6814V162.489H32.5905C32.3898 162.955 32.0678 163.343 31.6246 163.653C31.1852 163.96 30.6379 164.114 29.9826 164.114C29.422 164.114 28.9257 163.991 28.4939 163.744C28.0659 163.494 27.7288 163.125 27.4826 162.636C27.2401 162.148 27.1189 161.544 27.1189 160.824V155.273H28.8178V160.619C28.8178 161.214 28.9826 161.687 29.3121 162.04C29.6416 162.392 30.0697 162.568 30.5962 162.568C30.9144 162.568 31.2307 162.489 31.5451 162.33C31.8632 162.17 32.1265 161.93 32.3348 161.608C32.547 161.286 32.6511 160.877 32.6473 160.381ZM36.4509 164V152.364H38.1498V156.688H38.252C38.3505 156.506 38.4926 156.295 38.6782 156.057C38.8638 155.818 39.1214 155.61 39.4509 155.432C39.7805 155.25 40.2161 155.159 40.7577 155.159C41.4623 155.159 42.0911 155.337 42.6441 155.693C43.1971 156.049 43.6308 156.562 43.9452 157.233C44.2634 157.903 44.4225 158.71 44.4225 159.653C44.4225 160.597 44.2653 161.405 43.9509 162.08C43.6365 162.75 43.2047 163.267 42.6555 163.631C42.1062 163.991 41.4793 164.17 40.7748 164.17C40.2445 164.17 39.8108 164.081 39.4736 163.903C39.1403 163.725 38.8789 163.517 38.6895 163.278C38.5002 163.04 38.3543 162.828 38.252 162.642H38.11V164H36.4509ZM38.1157 159.636C38.1157 160.25 38.2047 160.788 38.3827 161.25C38.5608 161.712 38.8183 162.074 39.1555 162.335C39.4926 162.593 39.9055 162.722 40.3941 162.722C40.9017 162.722 41.3259 162.587 41.6668 162.318C42.0077 162.045 42.2653 161.676 42.4395 161.21C42.6176 160.744 42.7066 160.22 42.7066 159.636C42.7066 159.061 42.6195 158.544 42.4452 158.085C42.2748 157.627 42.0172 157.265 41.6725 157C41.3316 156.735 40.9055 156.602 40.3941 156.602C39.9017 156.602 39.485 156.729 39.1441 156.983C38.807 157.237 38.5513 157.591 38.377 158.045C38.2028 158.5 38.1157 159.03 38.1157 159.636ZM52.5499 157.403L51.0102 157.676C50.9458 157.479 50.8435 157.292 50.7034 157.114C50.567 156.936 50.3814 156.79 50.1465 156.676C49.9117 156.562 49.6181 156.506 49.2659 156.506C48.7848 156.506 48.3833 156.614 48.0613 156.83C47.7393 157.042 47.5784 157.316 47.5784 157.653C47.5784 157.945 47.6863 158.18 47.9022 158.358C48.1181 158.536 48.4666 158.682 48.9477 158.795L50.334 159.114C51.1371 159.299 51.7356 159.585 52.1295 159.972C52.5234 160.358 52.7204 160.86 52.7204 161.477C52.7204 162 52.5689 162.466 52.2659 162.875C51.9666 163.28 51.5481 163.598 51.0102 163.83C50.4761 164.061 49.8568 164.176 49.1522 164.176C48.1749 164.176 47.3776 163.968 46.7602 163.551C46.1427 163.131 45.764 162.534 45.6238 161.761L47.2659 161.511C47.3681 161.939 47.5784 162.263 47.8965 162.483C48.2147 162.699 48.6295 162.807 49.1409 162.807C49.6977 162.807 50.1427 162.691 50.4761 162.46C50.8094 162.225 50.9761 161.939 50.9761 161.602C50.9761 161.33 50.8738 161.1 50.6693 160.915C50.4685 160.729 50.1598 160.589 49.7431 160.494L48.2659 160.17C47.4515 159.985 46.8492 159.689 46.459 159.284C46.0727 158.879 45.8795 158.366 45.8795 157.744C45.8795 157.229 46.0234 156.778 46.3113 156.392C46.5992 156.006 46.9969 155.705 47.5045 155.489C48.0121 155.269 48.5935 155.159 49.2488 155.159C50.192 155.159 50.9344 155.364 51.4761 155.773C52.0177 156.178 52.3757 156.722 52.5499 157.403ZM57.9444 164.176C57.0997 164.176 56.3725 163.985 55.7626 163.602C55.1566 163.216 54.6906 162.684 54.3649 162.006C54.0391 161.328 53.8763 160.551 53.8763 159.676C53.8763 158.79 54.0429 158.008 54.3763 157.33C54.7096 156.648 55.1793 156.116 55.7853 155.733C56.3914 155.35 57.1054 155.159 57.9274 155.159C58.5903 155.159 59.1812 155.282 59.7001 155.528C60.2191 155.771 60.6376 156.112 60.9558 156.551C61.2778 156.991 61.4691 157.504 61.5297 158.091H59.8763C59.7853 157.682 59.577 157.33 59.2513 157.034C58.9293 156.739 58.4975 156.591 57.9558 156.591C57.4823 156.591 57.0675 156.716 56.7115 156.966C56.3592 157.212 56.0846 157.564 55.8876 158.023C55.6906 158.477 55.5922 159.015 55.5922 159.636C55.5922 160.273 55.6888 160.822 55.8819 161.284C56.0751 161.746 56.3478 162.104 56.7001 162.358C57.0562 162.612 57.4747 162.739 57.9558 162.739C58.2778 162.739 58.5694 162.68 58.8308 162.562C59.0959 162.441 59.3175 162.269 59.4956 162.045C59.6774 161.822 59.8043 161.553 59.8763 161.239H61.5297C61.4691 161.803 61.2853 162.307 60.9785 162.75C60.6717 163.193 60.2607 163.542 59.7456 163.795C59.2342 164.049 58.6338 164.176 57.9444 164.176ZM63.0264 164V155.273H64.6685V156.659H64.7594C64.9185 156.189 65.1988 155.82 65.6003 155.551C66.0056 155.278 66.4639 155.142 66.9753 155.142C67.0813 155.142 67.2063 155.146 67.3503 155.153C67.498 155.161 67.6135 155.17 67.6969 155.182V156.807C67.6287 156.788 67.5075 156.767 67.3332 156.744C67.159 156.718 66.9848 156.705 66.8105 156.705C66.409 156.705 66.051 156.79 65.7366 156.96C65.426 157.127 65.1798 157.36 64.998 157.659C64.8162 157.955 64.7253 158.292 64.7253 158.67V164H63.0264ZM68.847 164V155.273H70.5459V164H68.847ZM69.705 153.926C69.4095 153.926 69.1558 153.828 68.9436 153.631C68.7353 153.43 68.6311 153.191 68.6311 152.915C68.6311 152.634 68.7353 152.396 68.9436 152.199C69.1558 151.998 69.4095 151.898 69.705 151.898C70.0005 151.898 70.2524 151.998 70.4607 152.199C70.6728 152.396 70.7789 152.634 70.7789 152.915C70.7789 153.191 70.6728 153.43 70.4607 153.631C70.2524 153.828 70.0005 153.926 69.705 153.926ZM72.5114 167.273V155.273H74.1705V156.688H74.3126C74.411 156.506 74.5531 156.295 74.7387 156.057C74.9243 155.818 75.1819 155.61 75.5114 155.432C75.841 155.25 76.2766 155.159 76.8182 155.159C77.5228 155.159 78.1516 155.337 78.7046 155.693C79.2576 156.049 79.6913 156.562 80.0057 157.233C80.3239 157.903 80.483 158.71 80.483 159.653C80.483 160.597 80.3258 161.405 80.0114 162.08C79.697 162.75 79.2652 163.267 78.716 163.631C78.1667 163.991 77.5398 164.17 76.8353 164.17C76.305 164.17 75.8713 164.081 75.5341 163.903C75.2008 163.725 74.9394 163.517 74.7501 163.278C74.5607 163.04 74.4148 162.828 74.3126 162.642H74.2103V167.273H72.5114ZM74.1762 159.636C74.1762 160.25 74.2652 160.788 74.4432 161.25C74.6213 161.712 74.8788 162.074 75.216 162.335C75.5531 162.593 75.966 162.722 76.4546 162.722C76.9622 162.722 77.3864 162.587 77.7273 162.318C78.0682 162.045 78.3258 161.676 78.5001 161.21C78.6781 160.744 78.7671 160.22 78.7671 159.636C78.7671 159.061 78.68 158.544 78.5057 158.085C78.3353 157.627 78.0777 157.265 77.733 157C77.3921 156.735 76.966 156.602 76.4546 156.602C75.9622 156.602 75.5455 156.729 75.2046 156.983C74.8675 157.237 74.6118 157.591 74.4376 158.045C74.2633 158.5 74.1762 159.03 74.1762 159.636ZM86.1403 155.273V156.636H81.3732V155.273H86.1403ZM82.6517 153.182H84.3505V161.438C84.3505 161.767 84.3998 162.015 84.4982 162.182C84.5967 162.345 84.7236 162.456 84.8789 162.517C85.038 162.574 85.2104 162.602 85.396 162.602C85.5323 162.602 85.6517 162.593 85.7539 162.574C85.8562 162.555 85.9357 162.54 85.9926 162.528L86.2994 163.932C86.2009 163.97 86.0607 164.008 85.8789 164.045C85.6971 164.087 85.4698 164.11 85.1971 164.114C84.7501 164.121 84.3335 164.042 83.9471 163.875C83.5607 163.708 83.2482 163.451 83.0096 163.102C82.771 162.754 82.6517 162.316 82.6517 161.79V153.182ZM87.6995 164V155.273H89.3984V164H87.6995ZM88.5575 153.926C88.262 153.926 88.0083 153.828 87.7961 153.631C87.5878 153.43 87.4836 153.191 87.4836 152.915C87.4836 152.634 87.5878 152.396 87.7961 152.199C88.0083 151.998 88.262 151.898 88.5575 151.898C88.853 151.898 89.1049 151.998 89.3132 152.199C89.5253 152.396 89.6314 152.634 89.6314 152.915C89.6314 153.191 89.5253 153.43 89.3132 153.631C89.1049 153.828 88.853 153.926 88.5575 153.926ZM95.0401 164.176C94.2219 164.176 93.5079 163.989 92.898 163.614C92.2882 163.239 91.8147 162.714 91.4776 162.04C91.1404 161.366 90.9719 160.578 90.9719 159.676C90.9719 158.771 91.1404 157.979 91.4776 157.301C91.8147 156.623 92.2882 156.097 92.898 155.722C93.5079 155.347 94.2219 155.159 95.0401 155.159C95.8582 155.159 96.5723 155.347 97.1821 155.722C97.792 156.097 98.2654 156.623 98.6026 157.301C98.9397 157.979 99.1082 158.771 99.1082 159.676C99.1082 160.578 98.9397 161.366 98.6026 162.04C98.2654 162.714 97.792 163.239 97.1821 163.614C96.5723 163.989 95.8582 164.176 95.0401 164.176ZM95.0457 162.75C95.576 162.75 96.0154 162.61 96.3639 162.33C96.7124 162.049 96.97 161.676 97.1367 161.21C97.3071 160.744 97.3923 160.231 97.3923 159.67C97.3923 159.114 97.3071 158.602 97.1367 158.136C96.97 157.667 96.7124 157.29 96.3639 157.006C96.0154 156.722 95.576 156.58 95.0457 156.58C94.5117 156.58 94.0685 156.722 93.7162 157.006C93.3677 157.29 93.1082 157.667 92.9378 158.136C92.7711 158.602 92.6878 159.114 92.6878 159.67C92.6878 160.231 92.7711 160.744 92.9378 161.21C93.1082 161.676 93.3677 162.049 93.7162 162.33C94.0685 162.61 94.5117 162.75 95.0457 162.75ZM102.383 158.818V164H100.685V155.273H102.315V156.693H102.423C102.624 156.231 102.938 155.86 103.366 155.58C103.798 155.299 104.342 155.159 104.997 155.159C105.592 155.159 106.113 155.284 106.56 155.534C107.007 155.78 107.353 156.148 107.599 156.636C107.846 157.125 107.969 157.729 107.969 158.449V164H106.27V158.653C106.27 158.021 106.105 157.527 105.775 157.17C105.446 156.811 104.993 156.631 104.418 156.631C104.024 156.631 103.673 156.716 103.366 156.886C103.063 157.057 102.823 157.307 102.645 157.636C102.471 157.962 102.383 158.356 102.383 158.818ZM117.995 155.273V156.636H113.063V155.273H117.995ZM114.415 164V154.261C114.415 153.716 114.535 153.263 114.773 152.903C115.012 152.54 115.328 152.269 115.722 152.091C116.116 151.909 116.544 151.818 117.006 151.818C117.347 151.818 117.639 151.847 117.881 151.903C118.124 151.956 118.304 152.006 118.421 152.051L118.023 153.426C117.944 153.403 117.841 153.377 117.716 153.347C117.591 153.312 117.44 153.295 117.262 153.295C116.849 153.295 116.554 153.398 116.376 153.602C116.201 153.807 116.114 154.102 116.114 154.489V164H114.415ZM122.76 164.176C121.942 164.176 121.228 163.989 120.618 163.614C120.008 163.239 119.535 162.714 119.198 162.04C118.86 161.366 118.692 160.578 118.692 159.676C118.692 158.771 118.86 157.979 119.198 157.301C119.535 156.623 120.008 156.097 120.618 155.722C121.228 155.347 121.942 155.159 122.76 155.159C123.578 155.159 124.292 155.347 124.902 155.722C125.512 156.097 125.985 156.623 126.323 157.301C126.66 157.979 126.828 158.771 126.828 159.676C126.828 160.578 126.66 161.366 126.323 162.04C125.985 162.714 125.512 163.239 124.902 163.614C124.292 163.989 123.578 164.176 122.76 164.176ZM122.766 162.75C123.296 162.75 123.735 162.61 124.084 162.33C124.432 162.049 124.69 161.676 124.857 161.21C125.027 160.744 125.112 160.231 125.112 159.67C125.112 159.114 125.027 158.602 124.857 158.136C124.69 157.667 124.432 157.29 124.084 157.006C123.735 156.722 123.296 156.58 122.766 156.58C122.232 156.58 121.788 156.722 121.436 157.006C121.088 157.29 120.828 157.667 120.658 158.136C120.491 158.602 120.408 159.114 120.408 159.67C120.408 160.231 120.491 160.744 120.658 161.21C120.828 161.676 121.088 162.049 121.436 162.33C121.788 162.61 122.232 162.75 122.766 162.75ZM128.405 164V155.273H130.047V156.659H130.137C130.297 156.189 130.577 155.82 130.978 155.551C131.384 155.278 131.842 155.142 132.353 155.142C132.459 155.142 132.584 155.146 132.728 155.153C132.876 155.161 132.992 155.17 133.075 155.182V156.807C133.007 156.788 132.886 156.767 132.711 156.744C132.537 156.718 132.363 156.705 132.189 156.705C131.787 156.705 131.429 156.79 131.115 156.96C130.804 157.127 130.558 157.36 130.376 157.659C130.194 157.955 130.103 158.292 130.103 158.67V164H128.405Z" fill="#182700" fill-opacity="0.4"/>
<path d="M142.043 164H138.276V152.364H142.162C143.302 152.364 144.282 152.597 145.1 153.062C145.918 153.525 146.545 154.189 146.98 155.057C147.42 155.92 147.64 156.956 147.64 158.165C147.64 159.377 147.418 160.419 146.975 161.29C146.535 162.161 145.899 162.831 145.066 163.301C144.232 163.767 143.225 164 142.043 164ZM140.032 162.466H141.946C142.833 162.466 143.569 162.299 144.157 161.966C144.744 161.629 145.183 161.142 145.475 160.506C145.766 159.866 145.912 159.085 145.912 158.165C145.912 157.252 145.766 156.477 145.475 155.841C145.187 155.205 144.757 154.722 144.185 154.392C143.613 154.062 142.903 153.898 142.054 153.898H140.032V162.466ZM149.366 164V155.273H151.008V156.659H151.099C151.258 156.189 151.539 155.82 151.94 155.551C152.346 155.278 152.804 155.142 153.315 155.142C153.421 155.142 153.546 155.146 153.69 155.153C153.838 155.161 153.954 155.17 154.037 155.182V156.807C153.969 156.788 153.847 156.767 153.673 156.744C153.499 156.718 153.325 156.705 153.151 156.705C152.749 156.705 152.391 156.79 152.077 156.96C151.766 157.127 151.52 157.36 151.338 157.659C151.156 157.955 151.065 158.292 151.065 158.67V164H149.366ZM155.187 164V155.273H156.886V164H155.187ZM156.045 153.926C155.75 153.926 155.496 153.828 155.284 153.631C155.075 153.43 154.971 153.191 154.971 152.915C154.971 152.634 155.075 152.396 155.284 152.199C155.496 151.998 155.75 151.898 156.045 151.898C156.34 151.898 156.592 151.998 156.801 152.199C157.013 152.396 157.119 152.634 157.119 152.915C157.119 153.191 157.013 153.43 156.801 153.631C156.592 153.828 156.34 153.926 156.045 153.926ZM158.988 164V152.364H160.687V156.688H160.789C160.887 156.506 161.029 156.295 161.215 156.057C161.401 155.818 161.658 155.61 161.988 155.432C162.317 155.25 162.753 155.159 163.295 155.159C163.999 155.159 164.628 155.337 165.181 155.693C165.734 156.049 166.168 156.562 166.482 157.233C166.8 157.903 166.959 158.71 166.959 159.653C166.959 160.597 166.802 161.405 166.488 162.08C166.173 162.75 165.742 163.267 165.192 163.631C164.643 163.991 164.016 164.17 163.312 164.17C162.781 164.17 162.348 164.081 162.011 163.903C161.677 163.725 161.416 163.517 161.226 163.278C161.037 163.04 160.891 162.828 160.789 162.642H160.647V164H158.988ZM160.653 159.636C160.653 160.25 160.742 160.788 160.92 161.25C161.098 161.712 161.355 162.074 161.692 162.335C162.029 162.593 162.442 162.722 162.931 162.722C163.439 162.722 163.863 162.587 164.204 162.318C164.545 162.045 164.802 161.676 164.976 161.21C165.154 160.744 165.243 160.22 165.243 159.636C165.243 159.061 165.156 158.544 164.982 158.085C164.812 157.627 164.554 157.265 164.209 157C163.868 156.735 163.442 156.602 162.931 156.602C162.439 156.602 162.022 156.729 161.681 156.983C161.344 157.237 161.088 157.591 160.914 158.045C160.74 158.5 160.653 159.03 160.653 159.636ZM168.683 164V152.364H170.382V156.688H170.485C170.583 156.506 170.725 156.295 170.911 156.057C171.096 155.818 171.354 155.61 171.683 155.432C172.013 155.25 172.449 155.159 172.99 155.159C173.695 155.159 174.324 155.337 174.877 155.693C175.43 156.049 175.863 156.562 176.178 157.233C176.496 157.903 176.655 158.71 176.655 159.653C176.655 160.597 176.498 161.405 176.183 162.08C175.869 162.75 175.437 163.267 174.888 163.631C174.339 163.991 173.712 164.17 173.007 164.17C172.477 164.17 172.043 164.081 171.706 163.903C171.373 163.725 171.111 163.517 170.922 163.278C170.733 163.04 170.587 162.828 170.485 162.642H170.342V164H168.683ZM170.348 159.636C170.348 160.25 170.437 160.788 170.615 161.25C170.793 161.712 171.051 162.074 171.388 162.335C171.725 162.593 172.138 162.722 172.627 162.722C173.134 162.722 173.558 162.587 173.899 162.318C174.24 162.045 174.498 161.676 174.672 161.21C174.85 160.744 174.939 160.22 174.939 159.636C174.939 159.061 174.852 158.544 174.678 158.085C174.507 157.627 174.25 157.265 173.905 157C173.564 156.735 173.138 156.602 172.627 156.602C172.134 156.602 171.717 156.729 171.377 156.983C171.039 157.237 170.784 157.591 170.61 158.045C170.435 158.5 170.348 159.03 170.348 159.636ZM178.379 164V152.364H180.078V156.688H180.18C180.279 156.506 180.421 156.295 180.606 156.057C180.792 155.818 181.049 155.61 181.379 155.432C181.709 155.25 182.144 155.159 182.686 155.159C183.39 155.159 184.019 155.337 184.572 155.693C185.125 156.049 185.559 156.562 185.873 157.233C186.192 157.903 186.351 158.71 186.351 159.653C186.351 160.597 186.193 161.405 185.879 162.08C185.565 162.75 185.133 163.267 184.584 163.631C184.034 163.991 183.407 164.17 182.703 164.17C182.173 164.17 181.739 164.081 181.402 163.903C181.068 163.725 180.807 163.517 180.618 163.278C180.428 163.04 180.282 162.828 180.18 162.642H180.038V164H178.379ZM180.044 159.636C180.044 160.25 180.133 160.788 180.311 161.25C180.489 161.712 180.746 162.074 181.084 162.335C181.421 162.593 181.834 162.722 182.322 162.722C182.83 162.722 183.254 162.587 183.595 162.318C183.936 162.045 184.193 161.676 184.368 161.21C184.546 160.744 184.635 160.22 184.635 159.636C184.635 159.061 184.548 158.544 184.373 158.085C184.203 157.627 183.945 157.265 183.601 157C183.26 156.735 182.834 156.602 182.322 156.602C181.83 156.602 181.413 156.729 181.072 156.983C180.735 157.237 180.479 157.591 180.305 158.045C180.131 158.5 180.044 159.03 180.044 159.636ZM189.637 152.364V164H187.938V152.364H189.637ZM195.364 164.176C194.504 164.176 193.764 163.992 193.142 163.625C192.525 163.254 192.048 162.733 191.711 162.062C191.377 161.388 191.211 160.598 191.211 159.693C191.211 158.799 191.377 158.011 191.711 157.33C192.048 156.648 192.517 156.116 193.12 155.733C193.726 155.35 194.434 155.159 195.245 155.159C195.737 155.159 196.214 155.241 196.677 155.403C197.139 155.566 197.553 155.822 197.921 156.17C198.288 156.519 198.578 156.972 198.79 157.528C199.002 158.081 199.108 158.754 199.108 159.545V160.148H192.171V158.875H197.444C197.444 158.428 197.353 158.032 197.171 157.688C196.989 157.339 196.733 157.064 196.404 156.864C196.078 156.663 195.695 156.562 195.256 156.562C194.779 156.562 194.362 156.68 194.006 156.915C193.654 157.146 193.381 157.449 193.188 157.824C192.999 158.195 192.904 158.598 192.904 159.034V160.028C192.904 160.612 193.006 161.108 193.211 161.517C193.419 161.926 193.709 162.239 194.08 162.455C194.451 162.667 194.885 162.773 195.381 162.773C195.703 162.773 195.997 162.727 196.262 162.636C196.527 162.542 196.756 162.402 196.949 162.216C197.142 162.03 197.29 161.801 197.392 161.528L199 161.818C198.872 162.292 198.641 162.706 198.307 163.062C197.978 163.415 197.563 163.689 197.063 163.886C196.567 164.08 196 164.176 195.364 164.176ZM201.793 164.108C201.482 164.108 201.215 163.998 200.991 163.778C200.768 163.555 200.656 163.286 200.656 162.972C200.656 162.661 200.768 162.396 200.991 162.176C201.215 161.953 201.482 161.841 201.793 161.841C202.103 161.841 202.37 161.953 202.594 162.176C202.817 162.396 202.929 162.661 202.929 162.972C202.929 163.18 202.876 163.371 202.77 163.545C202.668 163.716 202.531 163.852 202.361 163.955C202.19 164.057 202.001 164.108 201.793 164.108ZM208.561 164.176C207.716 164.176 206.989 163.985 206.379 163.602C205.773 163.216 205.307 162.684 204.981 162.006C204.655 161.328 204.492 160.551 204.492 159.676C204.492 158.79 204.659 158.008 204.992 157.33C205.326 156.648 205.796 156.116 206.402 155.733C207.008 155.35 207.722 155.159 208.544 155.159C209.207 155.159 209.797 155.282 210.316 155.528C210.835 155.771 211.254 156.112 211.572 156.551C211.894 156.991 212.085 157.504 212.146 158.091H210.492C210.402 157.682 210.193 157.33 209.867 157.034C209.546 156.739 209.114 156.591 208.572 156.591C208.099 156.591 207.684 156.716 207.328 156.966C206.975 157.212 206.701 157.564 206.504 158.023C206.307 158.477 206.208 159.015 206.208 159.636C206.208 160.273 206.305 160.822 206.498 161.284C206.691 161.746 206.964 162.104 207.316 162.358C207.672 162.612 208.091 162.739 208.572 162.739C208.894 162.739 209.186 162.68 209.447 162.562C209.712 162.441 209.934 162.269 210.112 162.045C210.294 161.822 210.421 161.553 210.492 161.239H212.146C212.085 161.803 211.902 162.307 211.595 162.75C211.288 163.193 210.877 163.542 210.362 163.795C209.85 164.049 209.25 164.176 208.561 164.176ZM217.319 164.176C216.501 164.176 215.787 163.989 215.177 163.614C214.567 163.239 214.093 162.714 213.756 162.04C213.419 161.366 213.251 160.578 213.251 159.676C213.251 158.771 213.419 157.979 213.756 157.301C214.093 156.623 214.567 156.097 215.177 155.722C215.787 155.347 216.501 155.159 217.319 155.159C218.137 155.159 218.851 155.347 219.461 155.722C220.071 156.097 220.544 156.623 220.881 157.301C221.218 157.979 221.387 158.771 221.387 159.676C221.387 160.578 221.218 161.366 220.881 162.04C220.544 162.714 220.071 163.239 219.461 163.614C218.851 163.989 218.137 164.176 217.319 164.176ZM217.324 162.75C217.855 162.75 218.294 162.61 218.643 162.33C218.991 162.049 219.249 161.676 219.415 161.21C219.586 160.744 219.671 160.231 219.671 159.67C219.671 159.114 219.586 158.602 219.415 158.136C219.249 157.667 218.991 157.29 218.643 157.006C218.294 156.722 217.855 156.58 217.324 156.58C216.79 156.58 216.347 156.722 215.995 157.006C215.646 157.29 215.387 157.667 215.217 158.136C215.05 158.602 214.967 159.114 214.967 159.67C214.967 160.231 215.05 160.744 215.217 161.21C215.387 161.676 215.646 162.049 215.995 162.33C216.347 162.61 216.79 162.75 217.324 162.75ZM222.963 164V155.273H224.594V156.693H224.702C224.884 156.212 225.181 155.837 225.594 155.568C226.007 155.295 226.501 155.159 227.077 155.159C227.66 155.159 228.149 155.295 228.543 155.568C228.941 155.841 229.234 156.216 229.424 156.693H229.514C229.723 156.227 230.054 155.856 230.509 155.58C230.963 155.299 231.505 155.159 232.134 155.159C232.925 155.159 233.571 155.407 234.071 155.903C234.575 156.4 234.827 157.148 234.827 158.148V164H233.128V158.307C233.128 157.716 232.967 157.288 232.645 157.023C232.323 156.758 231.939 156.625 231.492 156.625C230.939 156.625 230.509 156.795 230.202 157.136C229.895 157.473 229.742 157.907 229.742 158.438V164H228.049V158.199C228.049 157.725 227.901 157.345 227.605 157.057C227.31 156.769 226.925 156.625 226.452 156.625C226.13 156.625 225.833 156.71 225.56 156.881C225.291 157.047 225.073 157.28 224.906 157.58C224.744 157.879 224.662 158.225 224.662 158.619V164H222.963Z" fill="#182700"/>
<rect x="274" width="72" height="92" rx="16" fill="white"/>
<g clip-path="url(#clip1_1_2381)">
<path d="M321.652 43.7654C315.302 39.9945 304.828 39.6478 298.767 41.4875C297.793 41.783 296.764 41.2332 296.469 40.2601C296.174 39.2861 296.723 38.2574 297.697 37.9615C304.655 35.8494 316.222 36.2573 323.532 40.5965C324.408 41.1163 324.695 42.2471 324.176 43.1211C323.657 43.9966 322.525 44.2852 321.652 43.7654ZM321.444 49.3506C320.998 50.0735 320.053 50.3002 319.331 49.8564C314.037 46.6023 305.965 45.6597 299.702 47.5608C298.89 47.8062 298.032 47.3483 297.786 46.5377C297.541 45.7255 297.999 44.8692 298.81 44.6222C305.964 42.4512 314.858 43.5028 320.938 47.2392C321.66 47.6838 321.887 48.6294 321.444 49.3506ZM319.033 54.7145C318.679 55.295 317.923 55.4769 317.345 55.123C312.719 52.2959 306.897 51.6575 300.04 53.2236C299.379 53.3751 298.721 52.961 298.57 52.3003C298.419 51.6398 298.831 50.9812 299.494 50.8304C306.997 49.115 313.434 49.8533 318.626 53.026C319.205 53.3796 319.387 54.1358 319.033 54.7145ZM309.999 26.3023C299.12 26.3023 290.301 35.1216 290.301 46.0005C290.301 56.8807 299.12 65.6992 309.999 65.6992C320.879 65.6992 329.698 56.8807 329.698 46.0005C329.698 35.1216 320.879 26.3023 309.999 26.3023Z" fill="#1B1716"/>
</g>
<rect x="274" y="104" width="72" height="92" rx="16" fill="white"/>
<g clip-path="url(#clip2_1_2381)">
<path d="M322.557 137.53C322.557 140.973 319.766 143.765 316.323 143.765H309.926V131.295H316.323C319.766 131.295 322.557 134.086 322.557 137.53Z" stroke="black" stroke-width="3"/>
<path d="M297.295 137.53C297.295 140.973 300.086 143.765 303.53 143.765H309.927V131.295H303.53C300.086 131.295 297.295 134.086 297.295 137.53Z" stroke="black" stroke-width="3"/>
<path d="M297.295 150C297.295 153.444 300.086 156.235 303.53 156.235H309.927V143.766H303.53C300.086 143.766 297.295 146.557 297.295 150Z" stroke="black" stroke-width="3"/>
<path d="M297.295 162.469C297.295 165.912 300.127 168.704 303.57 168.704C307.058 168.704 309.927 165.876 309.927 162.388V156.234H303.53C300.086 156.234 297.295 159.026 297.295 162.469Z" stroke="black" stroke-width="3"/>
<path d="M309.926 150C309.926 153.444 312.717 156.235 316.161 156.235H316.323C319.766 156.235 322.557 153.444 322.557 150C322.557 146.557 319.766 143.766 316.323 143.766H316.161C312.717 143.766 309.926 146.557 309.926 150Z" stroke="black" stroke-width="3"/>
</g>
<defs>
<clipPath id="clip0_1_2381">
<rect width="32" height="32" fill="white" transform="translate(22 22)"/>
</clipPath>
<clipPath id="clip1_1_2381">
<rect width="40" height="40" fill="white" transform="translate(290 26)"/>
</clipPath>
<clipPath id="clip2_1_2381">
<rect width="27.8542" height="40" fill="white" transform="translate(296 130)"/>
</clipPath>
</defs>
</svg>
