  <svg
              width="329"
              height="283"
              viewBox="0 0 329 283"
              fill="none"
              xmlns="http://www.w3.org/2000/svg"
            >
              <g clip-path="url(#clip0_1_2002)">
                <rect
                  x="0.234375"
                  y="61.4434"
                  width="286.708"
                  height="226.768"
                  rx="20.9565"
                  transform="rotate(-12.3746 0.234375 61.4434)"
                  fill="white"
                />
                <g clip-path="url(#clip1_1_2002)">
                  <rect
                    x="25.195"
                    y="77.4219"
                    width="244.795"
                    height="65.2557"
                    rx="12.8067"
                    transform="rotate(-12.3746 25.195 77.4219)"
                    fill="#182700"
                  />
                  <path
                    d="M106.294 87.0879L104.175 87.5529L106.033 73.2752L108.34 72.7691L116.005 84.9572L113.886 85.4222L107.769 75.4138L107.665 75.4364L106.294 87.0879ZM105.512 81.8279L112.387 80.3196L112.756 81.9995L105.881 83.5079L105.512 81.8279ZM121.535 83.954C120.574 84.1648 119.699 84.1287 118.91 83.8458C118.125 83.5577 117.462 83.0687 116.922 82.3789C116.383 81.6891 116.004 80.8467 115.785 79.8517C115.564 78.8437 115.559 77.9126 115.769 77.0584C115.978 76.1998 116.379 75.4774 116.973 74.8911C117.566 74.3049 118.331 73.9092 119.265 73.7041C120.019 73.5387 120.722 73.5313 121.373 73.6818C122.024 73.828 122.585 74.1113 123.057 74.5315C123.532 74.9509 123.878 75.4868 124.093 76.1394L122.213 76.5519C122.008 76.1094 121.683 75.7608 121.239 75.5061C120.799 75.2504 120.271 75.1901 119.655 75.3253C119.117 75.4434 118.676 75.6891 118.333 76.0622C117.994 76.4301 117.77 76.8992 117.66 77.4696C117.55 78.0356 117.572 78.6719 117.727 79.3783C117.886 80.102 118.133 80.7025 118.468 81.1798C118.803 81.6571 119.202 81.9962 119.666 82.1969C120.134 82.3966 120.642 82.4365 121.189 82.3165C121.555 82.2361 121.872 82.0966 122.14 81.8979C122.411 81.6939 122.62 81.4426 122.767 81.144C122.918 80.8445 122.995 80.507 122.999 80.1315L124.879 79.719C124.951 80.3759 124.867 80.9947 124.629 81.5752C124.391 82.1558 124.01 82.6546 123.488 83.0717C122.97 83.4879 122.319 83.782 121.535 83.954ZM131.567 81.7529C130.606 81.9637 129.732 81.9276 128.943 81.6447C128.157 81.3565 127.495 80.8675 126.955 80.1778C126.415 79.488 126.036 78.6456 125.818 77.6505C125.597 76.6426 125.591 75.7115 125.801 74.8572C126.01 73.9987 126.411 73.2763 127.005 72.69C127.599 72.1037 128.363 71.7081 129.298 71.503C130.052 71.3376 130.754 71.3301 131.406 71.4807C132.057 71.6269 132.618 71.9101 133.089 72.3304C133.565 72.7498 133.911 73.2857 134.126 73.9383L132.246 74.3508C132.04 73.9083 131.715 73.5596 131.271 73.3049C130.831 73.0493 130.303 72.989 129.687 73.1241C129.149 73.2423 128.709 73.4879 128.366 73.8611C128.027 74.2289 127.802 74.6981 127.693 75.2684C127.582 75.8345 127.604 76.4707 127.759 77.1772C127.918 77.9008 128.165 78.5013 128.5 78.9787C128.835 79.456 129.234 79.795 129.698 79.9957C130.167 80.1955 130.674 80.2354 131.221 80.1153C131.587 80.035 131.905 79.8955 132.172 79.6967C132.444 79.4927 132.653 79.2414 132.799 78.9429C132.95 78.6434 133.028 78.3059 133.031 77.9304L134.911 77.5179C134.983 78.1748 134.9 78.7936 134.662 79.3741C134.423 79.9546 134.043 80.4535 133.52 80.8706C133.002 81.2868 132.351 81.5809 131.567 81.7529ZM141.6 79.5518C140.669 79.7559 139.81 79.7208 139.023 79.4465C138.236 79.1722 137.567 78.6938 137.015 78.0111C136.464 77.3285 136.075 76.4746 135.851 75.4494C135.625 74.4199 135.619 73.4775 135.833 72.6224C136.047 71.7672 136.454 71.0503 137.054 70.4717C137.654 69.8931 138.419 69.5017 139.35 69.2976C140.28 69.0934 141.139 69.1285 141.926 69.4028C142.713 69.6771 143.383 70.1577 143.936 70.8447C144.488 71.5316 144.877 72.3898 145.103 73.4193C145.328 74.4446 145.333 75.3826 145.118 76.2334C144.903 77.0843 144.495 77.799 143.895 78.3777C143.295 78.9563 142.53 79.3476 141.6 79.5518ZM141.25 77.9285C141.853 77.7962 142.318 77.5272 142.644 77.1215C142.971 76.7158 143.171 76.2272 143.244 75.6558C143.321 75.0835 143.29 74.4785 143.15 73.841C143.012 73.2078 142.787 72.6475 142.477 72.1602C142.17 71.6677 141.783 71.3033 141.316 71.0672C140.849 70.8311 140.314 70.7792 139.711 70.9115C139.103 71.0448 138.635 71.3169 138.305 71.7278C137.98 72.1378 137.779 72.6312 137.702 73.2079C137.629 73.7793 137.662 74.3816 137.8 75.0148C137.94 75.6523 138.163 76.2152 138.469 76.7035C138.779 77.1908 139.167 77.5503 139.633 77.7821C140.104 78.013 140.643 78.0618 141.25 77.9285ZM153.431 72.432L152.157 66.6232L154.095 66.1979L156.273 76.1226L154.373 76.5393L153.996 74.8206L153.893 74.8433C153.781 75.4232 153.511 75.9451 153.085 76.4089C152.662 76.8674 152.077 77.1784 151.332 77.3419C150.695 77.4818 150.1 77.4656 149.547 77.2934C148.998 77.1159 148.523 76.78 148.121 76.2857C147.723 75.7905 147.434 75.1337 147.255 74.3153L145.87 68.0025L147.802 67.5787L149.136 73.6588C149.284 74.3351 149.59 74.8324 150.052 75.1508C150.515 75.4692 151.046 75.5627 151.644 75.4313C152.006 75.352 152.346 75.1826 152.664 74.9232C152.986 74.6629 153.225 74.3237 153.382 73.9056C153.543 73.4865 153.559 72.9953 153.431 72.432ZM159.216 69.3003L160.509 75.193L158.577 75.6169L156.4 65.6922L158.254 65.2854L158.609 66.9007L158.732 66.8738C158.845 66.2982 159.109 65.7976 159.526 65.372C159.947 64.9455 160.531 64.6505 161.276 64.487C161.952 64.3387 162.576 64.3509 163.146 64.5236C163.716 64.6921 164.202 65.0235 164.604 65.5177C165.006 66.012 165.296 66.6683 165.476 67.4867L166.861 73.7995L164.929 74.2234L163.595 68.1432C163.437 67.4239 163.126 66.9028 162.663 66.5801C162.198 66.2531 161.639 66.1615 160.984 66.3051C160.536 66.4034 160.159 66.5878 159.852 66.8581C159.55 67.1276 159.339 67.4719 159.219 67.8911C159.102 68.305 159.101 68.7747 159.216 69.3003ZM171.616 62.3538L171.956 63.9045L166.535 65.0939L166.195 63.5432L171.616 62.3538ZM167.127 60.8465L169.059 60.4226L171.119 69.8109C171.201 70.1857 171.319 70.4556 171.473 70.6205C171.625 70.7812 171.797 70.8766 171.989 70.9068C172.184 70.9317 172.387 70.921 172.598 70.8747C172.753 70.8407 172.887 70.8001 172.998 70.7531C173.11 70.706 173.197 70.6689 173.258 70.6418L173.957 72.1612C173.855 72.2289 173.705 72.3069 173.508 72.3954C173.311 72.4881 173.059 72.5707 172.749 72.643C172.243 72.7632 171.749 72.7767 171.268 72.6835C170.787 72.5904 170.368 72.3754 170.009 72.0387C169.651 71.7019 169.406 71.2342 169.275 70.6354L167.127 60.8465ZM188.096 55.2706L190.999 68.5035L189.164 68.9061L180.309 60.6769L180.186 60.7038L182.315 70.4088L180.319 70.8468L177.416 57.614L179.263 57.2085L188.128 65.4492L188.251 65.4223L186.119 55.7044L188.096 55.2706ZM198.85 62.4672L197.575 56.6584L199.514 56.2331L201.691 66.1578L199.791 66.5745L199.414 64.8558L199.311 64.8785C199.199 65.4584 198.93 65.9803 198.503 66.4441C198.08 66.9026 197.496 67.2136 196.751 67.3771C196.113 67.517 195.518 67.5008 194.966 67.3286C194.416 67.1511 193.941 66.8152 193.539 66.3209C193.141 65.8257 192.853 65.1689 192.673 64.3505L191.288 58.0377L193.22 57.6139L194.554 63.694C194.703 64.3703 195.008 64.8676 195.471 65.186C195.933 65.5044 196.464 65.5979 197.063 65.4665C197.425 65.3872 197.765 65.2178 198.082 64.9584C198.404 64.6981 198.644 64.3589 198.8 63.9408C198.961 63.5217 198.978 63.0305 198.85 62.4672ZM203.996 65.6521L201.818 55.7274L203.673 55.3206L204.027 56.9359L204.15 56.909C204.237 56.3166 204.481 55.8159 204.884 55.4071C205.285 54.9939 205.813 54.7155 206.468 54.5719C207.131 54.4263 207.721 54.4595 208.237 54.6713C208.757 54.8822 209.185 55.2354 209.519 55.7309L209.623 55.7083C209.743 55.1265 210.028 54.6216 210.476 54.1938C210.923 53.7616 211.504 53.4671 212.219 53.3102C213.119 53.1127 213.915 53.2337 214.608 53.6732C215.304 54.1118 215.777 54.8997 216.027 56.0369L217.487 62.6921L215.555 63.116L214.135 56.6417C213.987 55.9697 213.697 55.5231 213.265 55.3019C212.833 55.0807 212.362 55.0259 211.854 55.1374C211.225 55.2754 210.779 55.5765 210.515 56.0407C210.25 56.5006 210.184 57.0321 210.316 57.6352L211.704 63.9609L209.779 64.3833L208.331 57.7863C208.213 57.2478 207.95 56.8518 207.542 56.5981C207.135 56.3445 206.661 56.2767 206.123 56.3948C205.757 56.4752 205.44 56.6463 205.172 56.9082C204.908 57.1648 204.719 57.4841 204.604 57.8659C204.493 58.2469 204.487 58.6613 204.585 59.1093L205.928 65.2282L203.996 65.6521ZM219.94 62.1538L217.037 48.921L218.969 48.4971L220.048 53.4142L220.164 53.3887C220.231 53.1573 220.34 52.8828 220.491 52.5651C220.643 52.2475 220.884 51.9463 221.214 51.6616C221.544 51.3726 222.016 51.1605 222.632 51.0254C223.434 50.8496 224.193 50.8952 224.911 51.1621C225.629 51.429 226.25 51.9045 226.775 52.5885C227.304 53.2716 227.686 54.1494 227.921 55.222C228.157 56.2946 228.18 57.2534 227.99 58.0986C227.8 58.9395 227.438 59.6352 226.904 60.1858C226.369 60.7321 225.701 61.0931 224.9 61.2689C224.297 61.4012 223.782 61.4082 223.354 61.2898C222.93 61.1705 222.581 60.9988 222.306 60.7747C222.031 60.5506 221.812 60.3457 221.65 60.1602L221.488 60.1956L221.827 61.7399L219.94 62.1538ZM220.745 56.7761C220.898 57.474 221.133 58.0634 221.451 58.5445C221.769 59.0257 222.152 59.3728 222.601 59.5859C223.048 59.7947 223.55 59.8381 224.106 59.7162C224.683 59.5896 225.132 59.3308 225.452 58.9399C225.772 58.5447 225.973 58.0604 226.055 57.4871C226.141 56.9129 226.111 56.2941 225.966 55.6307C225.822 54.976 225.594 54.4097 225.281 53.932C224.973 53.4533 224.59 53.1062 224.132 52.8906C223.678 52.6742 223.16 52.6297 222.579 52.7573C222.019 52.8802 221.577 53.1284 221.252 53.5021C220.932 53.8748 220.73 54.3414 220.645 54.9018C220.56 55.4621 220.594 56.0869 220.745 56.7761ZM235.205 59.0147C234.228 59.2292 233.34 59.205 232.541 58.9422C231.747 58.6741 231.074 58.2009 230.523 57.5226C229.976 56.839 229.589 55.9824 229.364 54.9529C229.141 53.9363 229.134 52.9988 229.342 52.1402C229.556 51.2808 229.957 50.5584 230.547 49.973C231.14 49.3868 231.898 48.9925 232.82 48.7902C233.38 48.6674 233.943 48.6409 234.509 48.7108C235.075 48.7808 235.611 48.968 236.116 49.2727C236.62 49.5773 237.063 50.0197 237.443 50.6C237.822 51.176 238.111 51.9141 238.308 52.8144L238.458 53.4993L230.569 55.2303L230.251 53.7829L236.248 52.4674C236.136 51.9591 235.934 51.5316 235.641 51.185C235.347 50.834 234.988 50.5855 234.563 50.4395C234.143 50.2924 233.683 50.2737 233.183 50.3834C232.64 50.5024 232.196 50.7399 231.849 51.0958C231.506 51.4465 231.272 51.8592 231.146 52.3338C231.023 52.8032 231.016 53.2856 231.125 53.781L231.373 54.9117C231.518 55.5751 231.758 56.1138 232.093 56.528C232.432 56.9413 232.84 57.2243 233.316 57.3772C233.791 57.5259 234.31 57.5383 234.875 57.4144C235.241 57.3341 235.563 57.2092 235.842 57.0396C236.12 56.8658 236.346 56.6492 236.519 56.39C236.692 56.1307 236.803 55.8332 236.851 55.4976L238.752 55.4259C238.724 55.9965 238.565 56.5258 238.275 57.0139C237.988 57.4967 237.584 57.9125 237.065 58.2613C236.549 58.6048 235.929 58.8559 235.205 59.0147ZM241.272 57.4737L239.094 47.5491L240.962 47.1394L241.308 48.7159L241.411 48.6933C241.475 48.1194 241.701 47.6295 242.091 47.2235C242.484 46.8122 242.971 46.5428 243.552 46.4152C243.673 46.3887 243.816 46.3619 243.982 46.3346C244.152 46.3063 244.285 46.2883 244.383 46.2804L244.788 48.1283C244.706 48.1238 244.563 48.1304 244.359 48.148C244.155 48.1613 243.953 48.1897 243.755 48.2332C243.298 48.3334 242.913 48.5196 242.598 48.7919C242.286 49.0589 242.064 49.3853 241.932 49.7709C241.799 50.1523 241.78 50.5583 241.874 50.9891L243.204 57.0498L241.272 57.4737Z"
                    fill="white"
                  />
                  <path
                    d="M111.811 112.229C111.457 112.306 111.126 112.248 110.817 112.054C110.507 111.855 110.313 111.577 110.235 111.22C110.157 110.867 110.218 110.537 110.417 110.232C110.616 109.922 110.892 109.728 111.245 109.651C111.598 109.573 111.93 109.633 112.24 109.832C112.549 110.026 112.742 110.3 112.819 110.653C112.871 110.89 112.859 111.121 112.782 111.345C112.708 111.564 112.587 111.754 112.418 111.912C112.25 112.071 112.047 112.177 111.811 112.229ZM116.672 111.162C116.319 111.239 115.988 111.181 115.679 110.987C115.369 110.789 115.175 110.511 115.097 110.153C115.019 109.8 115.08 109.471 115.279 109.165C115.478 108.855 115.753 108.661 116.107 108.584C116.46 108.506 116.791 108.567 117.101 108.765C117.41 108.959 117.604 109.233 117.681 109.586C117.733 109.823 117.72 110.054 117.643 110.278C117.57 110.498 117.449 110.687 117.28 110.846C117.112 111.005 116.909 111.11 116.672 111.162ZM121.534 110.095C121.181 110.173 120.85 110.114 120.541 109.92C120.231 109.722 120.037 109.444 119.958 109.087C119.881 108.733 119.942 108.404 120.141 108.098C120.34 107.788 120.615 107.595 120.969 107.517C121.322 107.44 121.653 107.5 121.963 107.699C122.272 107.893 122.465 108.166 122.543 108.519C122.595 108.756 122.582 108.987 122.505 109.212C122.431 109.431 122.31 109.62 122.142 109.779C121.974 109.938 121.771 110.043 121.534 110.095ZM126.396 109.029C126.043 109.106 125.712 109.048 125.403 108.854C125.093 108.655 124.899 108.377 124.82 108.02C124.743 107.667 124.804 107.337 125.003 107.032C125.201 106.722 125.477 106.528 125.83 106.45C126.184 106.373 126.515 106.433 126.825 106.632C127.134 106.826 127.327 107.1 127.405 107.453C127.457 107.69 127.444 107.92 127.367 108.145C127.293 108.364 127.172 108.554 127.004 108.712C126.836 108.871 126.633 108.977 126.396 109.029ZM131.258 107.962C130.905 108.039 130.573 107.981 130.265 107.787C129.955 107.589 129.76 107.311 129.682 106.953C129.604 106.6 129.665 106.271 129.865 105.965C130.063 105.655 130.339 105.461 130.692 105.384C131.045 105.306 131.377 105.367 131.687 105.565C131.996 105.759 132.189 106.033 132.267 106.386C132.319 106.623 132.306 106.854 132.229 107.078C132.155 107.298 132.034 107.487 131.866 107.646C131.697 107.805 131.495 107.91 131.258 107.962ZM136.12 106.895C135.766 106.973 135.435 106.914 135.126 106.72C134.816 106.522 134.622 106.244 134.544 105.886C134.466 105.533 134.527 105.204 134.727 104.898C134.925 104.588 135.201 104.395 135.554 104.317C135.907 104.24 136.239 104.3 136.549 104.498C136.858 104.693 137.051 104.966 137.128 105.319C137.18 105.556 137.168 105.787 137.091 106.012C137.017 106.231 136.896 106.42 136.727 106.579C136.559 106.738 136.357 106.843 136.12 106.895ZM140.981 105.829C140.628 105.906 140.297 105.848 139.988 105.654C139.678 105.455 139.484 105.177 139.406 104.82C139.328 104.467 139.389 104.137 139.588 103.832C139.787 103.522 140.063 103.328 140.416 103.25C140.769 103.173 141.101 103.233 141.41 103.432C141.719 103.626 141.913 103.9 141.99 104.253C142.042 104.49 142.03 104.72 141.952 104.945C141.879 105.164 141.758 105.353 141.589 105.512C141.421 105.671 141.218 105.777 140.981 105.829ZM145.843 104.762C145.49 104.839 145.159 104.781 144.85 104.587C144.54 104.389 144.346 104.111 144.267 103.753C144.19 103.4 144.251 103.07 144.45 102.765C144.649 102.455 144.924 102.261 145.278 102.184C145.631 102.106 145.962 102.167 146.272 102.365C146.581 102.559 146.774 102.833 146.852 103.186C146.904 103.423 146.891 103.654 146.814 103.878C146.74 104.098 146.619 104.287 146.451 104.446C146.283 104.604 146.08 104.71 145.843 104.762ZM150.705 103.695C150.352 103.773 150.021 103.714 149.712 103.52C149.402 103.322 149.208 103.044 149.129 102.686C149.052 102.333 149.113 102.004 149.312 101.698C149.51 101.388 149.786 101.195 150.139 101.117C150.493 101.04 150.824 101.1 151.134 101.298C151.443 101.492 151.636 101.766 151.714 102.119C151.766 102.356 151.753 102.587 151.676 102.812C151.602 103.031 151.481 103.22 151.313 103.379C151.145 103.538 150.942 103.643 150.705 103.695ZM155.567 102.628C155.214 102.706 154.883 102.648 154.574 102.454C154.264 102.255 154.07 101.977 153.991 101.62C153.914 101.267 153.974 100.937 154.174 100.631C154.372 100.322 154.648 100.128 155.001 100.05C155.354 99.9729 155.686 100.033 155.996 100.232C156.305 100.426 156.498 100.699 156.576 101.053C156.628 101.29 156.615 101.52 156.538 101.745C156.464 101.964 156.343 102.153 156.175 102.312C156.006 102.471 155.804 102.576 155.567 102.628ZM160.429 101.562C160.075 101.639 159.744 101.581 159.435 101.387C159.126 101.189 158.931 100.911 158.853 100.553C158.775 100.2 158.836 99.8704 159.036 99.5648C159.234 99.2549 159.51 99.0612 159.863 98.9837C160.216 98.9062 160.548 98.9667 160.858 99.165C161.167 99.3591 161.36 99.6328 161.437 99.986C161.489 100.223 161.477 100.454 161.4 100.678C161.326 100.898 161.205 101.087 161.037 101.246C160.868 101.404 160.666 101.51 160.429 101.562ZM165.29 100.495C164.937 100.573 164.606 100.514 164.297 100.32C163.987 100.122 163.793 99.8439 163.715 99.4864C163.637 99.1331 163.698 98.8037 163.897 98.4981C164.096 98.1882 164.372 97.9945 164.725 97.917C165.078 97.8395 165.41 97.9 165.72 98.0984C166.029 98.2924 166.222 98.5661 166.299 98.9193C166.351 99.1562 166.339 99.387 166.262 99.6116C166.188 99.831 166.067 100.02 165.898 100.179C165.73 100.338 165.527 100.443 165.29 100.495ZM170.152 99.4284C169.799 99.5059 169.468 99.4476 169.159 99.2536C168.849 99.0552 168.655 98.7772 168.577 98.4197C168.499 98.0665 168.56 97.7371 168.759 97.4315C168.958 97.1215 169.233 96.9278 169.587 96.8503C169.94 96.7728 170.271 96.8333 170.581 97.0317C170.89 97.2258 171.084 97.4994 171.161 97.8526C171.213 98.0895 171.2 98.3203 171.123 98.5449C171.05 98.7643 170.928 98.9534 170.76 99.1122C170.592 99.271 170.389 99.3765 170.152 99.4284ZM174.206 84.5404L177.11 97.7733L175.107 98.2128L172.643 86.9829L172.565 86.9999L169.853 89.7622L169.433 87.8496L172.262 84.9671L174.206 84.5404ZM181.855 82.6726C182.447 82.5474 183.052 82.5275 183.671 82.6129C184.29 82.6983 184.883 82.9295 185.448 83.3065C186.019 83.6826 186.531 84.2474 186.985 85.0011C187.443 85.7495 187.806 86.7263 188.075 87.9314C188.329 89.0902 188.439 90.1474 188.405 91.103C188.37 92.0543 188.203 92.8878 187.904 93.6036C187.609 94.3184 187.189 94.9049 186.644 95.3631C186.099 95.8213 185.441 96.135 184.67 96.3042C183.882 96.4771 183.148 96.4756 182.468 96.2997C181.788 96.1237 181.197 95.8043 180.693 95.3413C180.189 94.8741 179.811 94.2933 179.559 93.5991L181.53 93.1667C181.784 93.7069 182.148 94.1102 182.622 94.3765C183.099 94.6375 183.654 94.6985 184.287 94.5596C185.257 94.347 185.92 93.759 186.277 92.7956C186.634 91.8279 186.648 90.5833 186.318 89.0618L186.215 89.0845C186.072 89.5041 185.862 89.8843 185.585 90.2251C185.312 90.5649 184.984 90.8534 184.603 91.0906C184.222 91.3278 183.796 91.4979 183.327 91.6009C182.564 91.7682 181.83 91.733 181.123 91.4952C180.416 91.2575 179.806 90.8519 179.291 90.2784C178.777 89.705 178.428 88.9982 178.244 88.1583C178.06 87.3226 178.084 86.5229 178.313 85.7591C178.547 84.9944 178.963 84.3388 179.561 83.7922C180.163 83.2404 180.927 82.8672 181.855 82.6726ZM182.23 84.3511C181.726 84.4617 181.299 84.6863 180.949 85.025C180.603 85.3584 180.359 85.7617 180.219 86.2349C180.078 86.7038 180.064 87.1945 180.177 87.7071C180.289 88.2197 180.503 88.6604 180.819 89.0291C181.138 89.3925 181.52 89.654 181.966 89.8135C182.415 89.9678 182.894 89.9892 183.402 89.8777C183.781 89.7945 184.119 89.6438 184.414 89.4255C184.709 89.2072 184.951 88.9419 185.14 88.6296C185.328 88.3129 185.454 87.9737 185.519 87.6117C185.584 87.2498 185.577 86.8858 185.496 86.5196C185.39 86.0329 185.174 85.6061 184.85 85.2393C184.53 84.8715 184.142 84.6045 183.685 84.4383C183.228 84.2677 182.743 84.2387 182.23 84.3511ZM196.186 93.7777C195.259 93.9809 194.406 94.0011 193.625 93.8383C192.849 93.6745 192.199 93.3566 191.676 92.8845C191.152 92.4124 190.814 91.8183 190.661 91.1023C190.534 90.5433 190.536 90.0035 190.665 89.4829C190.798 88.9571 191.033 88.4926 191.368 88.0893C191.703 87.6817 192.111 87.38 192.592 87.1842L192.575 87.1067C191.881 87.0919 191.276 86.8544 190.76 86.3943C190.243 85.9342 189.909 85.3483 189.758 84.6366C189.605 83.9613 189.651 83.319 189.897 82.7098C190.146 82.0953 190.556 81.5652 191.126 81.1195C191.696 80.6738 192.389 80.3616 193.203 80.183C194.008 80.0063 194.762 80.0035 195.463 80.1747C196.168 80.3407 196.762 80.6506 197.245 81.1044C197.727 81.5539 198.044 82.1141 198.196 82.7852C198.348 83.4969 198.283 84.1702 198.003 84.8052C197.722 85.4401 197.278 85.9077 196.672 86.2079L196.689 86.2854C197.203 86.2629 197.693 86.3675 198.159 86.5993C198.629 86.8259 199.034 87.1501 199.375 87.572C199.719 87.9886 199.955 88.4764 200.082 89.0354C200.235 89.7514 200.172 90.4334 199.894 91.0812C199.617 91.7291 199.157 92.2904 198.517 92.7651C197.88 93.2389 197.103 93.5764 196.186 93.7777ZM195.827 92.143C196.374 92.0229 196.828 91.8285 197.189 91.5597C197.549 91.2866 197.803 90.9622 197.951 90.5867C198.097 90.2068 198.124 89.7945 198.031 89.3499C197.926 88.8899 197.716 88.5093 197.402 88.2081C197.092 87.9059 196.714 87.6975 196.269 87.583C195.824 87.4684 195.343 87.4678 194.826 87.5812C194.305 87.6956 193.864 87.8984 193.503 88.1897C193.143 88.481 192.885 88.8288 192.73 89.233C192.575 89.6373 192.55 90.0694 192.656 90.5294C192.749 90.974 192.939 91.3385 193.227 91.623C193.519 91.9021 193.887 92.0899 194.333 92.1863C194.778 92.2784 195.275 92.2639 195.827 92.143ZM194.476 85.9853C194.915 85.8889 195.286 85.7151 195.587 85.4638C195.889 85.2125 196.102 84.9084 196.227 84.5514C196.356 84.1935 196.376 83.803 196.288 83.3799C196.193 82.9673 196.015 82.6272 195.753 82.3596C195.495 82.091 195.178 81.9101 194.801 81.8167C194.423 81.7191 194.009 81.7194 193.562 81.8177C193.105 81.9179 192.723 82.0919 192.416 82.3398C192.113 82.5825 191.9 82.8797 191.779 83.2314C191.658 83.5831 191.644 83.9653 191.739 84.3779C191.828 84.801 192.003 85.1485 192.266 85.4204C192.529 85.6923 192.85 85.8793 193.229 85.9812C193.612 86.0822 194.028 86.0836 194.476 85.9853ZM204.337 77.7401C204.928 77.615 205.533 77.5951 206.152 77.6804C206.772 77.7658 207.364 77.997 207.93 78.374C208.5 78.7501 209.012 79.315 209.467 80.0686C209.924 80.817 210.288 81.7938 210.557 82.999C210.811 84.1577 210.921 85.2149 210.887 86.1705C210.852 87.1218 210.685 87.9554 210.386 88.6711C210.091 89.3859 209.671 89.9724 209.126 90.4306C208.581 90.8888 207.923 91.2025 207.152 91.3717C206.363 91.5447 205.629 91.5432 204.95 91.3672C204.27 91.1913 203.678 90.8718 203.175 90.4089C202.671 89.9416 202.293 89.3609 202.041 88.6666L204.012 88.2342C204.266 88.7745 204.63 89.1777 205.103 89.444C205.581 89.705 206.136 89.7661 206.769 89.6271C207.738 89.4145 208.402 88.8265 208.759 87.8631C209.116 86.8955 209.129 85.6509 208.8 84.1293L208.697 84.152C208.554 84.5716 208.344 84.9518 208.066 85.2926C207.793 85.6324 207.466 85.9209 207.085 86.1581C206.703 86.3953 206.278 86.5654 205.808 86.6684C205.046 86.8357 204.311 86.8005 203.604 86.5628C202.898 86.325 202.287 85.9194 201.773 85.346C201.259 84.7725 200.91 84.0658 200.725 83.2258C200.542 82.3901 200.565 81.5904 200.795 80.8266C201.029 80.0619 201.445 79.4063 202.043 78.8597C202.644 78.3079 203.409 77.9347 204.337 77.7401ZM204.712 79.4187C204.208 79.5293 203.781 79.7539 203.431 80.0926C203.084 80.426 202.841 80.8293 202.701 81.3025C202.56 81.7713 202.546 82.2621 202.658 82.7747C202.771 83.2873 202.985 83.7279 203.3 84.0966C203.619 84.46 204.002 84.7215 204.448 84.8811C204.897 85.0353 205.376 85.0567 205.884 84.9452C206.263 84.862 206.6 84.7113 206.895 84.493C207.191 84.2747 207.433 84.0094 207.622 83.6971C207.809 83.3805 207.936 83.0412 208.001 82.6793C208.066 82.3173 208.058 81.9533 207.978 81.5872C207.871 81.1004 207.656 80.6736 207.331 80.3068C207.011 79.9391 206.623 79.6721 206.167 79.5058C205.71 79.3353 205.225 79.3062 204.712 79.4187Z"
                    fill="white"
                  />
                  <g clip-path="url(#clip2_1_2002)">
                    <path
                      d="M84.5231 87.0493L57.2303 93.0374C56.6023 93.1752 56.2048 93.796 56.3426 94.4241L57.0911 97.8357C57.2289 98.4637 57.8498 98.8612 58.4778 98.7234L85.7706 92.7353C86.3987 92.5975 86.7961 91.9767 86.6583 91.3486L85.9098 87.937C85.772 87.309 85.1512 86.9115 84.5231 87.0493Z"
                      stroke="white"
                      stroke-width="2.3285"
                      stroke-linecap="round"
                      stroke-linejoin="round"
                    />
                    <path
                      d="M84.6311 92.9853L87.6251 106.632C87.6912 106.933 87.6349 107.249 87.4684 107.509C87.3019 107.769 87.039 107.952 86.7374 108.018L63.9934 113.008C63.6918 113.075 63.3762 113.018 63.1162 112.852C62.8561 112.685 62.6728 112.422 62.6067 112.121L59.6126 98.4744"
                      stroke="white"
                      stroke-width="2.3285"
                      stroke-linecap="round"
                      stroke-linejoin="round"
                    />
                    <path
                      d="M69.9564 102.166L76.7796 100.669"
                      stroke="white"
                      stroke-width="2.3285"
                      stroke-linecap="round"
                      stroke-linejoin="round"
                    />
                  </g>
                </g>
                <path
                  d="M50.403 173.179L54.0321 189.72L52.0291 190.16L48.4 173.619L50.403 173.179ZM57.6947 181.095L59.332 188.557L57.4259 188.976L54.7041 176.57L56.5456 176.166L56.9709 178.104L57.1324 178.069C57.2849 177.375 57.6154 176.772 58.1238 176.26C58.6311 175.742 59.3531 175.38 60.29 175.175C61.13 174.991 61.9028 175.002 62.6084 175.208C63.3128 175.409 63.9162 175.818 64.4186 176.436C64.9198 177.049 65.2861 177.883 65.5177 178.938L67.2472 186.821L65.3411 187.239L63.6399 179.485C63.4261 178.511 63.0065 177.807 62.381 177.374C61.7544 176.936 60.9995 176.814 60.1165 177.008C59.508 177.141 58.9931 177.392 58.5718 177.761C58.1559 178.129 57.8661 178.596 57.7026 179.163C57.539 179.729 57.5364 180.373 57.6947 181.095ZM75.4629 185.289C74.2999 185.544 73.2381 185.489 72.2777 185.125C71.3172 184.76 70.5051 184.145 69.8413 183.28C69.1776 182.416 68.7098 181.364 68.4381 180.126C68.1617 178.866 68.1493 177.703 68.4009 176.638C68.6567 175.566 69.1422 174.666 69.8575 173.939C70.577 173.206 71.4967 172.716 72.6166 172.47C73.4889 172.279 74.3105 172.268 75.0814 172.438C75.8522 172.607 76.5249 172.934 77.0994 173.417C77.6739 173.901 78.1001 174.518 78.3779 175.27L76.4718 175.688C76.2023 175.155 75.7694 174.725 75.173 174.398C74.5807 174.066 73.8646 173.991 73.0246 174.176C72.2816 174.339 71.6726 174.675 71.1977 175.186C70.7269 175.69 70.4122 176.326 70.2535 177.095C70.099 177.857 70.1245 178.706 70.33 179.643C70.5403 180.601 70.8742 181.403 71.3317 182.047C71.7945 182.691 72.3464 183.148 72.9872 183.42C73.6334 183.69 74.3334 183.742 75.0873 183.577C75.5826 183.468 76.0133 183.283 76.3794 183.023C76.7454 182.762 77.033 182.439 77.2421 182.054C77.4512 181.67 77.5654 181.239 77.5846 180.76L79.4907 180.342C79.5437 181.098 79.4219 181.816 79.1253 182.496C78.8328 183.17 78.3772 183.755 77.7582 184.252C77.1434 184.743 76.3783 185.088 75.4629 185.289ZM87.8037 182.582C86.6837 182.827 85.6426 182.776 84.6803 182.429C83.7233 182.08 82.9028 181.478 82.2187 180.624C81.54 179.768 81.06 178.7 80.7789 177.418C80.4953 176.126 80.4821 174.946 80.7391 173.88C81.0014 172.812 81.4941 171.92 82.2171 171.202C82.9456 170.484 83.8697 170.002 84.9897 169.756C86.1097 169.51 87.1481 169.562 88.1051 169.91C89.0674 170.258 89.8885 170.862 90.5684 171.723C91.2537 172.583 91.7381 173.659 92.0216 174.952C92.3028 176.233 92.3116 177.405 92.0481 178.467C91.7899 179.529 91.2966 180.418 90.5682 181.137C89.8452 181.854 88.9237 182.336 87.8037 182.582ZM87.428 180.869C88.2788 180.683 88.9309 180.311 89.3844 179.754C89.838 179.198 90.1187 178.535 90.2266 177.766C90.3345 176.998 90.2975 176.199 90.1155 175.37C89.9336 174.541 89.6322 173.797 89.2112 173.139C88.7902 172.48 88.2567 171.991 87.6106 171.67C86.9645 171.349 86.2161 171.281 85.3654 171.468C84.5146 171.655 83.8631 172.029 83.4107 172.591C82.9584 173.153 82.6789 173.821 82.5721 174.595C82.4654 175.369 82.503 176.171 82.685 177C82.8669 177.829 83.1677 178.57 83.5875 179.223C84.0073 179.876 84.5396 180.36 85.1845 180.676C85.8295 180.991 86.5773 181.056 87.428 180.869ZM95.9141 180.531L93.1923 168.125L95.0338 167.721L95.459 169.66L95.6206 169.624C95.7337 168.905 96.0382 168.3 96.534 167.807C97.0286 167.309 97.6798 166.972 98.4875 166.794C99.3059 166.615 100.028 166.651 100.653 166.903C101.283 167.149 101.824 167.569 102.276 168.164L102.405 168.136C102.582 167.425 102.947 166.812 103.5 166.296C104.051 165.774 104.771 165.416 105.66 165.221C106.769 164.977 107.752 165.126 108.61 165.666C109.467 166.2 110.055 167.197 110.375 168.656L112.197 176.959L110.291 177.377L108.469 169.074C108.268 168.159 107.874 167.56 107.287 167.276C106.7 166.993 106.068 166.926 105.389 167.075C104.517 167.266 103.899 167.678 103.536 168.311C103.171 168.939 103.077 169.653 103.253 170.456L105.025 178.532L103.086 178.958L101.222 170.461C101.067 169.756 100.714 169.238 100.162 168.907C99.6083 168.572 98.9708 168.483 98.2493 168.641C97.7539 168.75 97.3198 168.984 96.9469 169.342C96.5794 169.699 96.3152 170.141 96.1541 170.667C95.9972 171.187 95.9856 171.751 96.1191 172.359L97.8202 180.113L95.9141 180.531ZM120.576 175.391C119.381 175.654 118.292 175.616 117.309 175.279C116.331 174.934 115.503 174.337 114.825 173.487C114.152 172.63 113.676 171.566 113.397 170.296C113.118 169.025 113.104 167.854 113.354 166.783C113.609 165.706 114.094 164.804 114.809 164.077C115.529 163.343 116.448 162.854 117.568 162.608C118.214 162.466 118.876 162.434 119.553 162.511C120.231 162.588 120.881 162.812 121.504 163.184C122.126 163.549 122.677 164.094 123.158 164.819C123.638 165.543 124.006 166.484 124.26 167.641L124.437 168.449L114.874 170.547L114.513 168.9L122.137 167.227C121.983 166.527 121.706 165.933 121.306 165.445C120.911 164.956 120.423 164.609 119.841 164.403C119.266 164.197 118.633 164.169 117.944 164.32C117.185 164.487 116.569 164.819 116.097 165.318C115.63 165.81 115.313 166.387 115.148 167.05C114.983 167.713 114.976 168.386 115.126 169.07L115.367 170.168C115.572 171.105 115.908 171.864 116.374 172.445C116.844 173.019 117.407 173.411 118.063 173.623C118.718 173.829 119.43 173.848 120.2 173.679C120.701 173.569 121.138 173.4 121.511 173.171C121.889 172.936 122.194 172.643 122.427 172.293C122.66 171.937 122.81 171.526 122.877 171.06L124.831 171.173C124.775 171.84 124.569 172.461 124.216 173.035C123.861 173.604 123.376 174.094 122.761 174.506C122.144 174.912 121.416 175.207 120.576 175.391Z"
                  fill="#14191F"
                  fill-opacity="0.64"
                />
                <path
                  d="M76.2356 248.331L67.6164 209.046L70.1331 208.494L78.7523 247.779L76.2356 248.331ZM77.6324 220.022C77.1951 218.713 76.3626 217.802 75.1348 217.288C73.9172 216.773 72.4644 216.7 70.7763 217.07C69.5896 217.331 68.6109 217.733 67.8404 218.278C67.0698 218.822 66.5268 219.45 66.2113 220.163C65.8958 220.876 65.8194 221.627 65.982 222.417C66.1257 223.072 66.3986 223.607 66.8008 224.023C67.2132 224.436 67.7173 224.754 68.3131 224.978C68.9067 225.19 69.5453 225.34 70.229 225.426C70.9127 225.512 71.5936 225.561 72.2718 225.573L75.3798 225.663C76.6271 225.679 77.8497 225.802 79.0477 226.032C80.2558 226.26 81.3732 226.637 82.3999 227.163C83.4369 227.686 84.3222 228.398 85.056 229.298C85.7897 230.199 86.3058 231.329 86.6044 232.69C87.0084 234.531 86.8935 236.256 86.2598 237.864C85.6239 239.462 84.5023 240.85 82.895 242.029C81.2957 243.194 79.2377 244.053 76.721 244.606C74.2759 245.142 72.0701 245.229 70.1034 244.867C68.147 244.503 66.503 243.706 65.1714 242.475C63.8501 241.242 62.9196 239.591 62.3798 237.522L67.981 236.293C68.3031 237.37 68.8404 238.207 69.5932 238.803C70.3459 239.399 71.2373 239.772 72.2673 239.921C73.3075 240.068 74.421 240.011 75.6077 239.751C76.8456 239.479 77.8896 239.057 78.7398 238.485C79.5979 237.9 80.2201 237.216 80.6062 236.435C80.99 235.643 81.0883 234.796 80.901 233.893C80.7112 233.077 80.3226 232.454 79.7353 232.026C79.1457 231.587 78.3871 231.281 77.4594 231.11C76.5397 230.925 75.4858 230.813 74.2976 230.774L70.52 230.638C67.7858 230.54 65.5186 229.982 63.7184 228.961C61.9262 227.928 60.7833 226.286 60.2894 224.036C59.8832 222.184 60.0287 220.452 60.726 218.841C61.4336 217.228 62.5728 215.846 64.1436 214.698C65.7122 213.538 67.5963 212.718 69.7959 212.235C72.0261 211.746 74.0654 211.706 75.9138 212.115C77.7702 212.512 79.3296 213.291 80.592 214.45C81.8522 215.6 82.6918 217.056 83.1108 218.82L77.6324 220.022ZM104.221 238.524C102.715 238.843 101.19 238.905 99.6452 238.707C98.0985 238.5 96.6243 237.939 95.2226 237.024C93.8186 236.099 92.5658 234.738 91.4641 232.943C90.3602 231.137 89.4969 228.79 88.8741 225.903C88.2838 223.212 88.0439 220.75 88.1544 218.517C88.265 216.284 88.698 214.323 89.4534 212.635C90.2067 210.936 91.2562 209.537 92.6019 208.438C93.9579 207.336 95.5771 206.579 97.4596 206.166C99.434 205.732 101.269 205.737 102.964 206.18C104.669 206.621 106.14 207.414 107.378 208.558C108.613 209.691 109.528 211.077 110.124 212.716L104.522 213.945C103.971 212.801 103.172 211.968 102.125 211.447C101.086 210.914 99.8907 210.795 98.5403 211.092C96.3612 211.57 94.891 212.884 94.1298 215.035C93.3787 217.183 93.3606 219.911 94.0754 223.218L94.2902 223.171C94.594 222.16 95.0742 221.245 95.7307 220.426C96.3873 219.606 97.1787 218.912 98.105 218.345C99.0393 217.764 100.069 217.351 101.194 217.104C103.036 216.7 104.785 216.777 106.441 217.336C108.107 217.893 109.539 218.849 110.737 220.205C111.933 221.551 112.744 223.218 113.169 225.205C113.633 227.269 113.57 229.229 112.98 231.085C112.387 232.931 111.345 234.511 109.854 235.824C108.362 237.138 106.484 238.038 104.221 238.524ZM103.18 233.927C104.296 233.682 105.234 233.192 105.994 232.457C106.755 231.722 107.29 230.838 107.6 229.805C107.909 228.772 107.933 227.683 107.672 226.54C107.435 225.412 106.966 224.448 106.265 223.648C105.574 222.845 104.736 222.273 103.749 221.932C102.763 221.59 101.712 221.542 100.597 221.787C99.7687 221.969 99.031 222.297 98.3845 222.771C97.7379 223.245 97.2104 223.822 96.8019 224.501C96.3911 225.171 96.113 225.907 95.9677 226.711C95.8304 227.503 95.8475 228.314 96.0191 229.145C96.2695 230.237 96.7464 231.189 97.4497 231.999C98.153 232.81 99.0051 233.395 100.006 233.755C101.007 234.114 102.065 234.171 103.18 233.927ZM124.238 229.178L124.409 230.91C124.548 232.23 124.58 233.596 124.503 235.007C124.439 236.426 124.331 237.741 124.179 238.954C124.027 240.167 123.899 241.123 123.795 241.821L120.05 242.643C120.057 241.987 120.065 241.095 120.075 239.967C120.095 238.837 120.075 237.576 120.017 236.184C119.958 234.792 119.818 233.397 119.597 231.998L119.327 230.256L124.238 229.178ZM140.735 230.513C138.453 231.013 136.343 231.074 134.405 230.695C132.477 230.314 130.866 229.568 129.572 228.458C128.285 227.336 127.461 225.924 127.099 224.224C126.799 222.906 126.819 221.631 127.16 220.398C127.501 219.165 128.086 218.072 128.917 217.118C129.756 216.151 130.767 215.43 131.949 214.956L131.902 214.742C130.207 214.738 128.717 214.202 127.432 213.133C126.154 212.051 125.334 210.66 124.972 208.96C124.607 207.346 124.741 205.804 125.373 204.336C126.005 202.868 127.034 201.596 128.461 200.522C129.885 199.438 131.615 198.672 133.651 198.225C135.666 197.783 137.542 197.757 139.28 198.148C141.025 198.527 142.492 199.25 143.68 200.319C144.88 201.386 145.656 202.727 146.011 204.344C146.384 206.042 146.206 207.652 145.478 209.173C144.758 210.682 143.645 211.79 142.138 212.496L142.185 212.711C143.458 212.646 144.667 212.879 145.813 213.411C146.967 213.93 147.957 214.677 148.782 215.654C149.618 216.629 150.181 217.776 150.47 219.096C150.843 220.794 150.675 222.424 149.966 223.984C149.255 225.534 148.104 226.885 146.513 228.039C144.932 229.19 143.006 230.014 140.735 230.513ZM139.772 226.124C140.948 225.866 141.928 225.442 142.71 224.852C143.489 224.252 144.039 223.531 144.358 222.689C144.677 221.847 144.737 220.944 144.536 219.98C144.306 218.979 143.851 218.152 143.171 217.497C142.499 216.829 141.675 216.372 140.698 216.125C139.732 215.876 138.692 215.874 137.577 216.118C136.451 216.365 135.497 216.805 134.714 217.438C133.93 218.071 133.368 218.832 133.027 219.722C132.694 220.599 132.643 221.538 132.873 222.539C133.074 223.503 133.495 224.3 134.138 224.931C134.778 225.552 135.578 225.972 136.537 226.19C137.507 226.406 138.585 226.384 139.772 226.124ZM136.63 211.806C137.592 211.595 138.399 211.215 139.05 210.664C139.711 210.112 140.181 209.44 140.458 208.65C140.735 207.86 140.779 207.009 140.589 206.096C140.381 205.198 139.994 204.458 139.426 203.874C138.856 203.281 138.157 202.882 137.33 202.678C136.5 202.463 135.599 202.462 134.627 202.676C133.635 202.893 132.802 203.274 132.128 203.819C131.462 204.351 130.994 205.006 130.725 205.783C130.464 206.548 130.437 207.38 130.645 208.278C130.835 209.191 131.215 209.949 131.787 210.553C132.367 211.144 133.075 211.557 133.909 211.792C134.751 212.015 135.659 212.019 136.63 211.806ZM167.938 224.544C165.657 225.045 163.547 225.106 161.609 224.727C159.681 224.345 158.069 223.6 156.775 222.49C155.489 221.367 154.664 219.956 154.302 218.255C154.002 216.938 154.023 215.663 154.363 214.43C154.704 213.197 155.29 212.103 156.12 211.149C156.959 210.182 157.97 209.462 159.153 208.988L159.106 208.773C157.411 208.77 155.92 208.233 154.635 207.164C153.358 206.083 152.538 204.692 152.175 202.991C151.81 201.377 151.944 199.836 152.576 198.368C153.208 196.899 154.238 195.628 155.664 194.554C157.088 193.469 158.818 192.704 160.854 192.257C162.869 191.815 164.746 191.789 166.483 192.18C168.228 192.558 169.695 193.282 170.884 194.351C172.083 195.417 172.86 196.759 173.214 198.375C173.587 200.074 173.409 201.684 172.682 203.205C171.962 204.714 170.848 205.821 169.341 206.527L169.388 206.742C170.661 206.678 171.87 206.911 173.016 207.442C174.17 207.961 175.16 208.709 175.985 209.686C176.821 210.661 177.384 211.808 177.673 213.128C178.046 214.826 177.878 216.455 177.169 218.015C176.459 219.565 175.308 220.917 173.716 222.07C172.135 223.221 170.209 224.046 167.938 224.544ZM166.975 220.155C168.152 219.897 169.131 219.473 169.913 218.884C170.693 218.284 171.242 217.563 171.561 216.72C171.881 215.878 171.94 214.975 171.739 214.011C171.509 213.011 171.054 212.183 170.374 211.528C169.702 210.861 168.878 210.404 167.902 210.157C166.936 209.908 165.895 209.905 164.78 210.15C163.654 210.397 162.7 210.837 161.917 211.47C161.134 212.103 160.571 212.864 160.23 213.754C159.898 214.631 159.846 215.57 160.076 216.57C160.277 217.534 160.699 218.332 161.341 218.963C161.981 219.584 162.781 220.003 163.741 220.222C164.71 220.438 165.788 220.416 166.975 220.155ZM163.834 205.838C164.795 205.627 165.602 205.246 166.253 204.696C166.915 204.143 167.384 203.472 167.661 202.682C167.938 201.892 167.982 201.041 167.792 200.128C167.585 199.23 167.197 198.489 166.629 197.906C166.059 197.313 165.361 196.914 164.533 196.709C163.703 196.495 162.802 196.494 161.83 196.707C160.838 196.925 160.005 197.306 159.331 197.851C158.665 198.383 158.197 199.038 157.928 199.815C157.667 200.58 157.641 201.412 157.848 202.31C158.038 203.222 158.419 203.981 158.991 204.584C159.571 205.175 160.278 205.589 161.112 205.824C161.955 206.046 162.862 206.051 163.834 205.838ZM183.875 220.597L182.973 216.485L191.537 203.395C192.349 202.112 193.014 200.985 193.53 200.014C194.046 199.043 194.394 198.136 194.573 197.292C194.753 196.449 194.747 195.592 194.556 194.722C194.338 193.73 193.927 192.93 193.322 192.323C192.715 191.706 191.975 191.289 191.102 191.073C190.229 190.857 189.291 190.859 188.288 191.079C187.255 191.306 186.397 191.719 185.713 192.32C185.028 192.91 184.556 193.641 184.297 194.512C184.048 195.382 184.041 196.354 184.277 197.428L178.86 198.617C178.422 196.622 178.497 194.788 179.084 193.115C179.671 191.442 180.674 190.026 182.093 188.868C183.522 187.707 185.275 186.899 187.351 186.443C189.459 185.981 191.397 185.969 193.166 186.406C194.935 186.844 196.409 187.651 197.59 188.829C198.781 190.005 199.569 191.473 199.955 193.232C200.213 194.409 200.242 195.614 200.041 196.848C199.84 198.083 199.323 199.515 198.491 201.145C197.668 202.773 196.455 204.793 194.85 207.204L190.641 213.901L190.689 214.116L204.377 211.113L205.421 215.87L183.875 220.597ZM213.581 214.434C212.65 214.638 211.78 214.486 210.972 213.977C210.163 213.468 209.661 212.742 209.464 211.798C209.252 210.88 209.407 210.02 209.928 209.22C210.449 208.419 211.175 207.916 212.106 207.712C213.007 207.515 213.861 207.67 214.67 208.179C215.489 208.686 216.004 209.398 216.216 210.317C216.343 210.943 216.304 211.547 216.099 212.128C215.904 212.707 215.585 213.206 215.141 213.625C214.705 214.032 214.185 214.301 213.581 214.434ZM232.39 210.58C229.863 211.135 227.554 210.971 225.463 210.09C223.379 209.196 221.586 207.643 220.082 205.432C218.586 203.208 217.462 200.382 216.71 196.955C215.968 193.526 215.815 190.503 216.249 187.888C216.691 185.261 217.673 183.115 219.195 181.451C220.728 179.785 222.752 178.676 225.269 178.124C227.786 177.572 230.089 177.732 232.178 178.603C234.267 179.474 236.057 181.012 237.549 183.215C239.05 185.416 240.176 188.225 240.926 191.642C241.68 195.08 241.838 198.122 241.4 200.77C240.971 203.406 239.991 205.562 238.46 207.238C236.94 208.912 234.917 210.026 232.39 210.58ZM231.336 205.777C233.3 205.346 234.638 204.039 235.35 201.857C236.069 199.662 236.015 196.676 235.186 192.901C234.639 190.405 233.918 188.365 233.023 186.781C232.129 185.198 231.112 184.08 229.972 183.43C228.829 182.769 227.609 182.581 226.309 182.866C224.355 183.295 223.024 184.606 222.315 186.799C221.603 188.981 221.653 191.946 222.465 195.692C223.004 198.201 223.717 200.254 224.604 201.85C225.5 203.444 226.52 204.571 227.662 205.232C228.802 205.883 230.027 206.065 231.336 205.777ZM260.522 204.408C257.995 204.963 255.686 204.799 253.594 203.918C251.511 203.024 249.717 201.471 248.213 199.26C246.718 197.036 245.594 194.21 244.842 190.783C244.1 187.353 243.946 184.331 244.38 181.716C244.823 179.088 245.805 176.943 247.327 175.279C248.86 173.613 250.884 172.504 253.401 171.952C255.918 171.4 258.22 171.559 260.31 172.431C262.399 173.302 264.189 174.839 265.68 177.043C267.182 179.244 268.308 182.053 269.057 185.47C269.811 188.908 269.97 191.95 269.532 194.598C269.102 197.234 268.122 199.39 266.592 201.066C265.072 202.74 263.049 203.854 260.522 204.408ZM259.468 199.605C261.432 199.174 262.77 197.867 263.481 195.685C264.201 193.489 264.146 190.504 263.318 186.729C262.77 184.233 262.049 182.193 261.155 180.609C260.261 179.025 259.243 177.908 258.103 177.258C256.961 176.597 255.74 176.409 254.441 176.694C252.487 177.123 251.156 178.433 250.446 180.626C249.735 182.809 249.785 185.774 250.596 189.52C251.136 192.029 251.849 194.082 252.735 195.678C253.632 197.272 254.651 198.399 255.794 199.06C256.934 199.711 258.158 199.892 259.468 199.605Z"
                  fill="#182700"
                />
              </g>
              <rect
                x="0.927726"
                y="61.8872"
                width="285.544"
                height="225.603"
                rx="20.3744"
                transform="rotate(-12.3746 0.927726 61.8872)"
                stroke="#EFEFEF"
                stroke-width="1.16425"
              />
              <defs>
                <clipPath id="clip0_1_2002">
                  <rect
                    x="0.234375"
                    y="61.4434"
                    width="286.708"
                    height="226.768"
                    rx="20.9565"
                    transform="rotate(-12.3746 0.234375 61.4434)"
                    fill="white"
                  />
                </clipPath>
                <clipPath id="clip1_1_2002">
                  <rect
                    x="25.195"
                    y="77.4219"
                    width="244.795"
                    height="65.2557"
                    rx="12.8067"
                    transform="rotate(-12.3746 25.195 77.4219)"
                    fill="white"
                  />
                </clipPath>
                <clipPath id="clip2_1_2002">
                  <rect
                    width="37.256"
                    height="37.256"
                    fill="white"
                    transform="translate(50.933 86.0779) rotate(-12.3746)"
                  />
                </clipPath>
              </defs>
            </svg>