<svg width="343" height="290" viewBox="0 0 343 290" fill="none" xmlns="http://www.w3.org/2000/svg">
<g clip-path="url(#clip0_1_1987)">
<rect x="37.5391" width="308.31" height="245.247" rx="22.5464" transform="rotate(8.80519 37.5391 0)" fill="white"/>
<g clip-path="url(#clip1_1_1987)">
<rect x="56.3684" y="25.7319" width="263.217" height="71.0825" rx="13.7784" transform="rotate(8.80519 56.3684 25.7319)" fill="#8C4FF9"/>
<path d="M134.062 66.3667L131.755 66.0094L139.169 52.4086L141.68 52.7975L144.632 68.0041L142.326 67.6468L140.079 55.2286L139.967 55.2112L134.062 66.3667ZM135.322 60.7861L142.805 61.9453L142.522 63.7739L135.039 62.6147L135.322 60.7861ZM150.569 69.147C149.524 68.985 148.66 68.6088 147.979 68.0183C147.303 67.4239 146.828 66.6758 146.555 65.774C146.281 64.8723 146.229 63.8799 146.396 62.7968C146.566 61.6996 146.923 60.7634 147.465 59.988C148.009 59.208 148.692 58.6393 149.516 58.2819C150.339 57.9246 151.26 57.8247 152.277 57.9823C153.098 58.1094 153.805 58.3751 154.401 58.7793C154.996 59.1789 155.449 59.6811 155.759 60.286C156.073 60.8917 156.211 61.5637 156.174 62.302L154.127 61.985C154.093 61.4612 153.903 60.9852 153.556 60.557C153.214 60.1296 152.708 59.8639 152.038 59.7601C151.452 59.6693 150.914 59.7445 150.426 59.9856C149.942 60.2229 149.535 60.6063 149.203 61.1358C148.872 61.6607 148.647 62.3076 148.528 63.0766C148.406 63.8643 148.42 64.5626 148.571 65.1717C148.721 65.7808 148.99 66.2761 149.378 66.6578C149.77 67.0402 150.264 67.2776 150.859 67.3698C151.258 67.4315 151.63 67.4148 151.976 67.3195C152.327 67.2204 152.635 67.0495 152.898 66.807C153.166 66.5652 153.374 66.2567 153.524 65.8813L155.57 66.1983C155.387 66.8853 155.063 67.4737 154.598 67.9634C154.134 68.4532 153.558 68.8057 152.872 69.0211C152.19 69.2372 151.423 69.2792 150.569 69.147ZM161.489 70.8385C160.444 70.6766 159.58 70.3003 158.899 69.7098C158.223 69.1154 157.748 68.3673 157.475 67.4656C157.202 66.5638 157.149 65.5714 157.317 64.4883C157.487 63.3912 157.843 62.4549 158.385 61.6796C158.929 60.8995 159.612 60.3308 160.436 59.9734C161.259 59.6161 162.18 59.5162 163.197 59.6738C164.018 59.8009 164.726 60.0666 165.321 60.4709C165.917 60.8704 166.369 61.3727 166.679 61.9776C166.993 62.5832 167.132 63.2552 167.094 63.9936L165.047 63.6765C165.013 63.1527 164.823 62.6767 164.476 62.2486C164.135 61.8211 163.628 61.5555 162.958 61.4516C162.372 61.3608 161.834 61.436 161.346 61.6772C160.862 61.9144 160.455 62.2978 160.123 62.8274C159.792 63.3522 159.567 63.9992 159.448 64.7681C159.326 65.5558 159.34 66.2542 159.491 66.8632C159.641 67.4723 159.91 67.9677 160.298 68.3494C160.69 68.7318 161.184 68.9691 161.779 69.0613C162.178 69.1231 162.55 69.1063 162.896 69.0111C163.247 68.9119 163.555 68.741 163.818 68.4985C164.086 68.2568 164.295 67.9482 164.444 67.5728L166.491 67.8899C166.307 68.5769 165.983 69.1652 165.519 69.655C165.054 70.1447 164.478 70.4973 163.792 70.7127C163.11 70.9288 162.343 70.9707 161.489 70.8385ZM172.41 72.5301C171.397 72.3732 170.549 72.0042 169.866 71.4231C169.183 70.842 168.698 70.1018 168.41 69.2026C168.121 68.3033 168.064 67.2958 168.237 66.1799C168.41 65.0593 168.771 64.1117 169.318 63.337C169.865 62.5624 170.552 62.0014 171.379 61.6542C172.206 61.3069 173.126 61.2118 174.139 61.3686C175.151 61.5255 175.999 61.8945 176.682 62.4756C177.365 63.0567 177.85 63.7992 178.138 64.7032C178.425 65.6071 178.482 66.6193 178.308 67.7399C178.135 68.8558 177.776 69.7988 177.229 70.5687C176.682 71.3387 175.996 71.8973 175.169 72.2445C174.342 72.5918 173.422 72.6869 172.41 72.5301ZM172.69 70.7659C173.346 70.8675 173.917 70.7783 174.402 70.4982C174.887 70.218 175.278 69.8056 175.573 69.2608C175.874 68.7168 176.078 68.0978 176.185 67.4039C176.292 66.7147 176.285 66.0653 176.163 65.4559C176.047 64.8426 175.8 64.3267 175.423 63.9082C175.046 63.4897 174.53 63.2297 173.873 63.128C173.212 63.0256 172.636 63.1164 172.146 63.4005C171.66 63.6854 171.266 64.1021 170.965 64.6509C170.67 65.1956 170.469 65.8126 170.362 66.5018C170.254 67.1958 170.259 67.8471 170.376 68.4557C170.498 69.0651 170.747 69.5767 171.125 69.9905C171.507 70.405 172.029 70.6635 172.69 70.7659ZM187.047 69.9865L188.026 63.6638L190.136 63.9907L188.462 74.7934L186.395 74.4731L186.685 72.6023L186.572 72.5849C186.234 73.1231 185.761 73.542 185.153 73.8415C184.55 74.137 183.843 74.222 183.032 74.0963C182.338 73.9888 181.748 73.7413 181.26 73.3537C180.779 72.9622 180.432 72.4404 180.221 71.7884C180.015 71.1371 179.98 70.366 180.118 69.4751L181.183 62.6038L183.286 62.9296L182.261 69.5477C182.146 70.2838 182.26 70.9015 182.6 71.4007C182.94 71.8999 183.436 72.2 184.088 72.301C184.482 72.362 184.889 72.3242 185.308 72.1875C185.733 72.0516 186.105 71.8044 186.424 71.4458C186.749 71.0879 186.956 70.6015 187.047 69.9865ZM194.068 69.0936L193.074 75.5077L190.971 75.182L192.644 64.3793L194.663 64.6919L194.391 66.4502L194.524 66.4709C194.861 65.9374 195.322 65.5381 195.905 65.2733C196.494 65.0091 197.193 64.9398 198.004 65.0655C198.74 65.1795 199.361 65.4341 199.867 65.8292C200.373 66.2197 200.731 66.741 200.942 67.393C201.153 68.0451 201.19 68.8165 201.052 69.7074L199.987 76.5787L197.885 76.2529L198.91 69.6348C199.031 68.8518 198.922 68.2083 198.582 67.7044C198.243 67.1958 197.718 66.8863 197.005 66.7759C196.517 66.7004 196.067 66.7387 195.655 66.8909C195.247 67.0437 194.901 67.3071 194.618 67.6809C194.34 68.0507 194.156 68.5216 194.068 69.0936ZM209.207 66.9448L208.945 68.6327L203.045 67.7187L203.306 66.0308L209.207 66.9448ZM205.29 63.6877L207.392 64.0135L205.809 74.2325C205.746 74.6404 205.76 74.9569 205.85 75.1821C205.94 75.4026 206.076 75.5653 206.257 75.6701C206.443 75.7709 206.65 75.8391 206.88 75.8747C207.049 75.9008 207.199 75.912 207.329 75.9082C207.459 75.9043 207.56 75.9008 207.633 75.8977L207.744 77.6937C207.614 77.7217 207.434 77.7417 207.201 77.7537C206.968 77.7704 206.683 77.755 206.344 77.7074C205.79 77.631 205.289 77.4527 204.843 77.1723C204.396 76.8919 204.059 76.5132 203.83 76.0361C203.602 75.5589 203.538 74.9945 203.639 74.3428L205.29 63.6877ZM228.493 66.2449L226.262 80.6486L224.264 80.3392L218.579 68.6414L218.446 68.6207L216.809 79.1844L214.636 78.8477L216.867 64.4441L218.879 64.7557L224.569 76.4685L224.702 76.4892L226.341 65.9115L228.493 66.2449ZM236.483 77.6444L237.463 71.3216L239.573 71.6485L237.899 82.4512L235.832 82.1309L236.121 80.2601L236.009 80.2427C235.671 80.7809 235.198 81.1998 234.59 81.4993C233.987 81.7948 233.28 81.8798 232.469 81.7541C231.775 81.6466 231.185 81.3991 230.697 81.0115C230.215 80.62 229.869 80.0982 229.658 79.4462C229.451 78.7949 229.417 78.0238 229.555 77.1329L230.62 70.2616L232.722 70.5874L231.697 77.2055C231.583 77.9416 231.696 78.5593 232.037 79.0585C232.377 79.5577 232.873 79.8578 233.525 79.9588C233.919 80.0198 234.326 79.982 234.745 79.8453C235.17 79.7094 235.542 79.4622 235.861 79.1036C236.185 78.7457 236.393 78.2593 236.483 77.6444ZM240.408 82.8398L242.081 72.0371L244.1 72.3497L243.827 74.108L243.961 74.1287C244.278 73.5681 244.718 73.1609 245.281 72.9072C245.844 72.6488 246.482 72.5748 247.195 72.6852C247.917 72.797 248.496 73.0595 248.931 73.4726C249.371 73.8864 249.663 74.4069 249.805 75.034L249.918 75.0514C250.265 74.5147 250.747 74.1187 251.362 73.8636C251.979 73.6038 252.676 73.5342 253.454 73.6547C254.434 73.8065 255.186 74.2375 255.71 74.9476C256.238 75.6584 256.407 76.6327 256.215 77.8705L255.093 85.1145L252.99 84.7888L254.082 77.7417C254.195 77.0103 254.078 76.4496 253.73 76.0596C253.382 75.6697 252.932 75.4319 252.379 75.3462C251.694 75.2401 251.129 75.3687 250.684 75.7318C250.24 76.0903 249.967 76.5977 249.865 77.2542L248.798 84.1395L246.702 83.8149L247.815 76.6341C247.906 76.048 247.796 75.5485 247.485 75.1355C247.175 74.7225 246.726 74.4706 246.14 74.3798C245.742 74.3181 245.357 74.3666 244.987 74.5253C244.622 74.68 244.308 74.9266 244.044 75.2651C243.785 75.6042 243.618 76.0176 243.542 76.5053L242.511 83.1656L240.408 82.8398ZM257.763 85.5282L259.994 71.1245L262.097 71.4503L261.268 76.8024L261.395 76.822C261.552 76.6158 261.768 76.3828 262.043 76.123C262.319 75.8632 262.678 75.6548 263.12 75.4976C263.562 75.3357 264.119 75.3067 264.789 75.4106C265.662 75.5456 266.406 75.8866 267.022 76.4334C267.638 76.9801 268.077 77.6986 268.337 78.5888C268.603 79.4797 268.645 80.5089 268.464 81.6764C268.283 82.8439 267.934 83.8148 267.415 84.5891C266.897 85.3587 266.264 85.9159 265.514 86.2607C264.765 86.6008 263.955 86.7033 263.083 86.5682C262.426 86.4665 261.907 86.2732 261.523 85.9882C261.145 85.7039 260.861 85.3959 260.673 85.0642C260.484 84.7325 260.344 84.442 260.253 84.1926L260.077 84.1654L259.817 85.8463L257.763 85.5282ZM260.661 80.446C260.543 81.2056 260.55 81.8884 260.682 82.4946C260.814 83.1008 261.063 83.5979 261.43 83.9861C261.798 84.3695 262.285 84.6081 262.889 84.7018C263.518 84.7991 264.069 84.714 264.542 84.4465C265.016 84.1743 265.406 83.7665 265.711 83.2232C266.021 82.6806 266.232 82.0483 266.343 81.3263C266.454 80.6136 266.445 79.9569 266.317 79.3561C266.194 78.7561 265.945 78.259 265.569 77.8647C265.198 77.4711 264.696 77.2253 264.063 77.1272C263.453 77.0328 262.913 77.11 262.442 77.3588C261.976 77.6083 261.592 77.9976 261.289 78.5269C260.986 79.0561 260.777 79.6958 260.661 80.446ZM274.297 88.3126C273.233 88.1477 272.351 87.7783 271.653 87.2044C270.96 86.6265 270.469 85.8903 270.18 84.9958C269.897 84.0973 269.842 83.0877 270.016 81.9671C270.187 80.8606 270.544 79.9173 271.088 79.1372C271.636 78.3579 272.319 77.7892 273.138 77.4311C273.962 77.0738 274.875 76.9728 275.878 77.1282C276.488 77.2227 277.063 77.415 277.604 77.7052C278.145 77.9954 278.609 78.3914 278.997 78.8932C279.385 79.3951 279.657 80.0109 279.813 80.7408C279.969 81.466 279.972 82.3186 279.82 83.2986L279.704 84.0441L271.117 82.7139L271.361 81.1385L277.888 82.1495C277.973 81.5962 277.937 81.0888 277.778 80.6273C277.62 80.161 277.356 79.7721 276.986 79.4604C276.622 79.1494 276.167 78.9518 275.623 78.8676C275.033 78.7761 274.494 78.8415 274.009 79.064C273.528 79.2824 273.133 79.6052 272.822 80.0324C272.516 80.4555 272.321 80.9367 272.238 81.4759L272.047 82.7067C271.935 83.4288 271.967 84.0626 272.142 84.6082C272.321 85.1545 272.62 85.5969 273.038 85.9353C273.457 86.2691 273.973 86.4835 274.587 86.5787C274.986 86.6404 275.358 86.6404 275.704 86.5787C276.05 86.5124 276.361 86.3828 276.635 86.1901C276.91 85.9974 277.137 85.7421 277.316 85.4241L279.25 86.0911C279 86.6525 278.635 87.1216 278.154 87.4984C277.678 87.8713 277.112 88.1317 276.456 88.2796C275.804 88.4236 275.085 88.4346 274.297 88.3126ZM280.982 89.1248L282.655 78.322L284.688 78.6369L284.422 80.353L284.535 80.3704C284.822 79.8195 285.239 79.4161 285.788 79.1602C286.342 78.9003 286.935 78.8194 287.568 78.9174C287.7 78.9378 287.854 78.9664 288.03 79.0034C288.212 79.0411 288.353 79.075 288.454 79.105L288.142 81.1165C288.062 81.08 287.916 81.0309 287.704 80.9694C287.494 80.9032 287.281 80.8533 287.065 80.8199C286.568 80.7429 286.108 80.7798 285.687 80.9305C285.27 81.0773 284.921 81.3184 284.638 81.654C284.357 81.9848 284.179 82.3847 284.107 82.8535L283.085 89.4505L280.982 89.1248Z" fill="white"/>
<path d="M129.823 93.7323C129.438 93.6727 129.129 93.4855 128.894 93.1707C128.661 92.8512 128.574 92.4969 128.634 92.1078C128.694 91.7233 128.883 91.4165 129.202 91.1874C129.521 90.9536 129.873 90.8665 130.257 90.9261C130.642 90.9856 130.951 91.1751 131.185 91.4946C131.419 91.8094 131.507 92.1591 131.447 92.5435C131.407 92.8014 131.305 93.028 131.14 93.2234C130.981 93.4147 130.786 93.5574 130.555 93.6513C130.325 93.7452 130.081 93.7722 129.823 93.7323ZM135.115 94.552C134.73 94.4924 134.421 94.3053 134.186 93.9905C133.952 93.671 133.866 93.3167 133.926 92.9275C133.986 92.543 134.175 92.2362 134.493 92.0071C134.813 91.7734 135.165 91.6862 135.549 91.7458C135.934 91.8054 136.243 91.9949 136.477 92.3144C136.711 92.6292 136.799 92.9788 136.739 93.3633C136.699 93.6211 136.597 93.8478 136.432 94.0431C136.273 94.2345 136.078 94.3771 135.847 94.471C135.617 94.5649 135.373 94.5919 135.115 94.552ZM140.407 95.3717C140.022 95.3122 139.713 95.125 139.478 94.8102C139.244 94.4907 139.158 94.1364 139.218 93.7472C139.278 93.3628 139.467 93.056 139.785 92.8269C140.105 92.5931 140.457 92.506 140.841 92.5655C141.226 92.6251 141.535 92.8146 141.769 93.1341C142.003 93.4489 142.091 93.7985 142.031 94.183C141.991 94.4409 141.889 94.6675 141.724 94.8628C141.565 95.0542 141.37 95.1969 141.139 95.2908C140.909 95.3847 140.665 95.4117 140.407 95.3717ZM145.699 96.1914C145.314 96.1319 145.005 95.9447 144.77 95.6299C144.536 95.3104 144.45 94.9561 144.51 94.567C144.57 94.1825 144.759 93.8757 145.077 93.6466C145.397 93.4128 145.749 93.3257 146.133 93.3853C146.518 93.4448 146.827 93.6343 147.061 93.9538C147.295 94.2686 147.383 94.6183 147.323 95.0027C147.283 95.2606 147.181 95.4872 147.016 95.6826C146.857 95.8739 146.662 96.0166 146.431 96.1105C146.201 96.2044 145.957 96.2314 145.699 96.1914ZM150.991 97.0112C150.606 96.9516 150.297 96.7644 150.062 96.4497C149.828 96.1302 149.742 95.7758 149.802 95.3867C149.861 95.0022 150.051 94.6954 150.369 94.4663C150.689 94.2326 151.041 94.1454 151.425 94.205C151.81 94.2646 152.119 94.4541 152.353 94.7736C152.587 95.0883 152.675 95.438 152.615 95.8225C152.575 96.0803 152.473 96.3069 152.308 96.5023C152.149 96.6937 151.954 96.8363 151.723 96.9302C151.493 97.0241 151.249 97.0511 150.991 97.0112ZM156.283 97.8309C155.898 97.7714 155.589 97.5842 155.354 97.2694C155.12 96.9499 155.034 96.5956 155.094 96.2064C155.153 95.8219 155.343 95.5152 155.661 95.2861C155.981 95.0523 156.333 94.9652 156.717 95.0247C157.102 95.0843 157.411 95.2738 157.645 95.5933C157.879 95.9081 157.967 96.2577 157.907 96.6422C157.867 96.9001 157.765 97.1267 157.6 97.322C157.441 97.5134 157.246 97.656 157.015 97.75C156.785 97.8439 156.541 97.8709 156.283 97.8309ZM161.575 98.6506C161.19 98.5911 160.881 98.4039 160.646 98.0891C160.412 97.7696 160.326 97.4153 160.386 97.0261C160.445 96.6417 160.635 96.3349 160.953 96.1058C161.273 95.872 161.625 95.7849 162.009 95.8445C162.394 95.904 162.703 96.0935 162.937 96.413C163.171 96.7278 163.259 97.0774 163.199 97.4619C163.159 97.7198 163.057 97.9464 162.892 98.1417C162.733 98.3331 162.538 98.4758 162.307 98.5697C162.077 98.6636 161.832 98.6906 161.575 98.6506ZM166.867 99.4704C166.482 99.4108 166.173 99.2236 165.938 98.9088C165.704 98.5894 165.618 98.235 165.678 97.8459C165.737 97.4614 165.927 97.1546 166.245 96.9255C166.565 96.6917 166.917 96.6046 167.301 96.6642C167.686 96.7237 167.995 96.9133 168.229 97.2327C168.463 97.5475 168.551 97.8972 168.491 98.2816C168.451 98.5395 168.349 98.7661 168.184 98.9615C168.025 99.1529 167.83 99.2955 167.599 99.3894C167.369 99.4833 167.124 99.5103 166.867 99.4704ZM172.159 100.29C171.774 100.231 171.465 100.043 171.23 99.7286C170.996 99.4091 170.91 99.0548 170.97 98.6656C171.029 98.2811 171.219 97.9744 171.537 97.7453C171.857 97.5115 172.209 97.4244 172.593 97.4839C172.978 97.5435 173.287 97.733 173.521 98.0525C173.755 98.3673 173.843 98.7169 173.783 99.1014C173.743 99.3593 173.641 99.5859 173.476 99.7812C173.317 99.9726 173.122 100.115 172.891 100.209C172.661 100.303 172.416 100.33 172.159 100.29ZM177.45 101.11C177.066 101.05 176.757 100.863 176.522 100.548C176.288 100.229 176.201 99.8745 176.262 99.4853C176.321 99.1009 176.51 98.7941 176.829 98.565C177.149 98.3312 177.501 98.2441 177.885 98.3036C178.27 98.3632 178.579 98.5527 178.813 98.8722C179.047 99.187 179.135 99.5366 179.075 99.9211C179.035 100.179 178.933 100.406 178.768 100.601C178.609 100.792 178.414 100.935 178.183 101.029C177.953 101.123 177.708 101.15 177.45 101.11ZM182.742 101.93C182.358 101.87 182.049 101.683 181.814 101.368C181.58 101.049 181.493 100.694 181.554 100.305C181.613 99.9206 181.802 99.6138 182.121 99.3847C182.441 99.1509 182.793 99.0638 183.177 99.1234C183.562 99.1829 183.871 99.3725 184.105 99.6919C184.339 100.007 184.427 100.356 184.367 100.741C184.327 100.999 184.225 101.225 184.06 101.421C183.901 101.612 183.706 101.755 183.475 101.849C183.245 101.943 183 101.97 182.742 101.93ZM188.034 102.749C187.65 102.69 187.34 102.503 187.106 102.188C186.872 101.868 186.785 101.514 186.846 101.125C186.905 100.74 187.094 100.434 187.413 100.204C187.733 99.9707 188.085 99.8836 188.469 99.9431C188.854 100.003 189.163 100.192 189.396 100.512C189.631 100.826 189.718 101.176 189.659 101.561C189.619 101.818 189.517 102.045 189.352 102.24C189.193 102.432 188.998 102.574 188.767 102.668C188.537 102.762 188.292 102.789 188.034 102.749ZM193.326 103.569C192.942 103.509 192.632 103.322 192.398 103.008C192.164 102.688 192.077 102.334 192.138 101.945C192.197 101.56 192.386 101.253 192.705 101.024C193.025 100.79 193.377 100.703 193.761 100.763C194.146 100.822 194.455 101.012 194.688 101.331C194.923 101.646 195.01 101.996 194.951 102.38C194.911 102.638 194.809 102.865 194.644 103.06C194.485 103.252 194.29 103.394 194.059 103.488C193.829 103.582 193.584 103.609 193.326 103.569ZM203.181 90.2093L200.949 104.613L198.769 104.275L200.663 92.0519L200.578 92.0388L196.783 93.7555L197.106 91.6738L201.064 89.8814L203.181 90.2093ZM211.58 91.3088C212.222 91.413 212.836 91.6282 213.424 91.9546C214.012 92.2809 214.517 92.7432 214.938 93.3413C215.364 93.9402 215.658 94.706 215.821 95.6386C215.989 96.5673 215.974 97.6884 215.775 99.002C215.58 100.263 215.279 101.367 214.874 102.312C214.469 103.253 213.977 104.024 213.399 104.626C212.825 105.228 212.176 105.653 211.451 105.901C210.726 106.149 209.944 106.208 209.105 106.078C208.247 105.945 207.511 105.658 206.898 105.218C206.284 104.777 205.815 104.226 205.49 103.566C205.166 102.901 205.012 102.172 205.029 101.378L207.175 101.71C207.219 102.351 207.428 102.897 207.799 103.348C208.177 103.795 208.71 104.072 209.399 104.179C210.454 104.342 211.348 104.01 212.081 103.183C212.815 102.351 213.313 101.108 213.574 99.4531L213.461 99.4357C213.155 99.8012 212.796 100.101 212.386 100.335C211.98 100.57 211.539 100.732 211.064 100.822C210.589 100.911 210.097 100.917 209.585 100.837C208.756 100.709 208.032 100.388 207.416 99.8748C206.799 99.3616 206.344 98.7174 206.051 97.9422C205.759 97.1671 205.683 96.3224 205.825 95.4081C205.965 94.4985 206.3 93.7052 206.827 93.0283C207.359 92.3521 208.031 91.8561 208.843 91.5402C209.661 91.2204 210.573 91.1432 211.58 91.3088ZM211.304 93.1384C210.755 93.0535 210.239 93.1128 209.757 93.3165C209.279 93.5162 208.878 93.8262 208.554 94.2465C208.23 94.6621 208.025 95.1488 207.939 95.7068C207.852 96.2647 207.896 96.79 208.069 97.2826C208.248 97.7712 208.53 98.1822 208.915 98.5155C209.306 98.8449 209.778 99.0524 210.331 99.1381C210.744 99.202 211.141 99.1819 211.522 99.0777C211.903 98.9735 212.249 98.8014 212.559 98.5615C212.871 98.3168 213.13 98.0256 213.336 97.6879C213.542 97.3501 213.676 96.9819 213.737 96.5834C213.819 96.0535 213.769 95.5416 213.586 95.0476C213.408 94.5543 213.123 94.1356 212.729 93.7914C212.337 93.4425 211.862 93.2249 211.304 93.1384ZM221.639 108.02C220.631 107.863 219.767 107.552 219.047 107.085C218.332 106.619 217.804 106.047 217.462 105.37C217.12 104.693 217.012 103.966 217.137 103.188C217.227 102.578 217.438 102.037 217.771 101.565C218.108 101.089 218.524 100.714 219.018 100.44C219.512 100.162 220.039 100.018 220.597 100.008L220.61 99.9238C219.92 99.6392 219.405 99.1657 219.066 98.5034C218.727 97.8412 218.619 97.1236 218.744 96.3507C218.853 95.6138 219.15 94.9875 219.633 94.4718C220.121 93.9522 220.738 93.5796 221.484 93.3542C222.229 93.1288 223.045 93.0847 223.931 93.222C224.808 93.3578 225.565 93.6479 226.202 94.0923C226.844 94.5326 227.32 95.0744 227.628 95.7175C227.937 96.356 228.038 97.0413 227.929 97.7734C227.805 98.5464 227.478 99.1968 226.95 99.7247C226.422 100.253 225.795 100.549 225.069 100.614L225.056 100.699C225.581 100.876 226.032 101.172 226.41 101.585C226.793 101.995 227.073 102.478 227.251 103.034C227.435 103.585 227.481 104.166 227.392 104.777C227.266 105.554 226.939 106.214 226.408 106.756C225.878 107.298 225.199 107.683 224.371 107.91C223.549 108.138 222.638 108.174 221.639 108.02ZM221.915 106.24C222.51 106.332 223.041 106.314 223.508 106.184C223.975 106.05 224.356 105.824 224.65 105.504C224.945 105.18 225.133 104.777 225.212 104.295C225.285 103.793 225.222 103.329 225.024 102.905C224.831 102.481 224.533 102.125 224.131 101.837C223.729 101.55 223.247 101.362 222.684 101.275C222.117 101.187 221.596 101.219 221.121 101.371C220.646 101.523 220.252 101.772 219.939 102.117C219.627 102.462 219.434 102.886 219.361 103.389C219.281 103.871 219.331 104.311 219.509 104.708C219.693 105.101 219.99 105.433 220.399 105.703C220.81 105.968 221.315 106.147 221.915 106.24ZM222.953 99.5377C223.431 99.6118 223.871 99.5814 224.271 99.4465C224.671 99.3117 225.003 99.0894 225.267 98.7798C225.536 98.471 225.708 98.0872 225.784 97.6284C225.849 97.1775 225.802 96.767 225.643 96.3967C225.489 96.0272 225.241 95.7223 224.899 95.4821C224.558 95.2371 224.143 95.0769 223.656 95.0014C223.159 94.9244 222.708 94.9506 222.304 95.0801C221.905 95.2055 221.577 95.4211 221.318 95.7267C221.059 96.0324 220.898 96.4106 220.833 96.8614C220.757 97.3202 220.798 97.7371 220.956 98.112C221.114 98.487 221.363 98.7993 221.704 99.0489C222.049 99.2992 222.465 99.4621 222.953 99.5377ZM236.051 95.0993C236.692 95.2035 237.307 95.4188 237.895 95.7451C238.483 96.0714 238.988 96.5337 239.409 97.1318C239.835 97.7307 240.129 98.4965 240.292 99.4291C240.46 100.358 240.445 101.479 240.246 102.793C240.051 104.054 239.75 105.157 239.344 106.102C238.939 107.043 238.448 107.814 237.87 108.416C237.296 109.019 236.647 109.444 235.922 109.692C235.197 109.94 234.415 109.998 233.576 109.868C232.718 109.736 231.982 109.449 231.368 109.008C230.755 108.567 230.286 108.017 229.961 107.357C229.636 106.692 229.483 105.962 229.5 105.168L231.645 105.5C231.69 106.141 231.898 106.687 232.27 107.138C232.647 107.586 233.181 107.863 233.87 107.97C234.925 108.133 235.819 107.801 236.552 106.973C237.286 106.141 237.783 104.898 238.044 103.244L237.932 103.226C237.626 103.592 237.267 103.891 236.856 104.126C236.45 104.36 236.01 104.523 235.535 104.612C235.06 104.702 234.567 104.707 234.056 104.628C233.226 104.499 232.503 104.179 231.886 103.665C231.27 103.152 230.815 102.508 230.522 101.733C230.229 100.958 230.154 100.113 230.295 99.1986C230.436 98.289 230.77 97.4958 231.298 96.8189C231.83 96.1427 232.502 95.6467 233.314 95.3308C234.132 95.0109 235.044 94.9338 236.051 95.0993ZM235.774 96.929C235.226 96.844 234.71 96.9034 234.227 97.107C233.75 97.3067 233.349 97.6167 233.025 98.037C232.701 98.4526 232.496 98.9394 232.409 99.4973C232.323 100.055 232.367 100.581 232.54 101.073C232.719 101.562 233.001 101.973 233.386 102.306C233.777 102.635 234.249 102.843 234.802 102.929C235.214 102.993 235.611 102.972 235.992 102.868C236.373 102.764 236.719 102.592 237.03 102.352C237.342 102.107 237.6 101.816 237.806 101.478C238.012 101.141 238.146 100.772 238.208 100.374C238.29 99.8441 238.24 99.3322 238.057 98.8381C237.879 98.3448 237.593 97.9261 237.2 97.5819C236.808 97.2331 236.332 97.0154 235.774 96.929Z" fill="white"/>
<path d="M112.14 58.4517L82.4329 53.8499C81.7493 53.744 81.1092 54.2124 81.0033 54.896L80.4281 58.6095C80.3222 59.2931 80.7906 59.9331 81.4742 60.039L111.182 64.6407C111.865 64.7466 112.505 64.2783 112.611 63.5947L113.187 59.8812C113.292 59.1976 112.824 58.5576 112.14 58.4517Z" stroke="white" stroke-width="2.50515" stroke-linecap="round" stroke-linejoin="round"/>
<path d="M109.947 64.4507L107.646 79.3045C107.595 79.6327 107.416 79.9274 107.148 80.1236C106.879 80.3197 106.544 80.4014 106.216 80.3505L81.4598 76.5158C81.1315 76.4649 80.8369 76.2857 80.6407 76.0176C80.4445 75.7495 80.3629 75.4145 80.4137 75.0862L82.7146 60.2324" stroke="white" stroke-width="2.50515" stroke-linecap="round" stroke-linejoin="round"/>
<path d="M91.656 67.9551L99.0829 69.1055" stroke="white" stroke-width="2.50515" stroke-linecap="round" stroke-linejoin="round"/>
</g>
<path d="M44.2855 132.561L41.4966 150.566L39.3164 150.228L42.1053 132.224L44.2855 132.561ZM48.5237 143.336L47.2654 151.459L45.1907 151.138L47.2824 137.635L49.2868 137.945L48.96 140.055L49.1358 140.082C49.5585 139.446 50.1244 138.969 50.8336 138.653C51.5436 138.331 52.4086 138.249 53.4283 138.407C54.3426 138.548 55.1136 138.86 55.7412 139.341C56.3697 139.816 56.8159 140.462 57.0798 141.277C57.3445 142.086 57.3879 143.065 57.21 144.214L55.8809 152.794L53.8061 152.473L55.1135 144.033C55.2778 142.972 55.1303 142.103 54.6711 141.426C54.2128 140.743 53.503 140.327 52.5418 140.178C51.8796 140.075 51.2654 140.127 50.6993 140.333C50.139 140.541 49.6668 140.897 49.2825 141.401C48.8983 141.906 48.6454 142.551 48.5237 143.336ZM64.7182 154.451C63.4523 154.255 62.4085 153.787 61.5868 153.048C60.7651 152.308 60.1893 151.376 59.8595 150.25C59.5297 149.125 59.4692 147.888 59.678 146.54C59.8905 145.169 60.3299 143.998 60.9965 143.027C61.6698 142.051 62.5065 141.337 63.5066 140.886C64.5135 140.43 65.6265 140.296 66.8456 140.485C67.795 140.632 68.6235 140.94 69.3309 141.41C70.0384 141.88 70.5863 142.469 70.9747 143.177C71.3631 143.885 71.5505 144.671 71.537 145.533L69.4623 145.211C69.3994 144.571 69.1321 143.972 68.6606 143.413C68.1959 142.849 67.5063 142.496 66.592 142.354C65.7832 142.229 65.0414 142.33 64.3665 142.658C63.6984 142.98 63.1353 143.496 62.6774 144.205C62.2262 144.91 61.9216 145.772 61.7637 146.792C61.6021 147.835 61.6254 148.769 61.8338 149.593C62.048 150.418 62.4239 151.092 62.9613 151.613C63.5045 152.135 64.1864 152.46 65.0069 152.587C65.5461 152.671 66.05 152.653 66.5186 152.533C66.9873 152.414 67.4012 152.202 67.7604 151.897C68.1197 151.593 68.4019 151.205 68.6071 150.732L70.6818 151.054C70.4411 151.833 70.0398 152.506 69.4779 153.073C68.9227 153.635 68.238 154.045 67.4238 154.303C66.6164 154.556 65.7146 154.605 64.7182 154.451ZM78.1508 156.532C76.9318 156.343 75.9071 155.887 75.0768 155.164C74.2524 154.442 73.6631 153.52 73.309 152.397C72.9607 151.275 72.8946 150.016 73.1106 148.621C73.3285 147.215 73.7737 146.026 74.4461 145.056C75.1243 144.087 75.9655 143.383 76.9697 142.944C77.9797 142.507 79.0943 142.382 80.3134 142.571C81.5324 142.76 82.5542 143.215 83.3786 143.937C84.2088 144.66 84.7977 145.585 85.1451 146.713C85.4983 147.842 85.566 149.11 85.3481 150.517C85.132 151.912 84.6853 153.091 84.008 154.054C83.3365 155.018 82.4957 155.719 81.4857 156.157C80.4815 156.596 79.3699 156.721 78.1508 156.532ZM78.4395 154.668C79.3656 154.811 80.1642 154.692 80.8356 154.31C81.5069 153.928 82.0461 153.372 82.4531 152.643C82.8601 151.914 83.1336 151.098 83.2734 150.195C83.4132 149.293 83.3999 148.43 83.2334 147.606C83.067 146.782 82.7221 146.083 82.1987 145.51C81.6754 144.937 80.9507 144.578 80.0247 144.435C79.0986 144.291 78.2995 144.414 77.6272 144.802C76.955 145.19 76.4149 145.751 76.007 146.486C75.5991 147.221 75.3252 148.04 75.1854 148.943C75.0456 149.845 75.0593 150.705 75.2267 151.524C75.394 152.342 75.7398 153.034 76.2641 153.602C76.7884 154.169 77.5135 154.525 78.4395 154.668ZM87.0841 157.627L89.1758 144.124L91.1802 144.434L90.8534 146.544L91.0292 146.572C91.4222 145.894 91.9631 145.405 92.652 145.104C93.3417 144.796 94.1262 144.711 95.0053 144.847C95.8962 144.985 96.6063 145.302 97.1356 145.798C97.6716 146.289 98.0509 146.921 98.2733 147.694L98.4139 147.715C98.8678 147.072 99.4722 146.598 100.227 146.295C100.983 145.986 101.845 145.906 102.812 146.056C104.019 146.243 104.948 146.774 105.599 147.649C106.251 148.518 106.453 149.747 106.207 151.335L104.807 160.373L102.733 160.051L104.133 151.014C104.287 150.018 104.125 149.263 103.646 148.751C103.167 148.239 102.558 147.925 101.82 147.811C100.871 147.664 100.091 147.837 99.4799 148.331C98.8702 148.818 98.4978 149.499 98.3625 150.372L97.0007 159.163L94.8908 158.837L96.3234 149.588C96.4423 148.82 96.289 148.164 95.8635 147.618C95.4388 147.066 94.8338 146.729 94.0485 146.607C93.5093 146.524 92.983 146.589 92.4697 146.804C91.9622 147.019 91.5253 147.36 91.1592 147.825C90.7998 148.285 90.5688 148.847 90.4662 149.509L89.1589 157.949L87.0841 157.627ZM113.823 162.057C112.522 161.856 111.444 161.395 110.589 160.674C109.741 159.949 109.143 159.028 108.794 157.911C108.451 156.79 108.387 155.538 108.601 154.155C108.816 152.772 109.256 151.592 109.924 150.615C110.598 149.633 111.435 148.916 112.435 148.465C113.442 148.009 114.555 147.875 115.774 148.064C116.478 148.173 117.154 148.398 117.803 148.738C118.453 149.079 119.018 149.557 119.499 150.171C119.981 150.78 120.322 151.541 120.523 152.454C120.723 153.368 120.726 154.454 120.531 155.715L120.395 156.594L109.986 154.981L110.263 153.188L118.562 154.473C118.68 153.712 118.633 153.008 118.421 152.363C118.215 151.719 117.86 151.181 117.357 150.749C116.86 150.318 116.236 150.044 115.486 149.928C114.659 149.8 113.912 149.894 113.245 150.211C112.585 150.523 112.043 150.979 111.62 151.58C111.197 152.18 110.927 152.853 110.812 153.597L110.627 154.793C110.469 155.812 110.511 156.704 110.753 157.468C111.001 158.226 111.413 158.839 111.989 159.307C112.566 159.768 113.273 160.064 114.111 160.194C114.657 160.278 115.161 160.278 115.624 160.194C116.094 160.105 116.514 159.93 116.884 159.669C117.256 159.402 117.566 159.048 117.814 158.607L119.731 159.48C119.415 160.127 118.968 160.67 118.39 161.108C117.813 161.541 117.136 161.844 116.358 162.018C115.582 162.186 114.737 162.199 113.823 162.057Z" fill="#14191F" fill-opacity="0.64"/>
<path d="M40.9685 218.124L47.5922 175.363L50.3316 175.787L43.7079 218.548L40.9685 218.124ZM53.3739 190.267C53.444 188.784 52.9629 187.546 51.9307 186.554C50.9097 185.563 49.4804 184.926 47.6431 184.641C46.3513 184.441 45.2131 184.464 44.2285 184.711C43.2439 184.958 42.4548 185.377 41.8614 185.969C41.2679 186.561 40.8992 187.285 40.7552 188.141C40.6448 188.854 40.7106 189.497 40.9524 190.07C41.2054 190.645 41.5874 191.161 42.0984 191.616C42.6112 192.06 43.1937 192.459 43.8462 192.81C44.4987 193.162 45.1627 193.476 45.8384 193.752L48.9213 195.05C50.1664 195.551 51.3451 196.15 52.4573 196.847C53.5806 197.545 54.5551 198.358 55.3809 199.284C56.2178 200.212 56.8293 201.27 57.2153 202.459C57.6013 203.647 57.6796 204.982 57.4502 206.463C57.1397 208.468 56.3541 210.153 55.0933 211.52C53.8342 212.876 52.1695 213.832 50.0991 214.39C48.0415 214.938 45.643 214.999 42.9037 214.575C40.2422 214.163 37.9954 213.393 36.1632 212.265C34.3421 211.139 33.0028 209.7 32.1453 207.948C31.299 206.198 31.0072 204.18 31.27 201.895L37.3667 202.839C37.2713 204.044 37.4852 205.092 38.0086 205.983C38.532 206.874 39.2813 207.594 40.2566 208.144C41.243 208.696 42.382 209.072 43.6738 209.272C45.0212 209.481 46.2326 209.463 47.308 209.219C48.3963 208.966 49.2861 208.522 49.9772 207.888C50.6701 207.243 51.0981 206.431 51.261 205.453C51.3878 204.56 51.24 203.785 50.8175 203.127C50.3966 202.457 49.7543 201.856 48.8904 201.323C48.0394 200.781 47.0255 200.259 45.8489 199.757L42.1123 198.152C39.4071 196.992 37.3498 195.55 35.9406 193.827C34.5442 192.094 34.0357 190.002 34.4152 187.552C34.7274 185.537 35.5465 183.856 36.8724 182.511C38.2094 181.167 39.8891 180.225 41.9115 179.683C43.9357 179.13 46.1449 179.038 48.539 179.409C50.9666 179.785 53.0279 180.538 54.7231 181.667C56.4311 182.787 57.6929 184.174 58.5085 185.828C59.3259 187.471 59.602 189.259 59.337 191.19L53.3739 190.267ZM72.8556 219.163C71.2204 218.899 69.6664 218.367 68.1937 217.569C66.7227 216.759 65.4619 215.623 64.4113 214.161C63.3625 212.687 62.6345 210.835 62.2273 208.606C61.8218 206.365 61.8678 203.675 62.3654 200.537C62.819 197.608 63.5353 195.045 64.5143 192.848C65.4932 190.65 66.6897 188.852 68.1039 187.451C69.5198 186.04 71.1165 185.045 72.894 184.465C74.6825 183.887 76.6013 183.756 78.6503 184.074C80.7994 184.406 82.6381 185.125 84.1662 186.228C85.7055 187.333 86.8735 188.7 87.6703 190.328C88.4688 191.946 88.8482 193.692 88.8086 195.568L82.7118 194.623C82.6036 193.261 82.1254 192.115 81.2774 191.185C80.4422 190.246 79.2896 189.663 77.8197 189.435C75.4478 189.068 73.462 189.815 71.8623 191.677C70.2737 193.54 69.1953 196.27 68.627 199.865L68.8609 199.901C69.5583 199.005 70.3957 198.274 71.3729 197.707C72.3502 197.14 73.4137 196.752 74.5637 196.542C75.7265 196.323 76.9204 196.309 78.1453 196.499C80.1497 196.809 81.8739 197.566 83.318 198.771C84.7732 199.977 85.8382 201.493 86.5132 203.319C87.1898 205.135 87.3553 207.122 87.0095 209.28C86.6722 211.531 85.8469 213.473 84.5335 215.105C83.2219 216.727 81.5625 217.906 79.5553 218.645C77.5481 219.383 75.3149 219.556 72.8556 219.163ZM73.5984 214.147C74.8122 214.335 75.9437 214.208 76.9927 213.766C78.0418 213.324 78.9224 212.646 79.6344 211.73C80.3464 210.814 80.7935 209.731 80.9755 208.482C81.1764 207.259 81.0808 206.11 80.6887 205.034C80.3077 203.96 79.6888 203.06 78.8319 202.335C77.9751 201.609 76.9398 201.152 75.726 200.964C74.824 200.825 73.9565 200.867 73.1236 201.091C72.2906 201.316 71.5371 201.689 70.8632 202.212C70.191 202.724 69.6258 203.355 69.1675 204.105C68.7221 204.845 68.424 205.666 68.2731 206.566C68.0997 207.759 68.2082 208.899 68.5986 209.986C68.989 211.073 69.6165 211.991 70.481 212.741C71.3455 213.49 72.3847 213.959 73.5984 214.147ZM96.5688 217.568L96.067 219.372C95.6938 220.751 95.1946 222.133 94.5695 223.519C93.9538 224.917 93.3339 226.195 92.7099 227.353C92.0858 228.511 91.5858 229.419 91.2099 230.08L87.1343 229.448C87.3954 228.793 87.7501 227.902 88.1985 226.774C88.658 225.648 89.1288 224.375 89.6109 222.956C90.093 221.537 90.495 220.083 90.817 218.593L91.2237 216.74L96.5688 217.568ZM112.6 225.32C110.116 224.935 107.976 224.176 106.179 223.042C104.393 221.91 103.067 220.536 102.2 218.92C101.345 217.293 101.067 215.557 101.365 213.71C101.576 212.272 102.092 211.001 102.913 209.896C103.734 208.792 104.747 207.923 105.951 207.288C107.168 206.644 108.462 206.315 109.833 206.299L109.869 206.065C108.17 205.403 106.884 204.285 106.01 202.713C105.149 201.132 104.867 199.418 105.164 197.571C105.426 195.81 106.159 194.315 107.364 193.088C108.569 191.861 110.096 190.986 111.944 190.462C113.794 189.928 115.828 189.832 118.044 190.176C120.237 190.515 122.129 191.219 123.72 192.286C125.324 193.344 126.514 194.641 127.291 196.175C128.08 197.711 128.337 199.359 128.065 201.118C127.779 202.967 126.975 204.513 125.653 205.756C124.345 206.99 122.797 207.668 121.011 207.791L120.974 208.025C122.276 208.454 123.399 209.158 124.342 210.137C125.298 211.106 126 212.241 126.448 213.542C126.908 214.845 127.026 216.214 126.804 217.651C126.518 219.499 125.716 221.068 124.399 222.358C123.083 223.637 121.403 224.545 119.358 225.084C117.325 225.624 115.072 225.703 112.6 225.32ZM113.34 220.542C114.62 220.741 115.767 220.696 116.781 220.409C117.797 220.11 118.628 219.6 119.276 218.879C119.923 218.159 120.334 217.276 120.507 216.231C120.665 215.138 120.53 214.13 120.103 213.209C119.688 212.278 119.039 211.499 118.156 210.872C117.283 210.247 116.24 209.84 115.027 209.652C113.802 209.462 112.673 209.532 111.641 209.863C110.61 210.193 109.75 210.739 109.062 211.499C108.387 212.249 107.97 213.171 107.813 214.264C107.639 215.309 107.752 216.273 108.151 217.156C108.552 218.028 109.192 218.76 110.069 219.352C110.958 219.945 112.048 220.342 113.34 220.542ZM115.754 204.958C116.8 205.12 117.757 205.052 118.625 204.753C119.503 204.456 120.235 203.965 120.82 203.28C121.405 202.595 121.78 201.758 121.944 200.769C122.085 199.787 121.984 198.893 121.641 198.088C121.3 197.271 120.754 196.599 120.004 196.072C119.255 195.534 118.351 195.183 117.293 195.02C116.213 194.852 115.229 194.911 114.341 195.195C113.466 195.47 112.743 195.945 112.17 196.621C111.611 197.287 111.261 198.11 111.121 199.092C110.956 200.081 111.043 200.99 111.382 201.818C111.735 202.637 112.283 203.326 113.029 203.886C113.788 204.437 114.696 204.794 115.754 204.958ZM142.21 229.906C139.727 229.522 137.586 228.763 135.789 227.629C134.003 226.497 132.677 225.123 131.81 223.506C130.956 221.88 130.677 220.144 130.975 218.297C131.186 216.859 131.702 215.587 132.523 214.483C133.344 213.379 134.357 212.509 135.561 211.875C136.779 211.231 138.073 210.901 139.443 210.885L139.48 210.652C137.781 209.989 136.494 208.872 135.62 207.3C134.759 205.718 134.477 204.004 134.775 202.157C135.036 200.396 135.769 198.902 136.974 197.675C138.179 196.447 139.706 195.572 141.554 195.049C143.405 194.515 145.438 194.419 147.654 194.762C149.847 195.102 151.74 195.806 153.33 196.873C154.934 197.931 156.124 199.227 156.901 200.762C157.69 202.298 157.948 203.945 157.675 205.705C157.389 207.553 156.585 209.099 155.263 210.343C153.955 211.577 152.407 212.255 150.621 212.377L150.585 212.611C151.886 213.041 153.009 213.745 153.952 214.724C154.908 215.693 155.61 216.828 156.058 218.129C156.518 219.431 156.637 220.801 156.414 222.237C156.128 224.086 155.326 225.655 154.009 226.945C152.693 228.223 151.013 229.132 148.968 229.67C146.935 230.211 144.682 230.289 142.21 229.906ZM142.95 225.129C144.23 225.327 145.378 225.283 146.391 224.995C147.407 224.696 148.238 224.187 148.886 223.466C149.534 222.745 149.944 221.862 150.117 220.817C150.275 219.724 150.14 218.717 149.713 217.796C149.299 216.865 148.649 216.086 147.766 215.459C146.894 214.833 145.851 214.426 144.637 214.238C143.412 214.049 142.283 214.119 141.252 214.45C140.22 214.78 139.36 215.325 138.672 216.085C137.997 216.836 137.581 217.758 137.423 218.851C137.249 219.896 137.362 220.86 137.762 221.743C138.162 222.614 138.802 223.346 139.679 223.938C140.568 224.532 141.658 224.929 142.95 225.129ZM145.364 209.545C146.411 209.707 147.368 209.639 148.235 209.34C149.113 209.042 149.845 208.551 150.43 207.867C151.015 207.182 151.39 206.345 151.555 205.355C151.695 204.374 151.594 203.48 151.251 202.674C150.91 201.858 150.365 201.186 149.614 200.659C148.865 200.121 147.961 199.77 146.903 199.606C145.823 199.439 144.839 199.497 143.951 199.782C143.076 200.057 142.353 200.532 141.781 201.207C141.221 201.873 140.871 202.697 140.731 203.679C140.566 204.668 140.653 205.577 140.993 206.405C141.345 207.223 141.894 207.913 142.639 208.473C143.398 209.024 144.306 209.381 145.364 209.545ZM159.732 232.142L160.426 227.665L174.105 217.862C175.419 216.891 176.523 216.019 177.418 215.246C178.314 214.472 179.015 213.697 179.523 212.92C180.031 212.144 180.358 211.282 180.505 210.336C180.672 209.256 180.571 208.293 180.2 207.449C179.83 206.594 179.25 205.888 178.458 205.332C177.666 204.776 176.724 204.414 175.633 204.245C174.508 204.07 173.487 204.152 172.568 204.488C171.651 204.814 170.893 205.363 170.294 206.137C169.707 206.913 169.322 207.885 169.141 209.054L163.245 208.141C163.581 205.97 164.369 204.159 165.608 202.709C166.848 201.259 168.404 200.229 170.278 199.618C172.162 199.009 174.235 198.88 176.495 199.23C178.789 199.585 180.739 200.326 182.343 201.453C183.947 202.579 185.113 203.963 185.839 205.603C186.577 207.245 186.797 209.024 186.501 210.94C186.302 212.22 185.862 213.441 185.181 214.601C184.5 215.761 183.424 216.997 181.955 218.309C180.498 219.622 178.495 221.176 175.948 222.971L169.123 228.054L169.087 228.288L183.986 230.596L183.184 235.774L159.732 232.142ZM191.929 237.505C190.915 237.348 190.102 236.857 189.489 236.033C188.875 235.208 188.653 234.284 188.823 233.261C188.967 232.257 189.457 231.455 190.291 230.854C191.125 230.254 192.049 230.032 193.062 230.189C194.042 230.341 194.839 230.829 195.452 231.654C196.077 232.481 196.317 233.396 196.173 234.4C196.056 235.077 195.783 235.668 195.351 236.171C194.931 236.676 194.416 237.052 193.808 237.3C193.212 237.539 192.586 237.607 191.929 237.505ZM212.296 240.951C209.545 240.525 207.292 239.463 205.537 237.766C203.794 236.059 202.598 233.804 201.949 231.001C201.313 228.189 201.284 224.917 201.862 221.187C202.451 217.458 203.471 214.367 204.923 211.912C206.388 209.448 208.208 207.677 210.381 206.6C212.566 205.524 215.028 205.199 217.768 205.623C220.507 206.047 222.755 207.103 224.513 208.789C226.27 210.475 227.468 212.713 228.108 215.503C228.759 218.295 228.796 221.551 228.22 225.27C227.64 229.011 226.616 232.125 225.148 234.612C223.692 237.089 221.871 238.871 219.685 239.957C217.509 241.046 215.046 241.377 212.296 240.951ZM213.105 235.723C215.243 236.054 217.093 235.263 218.656 233.35C220.23 231.427 221.336 228.411 221.973 224.302C222.394 221.585 222.463 219.258 222.182 217.322C221.9 215.385 221.314 213.869 220.423 212.773C219.534 211.666 218.383 211.003 216.968 210.784C214.841 210.455 212.996 211.252 211.432 213.177C209.87 215.09 208.768 218.083 208.126 222.157C207.692 224.884 207.609 227.22 207.878 229.166C208.158 231.113 208.742 232.641 209.631 233.748C210.522 234.844 211.68 235.502 213.105 235.723ZM242.916 245.694C240.166 245.268 237.913 244.206 236.157 242.509C234.415 240.802 233.219 238.547 232.57 235.744C231.934 232.932 231.905 229.661 232.482 225.93C233.071 222.201 234.092 219.11 235.544 216.655C237.009 214.191 238.828 212.42 241.002 211.343C243.187 210.267 245.649 209.942 248.389 210.366C251.128 210.79 253.376 211.846 255.133 213.532C256.89 215.218 258.089 217.456 258.728 220.246C259.379 223.038 259.417 226.294 258.84 230.013C258.261 233.755 257.237 236.869 255.769 239.355C254.313 241.832 252.492 243.614 250.305 244.701C248.13 245.789 245.667 246.12 242.916 245.694ZM243.726 240.466C245.864 240.797 247.714 240.006 249.276 238.093C250.851 236.17 251.957 233.154 252.593 229.045C253.014 226.328 253.084 224.001 252.802 222.065C252.521 220.128 251.935 218.612 251.044 217.517C250.155 216.41 249.003 215.747 247.589 215.528C245.462 215.198 243.617 215.995 242.053 217.92C240.491 219.833 239.389 222.827 238.746 226.9C238.312 229.627 238.23 231.963 238.499 233.909C238.779 235.857 239.363 237.384 240.252 238.491C241.143 239.587 242.301 240.245 243.726 240.466Z" fill="#182700"/>
</g>
<rect x="38.0621" y="0.714777" width="307.057" height="243.995" rx="21.9201" transform="rotate(8.80519 38.0621 0.714777)" stroke="#EFEFEF" stroke-width="1.25258"/>
<defs>
<clipPath id="clip0_1_1987">
<rect x="37.5391" width="308.31" height="245.247" rx="22.5464" transform="rotate(8.80519 37.5391 0)" fill="white"/>
</clipPath>
<clipPath id="clip1_1_1987">
<rect x="56.3684" y="25.7319" width="263.217" height="71.0825" rx="13.7784" transform="rotate(8.80519 56.3684 25.7319)" fill="white"/>
</clipPath>
</defs>
</svg>
